<svg width="248" height="85" viewBox="0 0 248 85" fill="none" xmlns="http://www.w3.org/2000/svg">
<g filter="url(#filter0_i)">
<path d="M117.272 32.3506L111.775 32.6777L111.448 25.2842L99.8672 25.5459L99.9981 40.4639H109.747V45.1748L100.064 45.7637L100.194 58.9805L104.84 59.2422V65.0654L90.6417 65.3926L90.4454 58.9805H94.3057L94.2403 25.5459L90.1837 25.6768L90.5108 19.3301L116.944 19.0029L117.272 32.3506ZM138.144 47.2031C138.144 48.2936 138.078 49.5041 137.947 50.8345C137.816 52.1649 137.587 53.5171 137.26 54.8911C136.933 56.2433 136.497 57.5737 135.952 58.8823C135.428 60.1691 134.763 61.3141 133.956 62.3174C133.149 63.3206 132.2 64.1276 131.11 64.7383C130.041 65.349 128.787 65.6543 127.348 65.6543C125.996 65.6543 124.807 65.4035 123.782 64.9019C122.757 64.3784 121.873 63.7023 121.132 62.8735C120.39 62.0229 119.769 61.0415 119.267 59.9292C118.766 58.8169 118.362 57.661 118.057 56.4614C117.773 55.2619 117.566 54.0514 117.435 52.8301C117.326 51.6087 117.272 50.4746 117.272 49.4277C117.272 48.3372 117.337 47.1159 117.468 45.7637C117.599 44.4115 117.817 43.0483 118.122 41.6743C118.449 40.2785 118.875 38.9263 119.398 37.6177C119.943 36.3091 120.608 35.1532 121.394 34.1499C122.201 33.1248 123.149 32.307 124.24 31.6963C125.33 31.0856 126.606 30.7803 128.067 30.7803C129.398 30.7803 130.565 31.042 131.568 31.5654C132.593 32.0889 133.476 32.7868 134.218 33.6592C134.981 34.5316 135.603 35.5348 136.083 36.6689C136.584 37.8031 136.988 38.9808 137.293 40.2021C137.598 41.4017 137.816 42.6121 137.947 43.8335C138.078 45.0549 138.144 46.1781 138.144 47.2031ZM132.975 47.0068C132.975 46.5488 132.953 45.96 132.909 45.2402C132.866 44.5205 132.778 43.7572 132.648 42.9502C132.538 42.1432 132.375 41.3363 132.157 40.5293C131.939 39.7223 131.655 38.9917 131.306 38.3374C130.957 37.6831 130.521 37.1597 129.998 36.7671C129.496 36.3527 128.896 36.1455 128.198 36.1455C127.348 36.1455 126.617 36.4072 126.006 36.9307C125.418 37.4323 124.905 38.0866 124.469 38.8936C124.054 39.7005 123.716 40.6056 123.455 41.6089C123.193 42.5903 122.986 43.5827 122.833 44.5859C122.702 45.5674 122.615 46.4943 122.571 47.3667C122.528 48.2391 122.506 48.9479 122.506 49.4932C122.506 49.9512 122.528 50.54 122.571 51.2598C122.615 51.9577 122.702 52.7101 122.833 53.5171C122.964 54.3241 123.138 55.131 123.357 55.938C123.596 56.7231 123.891 57.4429 124.24 58.0972C124.589 58.7515 125.014 59.2858 125.516 59.7002C126.017 60.0928 126.606 60.2891 127.282 60.2891C128.111 60.2891 128.82 60.0382 129.409 59.5366C130.019 59.035 130.532 58.3916 130.946 57.6064C131.383 56.7995 131.732 55.9053 131.993 54.9238C132.255 53.9424 132.451 52.9609 132.582 51.9795C132.735 50.9762 132.833 50.0384 132.877 49.166C132.942 48.2936 132.975 47.5739 132.975 47.0068ZM162.287 47.2031C162.287 48.2936 162.222 49.5041 162.091 50.8345C161.96 52.1649 161.731 53.5171 161.404 54.8911C161.077 56.2433 160.641 57.5737 160.095 58.8823C159.572 60.1691 158.907 61.3141 158.1 62.3174C157.293 63.3206 156.344 64.1276 155.253 64.7383C154.185 65.349 152.931 65.6543 151.491 65.6543C150.139 65.6543 148.95 65.4035 147.925 64.9019C146.9 64.3784 146.017 63.7023 145.275 62.8735C144.534 62.0229 143.912 61.0415 143.411 59.9292C142.909 58.8169 142.506 57.661 142.2 56.4614C141.917 55.2619 141.71 54.0514 141.579 52.8301C141.47 51.6087 141.415 50.4746 141.415 49.4277C141.415 48.3372 141.481 47.1159 141.611 45.7637C141.742 44.4115 141.96 43.0483 142.266 41.6743C142.593 40.2785 143.018 38.9263 143.542 37.6177C144.087 36.3091 144.752 35.1532 145.537 34.1499C146.344 33.1248 147.293 32.307 148.383 31.6963C149.474 31.0856 150.75 30.7803 152.211 30.7803C153.541 30.7803 154.708 31.042 155.711 31.5654C156.737 32.0889 157.62 32.7868 158.361 33.6592C159.125 34.5316 159.746 35.5348 160.226 36.6689C160.728 37.8031 161.131 38.9808 161.437 40.2021C161.742 41.4017 161.96 42.6121 162.091 43.8335C162.222 45.0549 162.287 46.1781 162.287 47.2031ZM157.118 47.0068C157.118 46.5488 157.096 45.96 157.053 45.2402C157.009 44.5205 156.922 43.7572 156.791 42.9502C156.682 42.1432 156.518 41.3363 156.3 40.5293C156.082 39.7223 155.799 38.9917 155.45 38.3374C155.101 37.6831 154.665 37.1597 154.141 36.7671C153.64 36.3527 153.04 36.1455 152.342 36.1455C151.491 36.1455 150.761 36.4072 150.15 36.9307C149.561 37.4323 149.049 38.0866 148.612 38.8936C148.198 39.7005 147.86 40.6056 147.598 41.6089C147.336 42.5903 147.129 43.5827 146.977 44.5859C146.846 45.5674 146.759 46.4943 146.715 47.3667C146.671 48.2391 146.649 48.9479 146.649 49.4932C146.649 49.9512 146.671 50.54 146.715 51.2598C146.759 51.9577 146.846 52.7101 146.977 53.5171C147.107 54.3241 147.282 55.131 147.5 55.938C147.74 56.7231 148.034 57.4429 148.383 58.0972C148.732 58.7515 149.158 59.2858 149.659 59.7002C150.161 60.0928 150.75 60.2891 151.426 60.2891C152.255 60.2891 152.963 60.0382 153.552 59.5366C154.163 59.035 154.676 58.3916 155.09 57.6064C155.526 56.7995 155.875 55.9053 156.137 54.9238C156.398 53.9424 156.595 52.9609 156.726 51.9795C156.878 50.9762 156.976 50.0384 157.02 49.166C157.086 48.2936 157.118 47.5739 157.118 47.0068ZM190.782 65.0654L182.014 65.3271L181.556 61.5322C180.836 62.71 179.877 63.6369 178.677 64.313C177.478 64.9891 176.191 65.3271 174.817 65.3271C173.465 65.3271 172.298 65.0436 171.316 64.4766C170.357 63.9095 169.528 63.1571 168.83 62.2192C168.154 61.2814 167.598 60.2127 167.162 59.0132C166.747 57.8136 166.42 56.5814 166.18 55.3164C165.962 54.0514 165.809 52.8083 165.722 51.5869C165.635 50.3656 165.591 49.2533 165.591 48.25C165.591 47.2467 165.657 46.1235 165.788 44.8804C165.919 43.6154 166.137 42.3395 166.442 41.0527C166.769 39.766 167.183 38.5119 167.685 37.2905C168.209 36.0692 168.841 34.9787 169.583 34.019C170.346 33.0594 171.24 32.2961 172.265 31.729C173.29 31.1401 174.468 30.8457 175.798 30.8457C176.823 30.8457 177.794 31.1183 178.71 31.6636C179.648 32.187 180.378 32.874 180.902 33.7246V23.0596H175.013V17.4326L186.987 17.6289L186.463 59.7656L190.782 59.6348V65.0654ZM180.706 40.9219C180.575 40.5293 180.389 40.0931 180.149 39.6133C179.91 39.1335 179.615 38.6864 179.266 38.272C178.939 37.8358 178.557 37.4759 178.121 37.1924C177.707 36.887 177.26 36.7344 176.78 36.7344C176.06 36.7344 175.428 36.9416 174.882 37.356C174.359 37.7703 173.912 38.3047 173.541 38.959C173.17 39.6133 172.854 40.3548 172.592 41.1836C172.352 41.9906 172.167 42.8084 172.036 43.6372C171.905 44.4442 171.807 45.2184 171.742 45.96C171.698 46.6797 171.676 47.2904 171.676 47.792C171.676 48.25 171.676 48.8498 171.676 49.5913C171.676 50.3328 171.709 51.1398 171.774 52.0122C171.84 52.8628 171.949 53.7352 172.102 54.6294C172.276 55.5018 172.516 56.2979 172.821 57.0176C173.127 57.7373 173.519 58.3262 173.999 58.7842C174.479 59.2204 175.079 59.4385 175.798 59.4385C176.344 59.4385 176.867 59.2858 177.369 58.9805C177.87 58.6533 178.328 58.2607 178.743 57.8027C179.157 57.3229 179.517 56.8213 179.822 56.2979C180.149 55.7744 180.4 55.2946 180.575 54.8584L180.706 40.9219ZM220.389 32.3506L214.893 32.6777L214.565 25.2842L202.984 25.5459L203.115 40.4639H212.864V45.1748L203.181 45.7637L203.312 58.9805L207.957 59.2422V65.0654L193.759 65.3926L193.563 58.9805H197.423L197.357 25.5459L193.301 25.6768L193.628 19.3301L220.062 19.0029L220.389 32.3506ZM246.659 37.2578L243.518 37.4541L235.732 72.7861L238.415 72.917V78.3477L227.161 78.4785L226.964 73.375L230.105 73.0479L231.937 65.1963L223.693 36.4727H220.683L221.01 30.9111L232.003 31.042L232.133 36.3418L229.254 36.6035L234.423 56.3633L238.218 36.9307L235.667 36.6035L235.339 31.3691L246.659 31.2383V37.2578Z" fill="white"/>
<path d="M117.272 32.3506L117.331 33.3488L118.295 33.2914L118.271 32.3261L117.272 32.3506ZM111.775 32.6777L110.776 32.7219L110.821 33.7363L111.835 33.676L111.775 32.6777ZM111.448 25.2842L112.447 25.24L112.404 24.2623L111.426 24.2844L111.448 25.2842ZM99.8672 25.5459L99.8447 24.5462L98.8586 24.5684L98.8673 25.5547L99.8672 25.5459ZM99.9981 40.4639L98.9981 40.4726L99.0068 41.4639H99.9981V40.4639ZM109.747 40.4639H110.747V39.4639H109.747V40.4639ZM109.747 45.1748L109.808 46.173L110.747 46.1158V45.1748H109.747ZM100.064 45.7637L100.003 44.7655L99.0542 44.8232L99.0636 45.7736L100.064 45.7637ZM100.194 58.9805L99.1944 58.9904L99.2037 59.9262L100.138 59.9789L100.194 58.9805ZM104.84 59.2422H105.84V58.2969L104.896 58.2438L104.84 59.2422ZM104.84 65.0654L104.863 66.0652L105.84 66.0427V65.0654H104.84ZM90.6417 65.3926L89.6421 65.4232L89.6725 66.4152L90.6647 66.3923L90.6417 65.3926ZM90.4454 58.9805V57.9805H89.4143L89.4458 59.0111L90.4454 58.9805ZM94.3057 58.9805V59.9805H95.3077L95.3057 58.9785L94.3057 58.9805ZM94.2403 25.5459L95.2403 25.5439L95.2383 24.5132L94.2081 24.5464L94.2403 25.5459ZM90.1837 25.6768L89.185 25.6253L89.129 26.7113L90.2159 26.6762L90.1837 25.6768ZM90.5108 19.3301L90.4984 18.3302L89.5604 18.3418L89.5121 19.2786L90.5108 19.3301ZM116.944 19.0029L117.944 18.9784L117.92 17.9908L116.932 18.003L116.944 19.0029ZM117.212 31.3524L111.716 31.6795L111.835 33.676L117.331 33.3488L117.212 31.3524ZM112.774 32.6335L112.447 25.24L110.449 25.3284L110.776 32.7219L112.774 32.6335ZM111.426 24.2844L99.8447 24.5462L99.8898 26.5456L111.471 26.2839L111.426 24.2844ZM98.8673 25.5547L98.9981 40.4726L100.998 40.4551L100.867 25.5371L98.8673 25.5547ZM99.9981 41.4639H109.747V39.4639H99.9981V41.4639ZM108.747 40.4639V45.1748H110.747V40.4639H108.747ZM109.686 44.1766L100.003 44.7655L100.124 46.7618L109.808 46.173L109.686 44.1766ZM99.0636 45.7736L99.1944 58.9904L101.194 58.9706L101.063 45.7538L99.0636 45.7736ZM100.138 59.9789L104.784 60.2406L104.896 58.2438L100.251 57.9821L100.138 59.9789ZM103.84 59.2422V65.0654H105.84V59.2422H103.84ZM104.817 64.0657L90.6186 64.3928L90.6647 66.3923L104.863 66.0652L104.817 64.0657ZM91.6412 65.362L91.4449 58.9499L89.4458 59.0111L89.6421 65.4232L91.6412 65.362ZM90.4454 59.9805H94.3057V57.9805H90.4454V59.9805ZM95.3057 58.9785L95.2403 25.5439L93.2403 25.5479L93.3057 58.9824L95.3057 58.9785ZM94.2081 24.5464L90.1514 24.6773L90.2159 26.6762L94.2725 26.5454L94.2081 24.5464ZM91.1823 25.7282L91.5095 19.3816L89.5121 19.2786L89.185 25.6253L91.1823 25.7282ZM90.5232 20.33L116.957 20.0029L116.932 18.003L90.4984 18.3302L90.5232 20.33ZM115.945 19.0274L116.272 32.3751L118.271 32.3261L117.944 18.9784L115.945 19.0274ZM137.26 54.8911L138.232 55.1263L138.233 55.1227L137.26 54.8911ZM135.952 58.8823L135.029 58.4977L135.025 58.5055L135.952 58.8823ZM131.11 64.7383L130.621 63.8657L130.614 63.87L131.11 64.7383ZM123.782 64.9019L123.327 65.7925L123.335 65.7963L123.342 65.8001L123.782 64.9019ZM121.132 62.8735L120.378 63.5307L120.387 63.5403L121.132 62.8735ZM118.057 56.4614L117.084 56.6915L117.085 56.6998L117.088 56.7081L118.057 56.4614ZM117.435 52.8301L116.439 52.919L116.44 52.9278L116.441 52.9366L117.435 52.8301ZM118.122 41.6743L117.148 41.4461L117.146 41.4574L118.122 41.6743ZM119.398 37.6177L118.475 37.2331L118.472 37.2397L118.47 37.2463L119.398 37.6177ZM121.394 34.1499L120.608 33.5313L120.606 33.5336L121.394 34.1499ZM124.24 31.6963L124.728 32.5688L124.24 31.6963ZM131.568 31.5654L131.105 32.452L131.113 32.456L131.568 31.5654ZM134.218 33.6592L133.456 34.3068L133.461 34.3123L133.465 34.3177L134.218 33.6592ZM136.083 36.6689L135.162 37.0586L135.165 37.066L135.168 37.0735L136.083 36.6689ZM137.293 40.2021L136.323 40.4447L136.324 40.4488L137.293 40.2021ZM132.648 42.9502L131.657 43.0841L131.658 43.0972L131.66 43.1103L132.648 42.9502ZM131.306 38.3374L130.424 38.808L131.306 38.3374ZM129.998 36.7671L129.361 37.5381L129.379 37.553L129.398 37.5671L129.998 36.7671ZM126.006 36.9307L126.655 37.6919L126.657 37.6899L126.006 36.9307ZM124.469 38.8936L123.589 38.418L123.584 38.4273L123.579 38.4368L124.469 38.8936ZM123.455 41.6089L124.421 41.8666L124.422 41.8613L123.455 41.6089ZM122.833 44.5859L121.844 44.4355L121.843 44.4446L121.842 44.4538L122.833 44.5859ZM122.571 51.2598L121.573 51.3203L121.573 51.3221L122.571 51.2598ZM123.357 55.938L122.391 56.1989L122.395 56.2146L122.4 56.2302L123.357 55.938ZM124.24 58.0972L123.357 58.5678L124.24 58.0972ZM125.516 59.7002L124.879 60.4712L124.889 60.4796L124.899 60.4877L125.516 59.7002ZM129.409 59.5366L128.774 58.7639L128.767 58.7696L128.76 58.7754L129.409 59.5366ZM130.946 57.6064L130.067 57.1309L130.062 57.1397L130.946 57.6064ZM132.582 51.9795L131.593 51.8291L131.592 51.8382L131.591 51.8473L132.582 51.9795ZM132.877 49.166L131.879 49.0912L131.878 49.1036L131.878 49.1161L132.877 49.166ZM137.144 47.2031C137.144 48.2546 137.08 49.4318 136.952 50.7366L138.943 50.9324C139.076 49.5764 139.144 48.3326 139.144 47.2031H137.144ZM136.952 50.7366C136.826 52.0195 136.605 53.327 136.288 54.6595L138.233 55.1227C138.57 53.7072 138.807 52.3102 138.943 50.9324L136.952 50.7366ZM136.288 54.656C135.974 55.9562 135.554 57.2367 135.029 58.4977L136.875 59.2669C137.44 57.9108 137.893 56.5305 138.232 55.1263L136.288 54.656ZM135.025 58.5055C134.536 59.7094 133.918 60.7688 133.177 61.6906L134.735 62.9441C135.608 61.8594 136.321 60.6289 136.878 59.2591L135.025 58.5055ZM133.177 61.6906C132.448 62.5972 131.597 63.3195 130.621 63.8658L131.599 65.6108C132.804 64.9357 133.851 64.0441 134.735 62.9441L133.177 61.6906ZM130.614 63.87C129.72 64.3807 128.643 64.6543 127.348 64.6543V66.6543C128.931 66.6543 130.362 66.3172 131.606 65.6065L130.614 63.87ZM127.348 64.6543C126.12 64.6543 125.087 64.427 124.221 64.0036L123.342 65.8001C124.527 66.38 125.871 66.6543 127.348 66.6543V64.6543ZM124.237 64.0112C123.317 63.5419 122.534 62.9404 121.877 62.2067L120.387 63.5403C121.213 64.4642 122.196 65.215 123.327 65.7925L124.237 64.0112ZM121.886 62.2164C121.214 61.4454 120.643 60.5483 120.179 59.5181L118.356 60.3403C118.894 61.5347 119.567 62.6005 120.378 63.5307L121.886 62.2164ZM120.179 59.5181C119.701 58.4596 119.317 57.3587 119.026 56.2147L117.088 56.7081C117.407 57.9632 117.83 59.1742 118.356 60.3403L120.179 59.5181ZM119.03 56.2314C118.756 55.0724 118.556 53.9032 118.429 52.7235L116.441 52.9366C116.576 54.1997 116.79 55.4514 117.084 56.6915L119.03 56.2314ZM118.431 52.7411C118.324 51.5445 118.272 50.4404 118.272 49.4277H116.272C116.272 50.5088 116.328 51.6729 116.439 52.919L118.431 52.7411ZM118.272 49.4277C118.272 48.3761 118.335 47.1876 118.463 45.86L116.472 45.6673C116.339 47.0442 116.272 48.2984 116.272 49.4277H118.272ZM118.463 45.86C118.59 44.5498 118.802 43.2269 119.098 41.8912L117.146 41.4574C116.832 42.8698 116.607 44.2732 116.472 45.6673L118.463 45.86ZM119.096 41.9025C119.412 40.5546 119.822 39.2503 120.326 37.9891L118.47 37.2463C117.927 38.6022 117.487 40.0023 117.149 41.4461L119.096 41.9025ZM120.321 38.0023C120.836 36.7675 121.457 35.6912 122.181 34.7662L120.606 33.5336C119.76 34.6151 119.051 35.8507 118.475 37.2331L120.321 38.0023ZM122.179 34.7685C122.909 33.8422 123.758 33.1124 124.728 32.5688L123.751 30.8238C122.541 31.5015 121.493 32.4075 120.608 33.5313L122.179 34.7685ZM124.728 32.5688C125.646 32.0549 126.748 31.7803 128.067 31.7803V29.7803C126.464 29.7803 125.014 30.1163 123.751 30.8238L124.728 32.5688ZM128.067 31.7803C129.265 31.7803 130.268 32.0151 131.105 32.452L132.03 30.6788C130.861 30.0688 129.531 29.7803 128.067 29.7803V31.7803ZM131.113 32.456C132.021 32.9198 132.8 33.5354 133.456 34.3068L134.98 33.0115C134.152 32.0382 133.165 31.2579 132.023 30.6748L131.113 32.456ZM133.465 34.3177C134.154 35.1051 134.721 36.0164 135.162 37.0586L137.004 36.2793C136.485 35.0533 135.808 33.958 134.97 33.0007L133.465 34.3177ZM135.168 37.0735C135.646 38.1545 136.031 39.278 136.323 40.4447L138.263 39.9596C137.944 38.6836 137.522 37.4516 136.997 36.2644L135.168 37.0735ZM136.324 40.4488C136.618 41.6027 136.827 42.7663 136.953 43.94L138.942 43.727C138.806 42.458 138.579 41.2007 138.262 39.9555L136.324 40.4488ZM136.953 43.94C137.081 45.1327 137.144 46.2198 137.144 47.2031H139.144C139.144 46.1363 139.076 44.977 138.942 43.727L136.953 43.94ZM133.975 47.0068C133.975 46.5206 133.952 45.9096 133.907 45.1797L131.911 45.3007C131.954 46.0103 131.975 46.577 131.975 47.0068H133.975ZM133.907 45.1797C133.862 44.4226 133.77 43.6258 133.635 42.7901L131.66 43.1103C131.787 43.8885 131.87 44.6184 131.911 45.3007L133.907 45.1797ZM133.639 42.8163C133.524 41.9654 133.351 41.116 133.122 40.2684L131.191 40.7902C131.399 41.5565 131.553 42.3211 131.657 43.0841L133.639 42.8163ZM133.122 40.2684C132.887 39.3977 132.577 38.5954 132.189 37.8668L130.424 38.808C130.733 39.3879 130.991 40.047 131.191 40.7902L133.122 40.2684ZM132.189 37.8668C131.78 37.1006 131.253 36.4585 130.598 35.9671L129.398 37.5671C129.789 37.8608 130.135 38.2656 130.424 38.808L132.189 37.8668ZM130.635 35.9961C129.94 35.4225 129.111 35.1455 128.198 35.1455V37.1455C128.682 37.1455 129.052 37.2829 129.361 37.5381L130.635 35.9961ZM128.198 35.1455C127.124 35.1455 126.159 35.4832 125.356 36.1714L126.657 37.6899C127.076 37.3313 127.572 37.1455 128.198 37.1455V35.1455ZM125.358 36.1694C124.659 36.7646 124.073 37.5221 123.589 38.418L125.349 39.3691C125.737 38.651 126.176 38.1 126.655 37.6919L125.358 36.1694ZM123.579 38.4368C123.127 39.3173 122.765 40.2923 122.487 41.3565L124.422 41.8613C124.668 40.919 124.982 40.0838 125.358 39.3504L123.579 38.4368ZM122.488 41.3512C122.217 42.3679 122.003 43.3961 121.844 44.4355L123.822 44.7364C123.969 43.7693 124.169 42.8127 124.421 41.8665L122.488 41.3512ZM121.842 44.4538C121.708 45.459 121.618 46.4135 121.573 47.3168L123.57 47.4166C123.612 46.5751 123.697 45.6758 123.824 44.7181L121.842 44.4538ZM121.573 47.3168C121.529 48.1972 121.506 48.9244 121.506 49.4932H123.506C123.506 48.9714 123.527 48.281 123.57 47.4166L121.573 47.3168ZM121.506 49.4932C121.506 49.9794 121.529 50.5904 121.573 51.3203L123.57 51.1993C123.527 50.4897 123.506 49.923 123.506 49.4932H121.506ZM121.573 51.3221C121.619 52.0577 121.711 52.8431 121.846 53.6772L123.82 53.357C123.694 52.5772 123.611 51.8577 123.569 51.1974L121.573 51.3221ZM121.846 53.6772C121.982 54.5188 122.164 55.3595 122.391 56.1989L124.322 55.6771C124.113 54.9026 123.945 54.1293 123.82 53.357L121.846 53.6772ZM122.4 56.2302C122.657 57.0706 122.975 57.8508 123.357 58.5678L125.122 57.6266C124.807 57.0349 124.536 56.3757 124.313 55.6458L122.4 56.2302ZM123.357 58.5678C123.759 59.3213 124.263 59.9628 124.879 60.4712L126.153 58.9292C125.765 58.6088 125.418 58.1817 125.122 57.6266L123.357 58.5678ZM124.899 60.4877C125.588 61.0268 126.397 61.2891 127.282 61.2891V59.2891C126.815 59.2891 126.446 59.1588 126.132 58.9127L124.899 60.4877ZM127.282 61.2891C128.33 61.2891 129.274 60.9651 130.057 60.2979L128.76 58.7754C128.366 59.1114 127.892 59.2891 127.282 59.2891V61.2891ZM130.043 60.3093C130.769 59.7135 131.362 58.9614 131.831 58.0732L130.062 57.1397C129.702 57.8218 129.27 58.3565 128.774 58.7639L130.043 60.3093ZM131.826 58.082C132.303 57.1991 132.68 56.2307 132.959 55.1815L131.027 54.6662C130.783 55.5798 130.462 56.3999 130.067 57.1309L131.826 58.082ZM132.959 55.1815C133.232 54.1599 133.437 53.1365 133.573 52.1117L131.591 51.8473C131.466 52.7854 131.278 53.7249 131.027 54.6662L132.959 55.1815ZM133.571 52.1299C133.728 51.0986 133.83 50.1269 133.875 49.216L131.878 49.1161C131.836 49.95 131.742 50.8539 131.593 51.8291L133.571 52.1299ZM133.874 49.2408C133.94 48.3553 133.975 47.6084 133.975 47.0068H131.975C131.975 47.5394 131.944 48.2319 131.879 49.0912L133.874 49.2408ZM161.404 54.8911L162.376 55.1263L162.377 55.1227L161.404 54.8911ZM160.095 58.8823L159.172 58.4977L159.169 58.5055L160.095 58.8823ZM155.253 64.7383L154.765 63.8657L154.757 63.87L155.253 64.7383ZM147.925 64.9019L147.471 65.7925L147.478 65.7963L147.486 65.8001L147.925 64.9019ZM145.275 62.8735L144.522 63.5307L144.53 63.5403L145.275 62.8735ZM142.2 56.4614L141.227 56.6915L141.229 56.6998L141.231 56.7081L142.2 56.4614ZM141.579 52.8301L140.583 52.919L140.583 52.9278L140.584 52.9366L141.579 52.8301ZM142.266 41.6743L141.292 41.4461L141.289 41.4574L142.266 41.6743ZM143.542 37.6177L142.618 37.2331L142.616 37.2397L142.613 37.2463L143.542 37.6177ZM145.537 34.1499L144.751 33.5313L144.75 33.5336L145.537 34.1499ZM148.383 31.6963L148.872 32.5688L148.383 31.6963ZM155.711 31.5654L155.249 32.452L155.257 32.456L155.711 31.5654ZM158.361 33.6592L157.599 34.3068L157.604 34.3123L157.609 34.3177L158.361 33.6592ZM160.226 36.6689L159.305 37.0586L159.308 37.066L159.312 37.0735L160.226 36.6689ZM161.437 40.2021L160.466 40.4447L160.467 40.4488L161.437 40.2021ZM156.791 42.9502L155.8 43.0841L155.802 43.0972L155.804 43.1103L156.791 42.9502ZM155.45 38.3374L154.567 38.808L155.45 38.3374ZM154.141 36.7671L153.504 37.5381L153.522 37.553L153.541 37.5671L154.141 36.7671ZM150.15 36.9307L150.798 37.6919L150.801 37.6899L150.15 36.9307ZM148.612 38.8936L147.733 38.418L147.728 38.4273L147.723 38.4368L148.612 38.8936ZM147.598 41.6089L148.564 41.8666L148.566 41.8613L147.598 41.6089ZM146.977 44.5859L145.988 44.4355L145.987 44.4446L145.985 44.4538L146.977 44.5859ZM146.715 51.2598L145.717 51.3203L145.717 51.3221L146.715 51.2598ZM147.5 55.938L146.535 56.1989L146.539 56.2146L146.544 56.2302L147.5 55.938ZM148.383 58.0972L147.501 58.5678L148.383 58.0972ZM149.659 59.7002L149.022 60.4712L149.033 60.4796L149.043 60.4877L149.659 59.7002ZM153.552 59.5366L152.918 58.7639L152.911 58.7696L152.904 58.7754L153.552 59.5366ZM155.09 57.6064L154.21 57.1309L154.206 57.1397L155.09 57.6064ZM156.726 51.9795L155.737 51.8291L155.736 51.8382L155.734 51.8473L156.726 51.9795ZM157.02 49.166L156.023 49.0912L156.022 49.1036L156.021 49.1161L157.02 49.166ZM161.287 47.2031C161.287 48.2546 161.224 49.4318 161.096 50.7366L163.086 50.9324C163.219 49.5764 163.287 48.3326 163.287 47.2031H161.287ZM161.096 50.7366C160.969 52.0195 160.748 53.327 160.431 54.6595L162.377 55.1227C162.714 53.7072 162.951 52.3102 163.086 50.9324L161.096 50.7366ZM160.432 54.656C160.117 55.9562 159.698 57.2367 159.172 58.4977L161.018 59.2669C161.583 57.9108 162.036 56.5305 162.376 55.1263L160.432 54.656ZM159.169 58.5055C158.679 59.7094 158.062 60.7688 157.32 61.6906L158.879 62.9441C159.751 61.8594 160.464 60.6289 161.022 59.2591L159.169 58.5055ZM157.32 61.6906C156.591 62.5972 155.74 63.3195 154.765 63.8658L155.742 65.6108C156.948 64.9357 157.994 64.0441 158.879 62.9441L157.32 61.6906ZM154.757 63.87C153.864 64.3807 152.786 64.6543 151.491 64.6543V66.6543C153.075 66.6543 154.506 66.3172 155.75 65.6065L154.757 63.87ZM151.491 64.6543C150.263 64.6543 149.23 64.427 148.365 64.0036L147.486 65.8001C148.671 66.38 150.015 66.6543 151.491 66.6543V64.6543ZM148.38 64.0112C147.461 63.5419 146.677 62.9404 146.021 62.2067L144.53 63.5403C145.357 64.4642 146.34 65.215 147.471 65.7925L148.38 64.0112ZM146.029 62.2164C145.357 61.4454 144.787 60.5483 144.322 59.5181L142.499 60.3403C143.038 61.5347 143.711 62.6005 144.522 63.5307L146.029 62.2164ZM144.322 59.5181C143.845 58.4596 143.461 57.3587 143.169 56.2147L141.231 56.7081C141.551 57.9632 141.973 59.1742 142.499 60.3403L144.322 59.5181ZM143.173 56.2314C142.899 55.0724 142.699 53.9032 142.573 52.7235L140.584 52.9366C140.72 54.1997 140.934 55.4514 141.227 56.6915L143.173 56.2314ZM142.575 52.7411C142.468 51.5445 142.415 50.4404 142.415 49.4277H140.415C140.415 50.5088 140.471 51.6729 140.583 52.919L142.575 52.7411ZM142.415 49.4277C142.415 48.3761 142.478 47.1876 142.607 45.86L140.616 45.6673C140.483 47.0442 140.415 48.2984 140.415 49.4277H142.415ZM142.607 45.86C142.734 44.5498 142.945 43.2269 143.242 41.8912L141.289 41.4574C140.976 42.8698 140.751 44.2732 140.616 45.6673L142.607 45.86ZM143.239 41.9025C143.555 40.5546 143.966 39.2503 144.47 37.9891L142.613 37.2463C142.071 38.6022 141.63 40.0023 141.292 41.4461L143.239 41.9025ZM144.465 38.0023C144.979 36.7675 145.601 35.6912 146.325 34.7662L144.75 33.5336C143.903 34.6151 143.194 35.8507 142.618 37.2331L144.465 38.0023ZM146.323 34.7685C147.052 33.8422 147.901 33.1124 148.872 32.5688L147.895 30.8238C146.684 31.5015 145.636 32.4075 144.751 33.5313L146.323 34.7685ZM148.872 32.5688C149.79 32.0549 150.892 31.7803 152.211 31.7803V29.7803C150.608 29.7803 149.158 30.1163 147.895 30.8238L148.872 32.5688ZM152.211 31.7803C153.409 31.7803 154.412 32.0151 155.249 32.452L156.174 30.6788C155.005 30.0688 153.674 29.7803 152.211 29.7803V31.7803ZM155.257 32.456C156.165 32.9198 156.944 33.5354 157.599 34.3068L159.123 33.0115C158.296 32.0382 157.308 31.2579 156.166 30.6748L155.257 32.456ZM157.609 34.3177C158.298 35.1051 158.864 36.0164 159.305 37.0586L161.147 36.2793C160.628 35.0533 159.952 33.958 159.114 33.0007L157.609 34.3177ZM159.312 37.0735C159.79 38.1545 160.175 39.278 160.466 40.4447L162.407 39.9596C162.088 38.6836 161.666 37.4516 161.141 36.2644L159.312 37.0735ZM160.467 40.4488C160.761 41.6027 160.971 42.7663 161.097 43.94L163.085 43.727C162.949 42.458 162.723 41.2007 162.406 39.9555L160.467 40.4488ZM161.097 43.94C161.224 45.1327 161.287 46.2198 161.287 47.2031H163.287C163.287 46.1363 163.219 44.977 163.085 43.727L161.097 43.94ZM158.118 47.0068C158.118 46.5206 158.095 45.9096 158.051 45.1797L156.055 45.3007C156.098 46.0103 156.118 46.577 156.118 47.0068H158.118ZM158.051 45.1797C158.005 44.4226 157.914 43.6258 157.778 42.7901L155.804 43.1103C155.93 43.8885 156.013 44.6184 156.055 45.3007L158.051 45.1797ZM157.782 42.8163C157.667 41.9654 157.495 41.116 157.266 40.2684L155.335 40.7902C155.542 41.5565 155.697 42.3211 155.8 43.0841L157.782 42.8163ZM157.266 40.2684C157.03 39.3977 156.721 38.5954 156.332 37.8668L154.567 38.808C154.877 39.3879 155.134 40.047 155.335 40.7902L157.266 40.2684ZM156.332 37.8668C155.923 37.1006 155.396 36.4585 154.741 35.9671L153.541 37.5671C153.933 37.8608 154.278 38.2656 154.567 38.808L156.332 37.8668ZM154.778 35.9961C154.084 35.4225 153.254 35.1455 152.342 35.1455V37.1455C152.825 37.1455 153.195 37.2829 153.504 37.5381L154.778 35.9961ZM152.342 35.1455C151.267 35.1455 150.302 35.4832 149.499 36.1714L150.801 37.6899C151.219 37.3313 151.715 37.1455 152.342 37.1455V35.1455ZM149.501 36.1694C148.803 36.7646 148.217 37.5221 147.733 38.418L149.492 39.3691C149.88 38.651 150.319 38.1 150.798 37.6919L149.501 36.1694ZM147.723 38.4368C147.271 39.3173 146.908 40.2923 146.631 41.3565L148.566 41.8613C148.812 40.919 149.125 40.0838 149.502 39.3504L147.723 38.4368ZM146.632 41.3512C146.361 42.3679 146.146 43.3961 145.988 44.4355L147.965 44.7364C148.112 43.7693 148.312 42.8127 148.564 41.8665L146.632 41.3512ZM145.985 44.4538C145.851 45.459 145.761 46.4135 145.716 47.3168L147.714 47.4166C147.756 46.5751 147.84 45.6758 147.968 44.7181L145.985 44.4538ZM145.716 47.3168C145.672 48.1972 145.649 48.9244 145.649 49.4932H147.649C147.649 48.9714 147.67 48.281 147.714 47.4166L145.716 47.3168ZM145.649 49.4932C145.649 49.9794 145.673 50.5904 145.717 51.3203L147.713 51.1993C147.67 50.4897 147.649 49.923 147.649 49.4932H145.649ZM145.717 51.3221C145.763 52.0577 145.854 52.8431 145.99 53.6772L147.964 53.357C147.837 52.5772 147.754 51.8577 147.713 51.1974L145.717 51.3221ZM145.99 53.6772C146.126 54.5188 146.308 55.3595 146.535 56.1989L148.465 55.6771C148.256 54.9026 148.089 54.1293 147.964 53.357L145.99 53.6772ZM146.544 56.2302C146.8 57.0706 147.119 57.8508 147.501 58.5678L149.266 57.6266C148.95 57.0349 148.679 56.3757 148.456 55.6458L146.544 56.2302ZM147.501 58.5678C147.903 59.3213 148.407 59.9628 149.022 60.4712L150.296 58.9292C149.908 58.6088 149.562 58.1817 149.266 57.6266L147.501 58.5678ZM149.043 60.4877C149.732 61.0268 150.541 61.2891 151.426 61.2891V59.2891C150.958 59.2891 150.59 59.1588 150.276 58.9127L149.043 60.4877ZM151.426 61.2891C152.474 61.2891 153.418 60.9651 154.201 60.2979L152.904 58.7754C152.509 59.1114 152.035 59.2891 151.426 59.2891V61.2891ZM154.187 60.3093C154.912 59.7135 155.505 58.9614 155.974 58.0732L154.206 57.1397C153.846 57.8218 153.414 58.3565 152.918 58.7639L154.187 60.3093ZM155.97 58.082C156.447 57.1991 156.823 56.2307 157.103 55.1815L155.171 54.6662C154.927 55.5798 154.605 56.3999 154.21 57.1309L155.97 58.082ZM157.103 55.1815C157.375 54.1599 157.58 53.1365 157.717 52.1117L155.734 51.8473C155.609 52.7854 155.422 53.7249 155.171 54.6662L157.103 55.1815ZM157.714 52.1299C157.871 51.0986 157.973 50.1269 158.019 49.216L156.021 49.1161C155.98 49.95 155.885 50.8539 155.737 51.8291L157.714 52.1299ZM158.017 49.2408C158.084 48.3553 158.118 47.6084 158.118 47.0068H156.118C156.118 47.5394 156.087 48.2319 156.023 49.0912L158.017 49.2408ZM190.782 65.0654L190.812 66.065L191.782 66.036V65.0654H190.782ZM182.014 65.3271L181.021 65.447L181.131 66.354L182.044 66.3267L182.014 65.3271ZM181.556 61.5322L182.549 61.4124L182.204 58.5544L180.703 61.0108L181.556 61.5322ZM171.316 64.4766L170.808 65.3375L170.816 65.3424L171.316 64.4766ZM168.83 62.2192L168.019 62.804L168.023 62.8102L168.028 62.8162L168.83 62.2192ZM167.162 59.0132L166.216 59.3397L166.219 59.3473L166.222 59.3549L167.162 59.0132ZM166.18 55.3164L165.195 55.4863L165.196 55.4945L165.198 55.5027L166.18 55.3164ZM165.788 44.8804L166.782 44.9851L166.782 44.9833L165.788 44.8804ZM166.442 41.0527L165.473 40.8063L165.471 40.8141L165.469 40.8219L166.442 41.0527ZM167.685 37.2905L166.766 36.8966L166.763 36.9036L166.76 36.9106L167.685 37.2905ZM169.583 34.019L168.8 33.3965L168.791 33.4076L169.583 34.019ZM172.265 31.729L172.749 32.604L172.756 32.6001L172.763 32.5961L172.265 31.729ZM178.71 31.6636L178.199 32.5229L178.211 32.53L178.223 32.5368L178.71 31.6636ZM180.902 33.7246L180.05 34.2487L181.902 37.2577V33.7246H180.902ZM180.902 23.0596H181.902V22.0596H180.902V23.0596ZM175.013 23.0596H174.013V24.0596H175.013V23.0596ZM175.013 17.4326L175.03 16.4328L174.013 16.4161V17.4326H175.013ZM186.987 17.6289L187.987 17.6413L187.999 16.6454L187.003 16.629L186.987 17.6289ZM186.463 59.7656L185.464 59.7532L185.451 60.7968L186.494 60.7652L186.463 59.7656ZM190.782 59.6348H191.782V58.604L190.752 58.6352L190.782 59.6348ZM180.706 40.9219L181.706 40.9313L181.707 40.7642L181.654 40.6056L180.706 40.9219ZM180.149 39.6133L181.044 39.1661L180.149 39.6133ZM179.266 38.272L178.466 38.872L178.483 38.8945L178.501 38.9161L179.266 38.272ZM178.121 37.1924L177.528 37.9974L177.552 38.0148L177.576 38.0308L178.121 37.1924ZM174.882 37.356L174.277 36.5598L174.269 36.5658L174.262 36.5719L174.882 37.356ZM172.592 41.1836L171.639 40.8825L171.636 40.8905L171.634 40.8986L172.592 41.1836ZM172.036 43.6372L173.023 43.7973L173.024 43.7932L172.036 43.6372ZM171.742 45.96L170.746 45.8721L170.744 45.8858L170.744 45.8995L171.742 45.96ZM171.774 52.0122L170.777 52.087L170.777 52.0889L171.774 52.0122ZM172.102 54.6294L171.116 54.7977L171.118 54.8116L171.121 54.8255L172.102 54.6294ZM173.999 58.7842L173.309 59.5075L173.317 59.5159L173.326 59.5241L173.999 58.7842ZM177.369 58.9805L177.889 59.8347L177.902 59.8266L177.915 59.8181L177.369 58.9805ZM178.743 57.8027L179.484 58.4736L179.492 58.4651L179.5 58.4564L178.743 57.8027ZM179.822 56.2979L178.974 55.7679L178.966 55.7808L178.959 55.794L179.822 56.2979ZM180.575 54.8584L181.503 55.2298L181.573 55.0555L181.575 54.8678L180.575 54.8584ZM190.752 64.0659L181.984 64.3276L182.044 66.3267L190.812 66.065L190.752 64.0659ZM183.007 65.2073L182.549 61.4124L180.563 61.652L181.021 65.447L183.007 65.2073ZM180.703 61.0108C180.072 62.0433 179.237 62.8497 178.186 63.4418L179.168 65.1841C180.517 64.4241 181.601 63.3766 182.409 62.0537L180.703 61.0108ZM178.186 63.4418C177.136 64.0337 176.019 64.3271 174.817 64.3271V66.3271C176.363 66.3271 177.819 65.9445 179.168 65.1841L178.186 63.4418ZM174.817 64.3271C173.606 64.3271 172.619 64.0743 171.817 63.6107L170.816 65.3424C171.977 66.0129 173.323 66.3271 174.817 66.3271V64.3271ZM171.825 63.6156C170.986 63.1195 170.255 62.4587 169.632 61.6222L168.028 62.8162C168.801 63.8554 169.728 64.6996 170.808 65.3375L171.825 63.6156ZM169.641 61.6344C169.024 60.7786 168.509 59.7933 168.101 58.6714L166.222 59.3549C166.686 60.6321 167.284 61.7842 168.019 62.804L169.641 61.6344ZM168.107 58.6867C167.709 57.5335 167.394 56.3482 167.163 55.1301L165.198 55.5027C165.447 56.8146 165.786 58.0937 166.216 59.3397L168.107 58.6867ZM167.166 55.1465C166.953 53.9126 166.804 52.7024 166.72 51.5157L164.725 51.6582C164.814 52.9141 164.971 54.1902 165.195 55.4863L167.166 55.1465ZM166.72 51.5157C166.634 50.3131 166.591 49.225 166.591 48.25H164.591C164.591 49.2815 164.636 50.418 164.725 51.6582L166.72 51.5157ZM166.591 48.25C166.591 47.289 166.654 46.2015 166.782 44.9851L164.793 44.7757C164.659 46.0456 164.591 47.2045 164.591 48.25H166.591ZM166.782 44.9833C166.909 43.7631 167.119 42.5299 167.415 41.2836L165.469 40.8219C165.154 42.1491 164.928 43.4677 164.793 44.7775L166.782 44.9833ZM167.411 41.2991C167.727 40.0576 168.126 38.8481 168.61 37.6704L166.76 36.9106C166.241 38.1756 165.811 39.4743 165.473 40.8063L167.411 41.2991ZM168.604 37.6844C169.098 36.5334 169.689 35.5173 170.374 34.6305L168.791 33.4076C167.993 34.4401 167.32 35.605 166.766 36.8966L168.604 37.6844ZM170.365 34.6416C171.05 33.78 171.845 33.1044 172.749 32.604L171.781 30.854C170.636 31.4877 169.641 32.3388 168.8 33.3965L170.365 34.6416ZM172.763 32.5961C173.619 32.1048 174.62 31.8457 175.798 31.8457V29.8457C174.316 29.8457 172.962 30.1755 171.767 30.8619L172.763 32.5961ZM175.798 31.8457C176.636 31.8457 177.431 32.0659 178.199 32.5229L179.222 30.8043C178.157 30.1708 177.011 29.8457 175.798 29.8457V31.8457ZM178.223 32.5368C179.023 32.9834 179.623 33.5546 180.05 34.2487L181.754 33.2005C181.134 32.1934 180.273 31.3907 179.197 30.7904L178.223 32.5368ZM181.902 33.7246V23.0596H179.902V33.7246H181.902ZM180.902 22.0596H175.013V24.0596H180.902V22.0596ZM176.013 23.0596V17.4326H174.013V23.0596H176.013ZM174.997 18.4325L186.97 18.6288L187.003 16.629L175.03 16.4328L174.997 18.4325ZM185.987 17.6165L185.464 59.7532L187.463 59.778L187.987 17.6413L185.987 17.6165ZM186.494 60.7652L190.812 60.6343L190.752 58.6352L186.433 58.7661L186.494 60.7652ZM189.782 59.6348V65.0654H191.782V59.6348H189.782ZM181.654 40.6056C181.505 40.1573 181.299 39.6765 181.044 39.1661L179.255 40.0605C179.48 40.5097 179.645 40.9013 179.757 41.2381L181.654 40.6056ZM181.044 39.1661C180.768 38.615 180.43 38.1019 180.031 37.6278L178.501 38.9161C178.8 39.2708 179.051 39.6519 179.255 40.0605L181.044 39.1661ZM180.066 37.672C179.672 37.1465 179.205 36.7044 178.666 36.3539L177.576 38.0308C177.909 38.2474 178.206 38.525 178.466 38.872L180.066 37.672ZM178.714 36.3873C178.141 35.9651 177.489 35.7344 176.78 35.7344V37.7344C177.03 37.7344 177.272 37.809 177.528 37.9974L178.714 36.3873ZM176.78 35.7344C175.853 35.7344 175.006 36.0061 174.277 36.5598L175.487 38.1521C175.849 37.877 176.267 37.7344 176.78 37.7344V35.7344ZM174.262 36.5719C173.625 37.0758 173.097 37.7136 172.671 38.466L174.411 39.452C174.726 38.8957 175.093 38.4649 175.503 38.14L174.262 36.5719ZM172.671 38.466C172.261 39.1897 171.918 39.997 171.639 40.8825L173.546 41.4847C173.79 40.7126 174.08 40.0369 174.411 39.452L172.671 38.466ZM171.634 40.8986C171.381 41.7478 171.186 42.6087 171.048 43.4812L173.024 43.7932C173.148 43.0081 173.324 42.2334 173.551 41.4686L171.634 40.8986ZM171.049 43.4771C170.915 44.3057 170.813 45.1042 170.746 45.8721L172.738 46.0479C172.801 45.3327 172.896 44.5826 173.023 43.7973L171.049 43.4771ZM170.744 45.8995C170.699 46.6315 170.676 47.2636 170.676 47.792H172.676C172.676 47.3171 172.697 46.7279 172.74 46.0205L170.744 45.8995ZM170.676 47.792C170.676 47.7929 170.676 47.7938 170.676 47.7947C170.676 47.7956 170.676 47.7965 170.676 47.7974C170.676 47.7983 170.676 47.7992 170.676 47.8001C170.676 47.801 170.676 47.8019 170.676 47.8028C170.676 47.8037 170.676 47.8046 170.676 47.8055C170.676 47.8064 170.676 47.8073 170.676 47.8082C170.676 47.8091 170.676 47.81 170.676 47.8109C170.676 47.8118 170.676 47.8127 170.676 47.8136C170.676 47.8145 170.676 47.8154 170.676 47.8163C170.676 47.8172 170.676 47.8181 170.676 47.819C170.676 47.8199 170.676 47.8208 170.676 47.8217C170.676 47.8226 170.676 47.8235 170.676 47.8244C170.676 47.8253 170.676 47.8262 170.676 47.8272C170.676 47.8281 170.676 47.829 170.676 47.8299C170.676 47.8308 170.676 47.8317 170.676 47.8326C170.676 47.8335 170.676 47.8344 170.676 47.8353C170.676 47.8363 170.676 47.8372 170.676 47.8381C170.676 47.839 170.676 47.8399 170.676 47.8408C170.676 47.8417 170.676 47.8427 170.676 47.8436C170.676 47.8445 170.676 47.8454 170.676 47.8463C170.676 47.8472 170.676 47.8481 170.676 47.8491C170.676 47.85 170.676 47.8509 170.676 47.8518C170.676 47.8527 170.676 47.8537 170.676 47.8546C170.676 47.8555 170.676 47.8564 170.676 47.8573C170.676 47.8583 170.676 47.8592 170.676 47.8601C170.676 47.861 170.676 47.8619 170.676 47.8629C170.676 47.8638 170.676 47.8647 170.676 47.8656C170.676 47.8666 170.676 47.8675 170.676 47.8684C170.676 47.8693 170.676 47.8703 170.676 47.8712C170.676 47.8721 170.676 47.873 170.676 47.874C170.676 47.8749 170.676 47.8758 170.676 47.8767C170.676 47.8777 170.676 47.8786 170.676 47.8795C170.676 47.8805 170.676 47.8814 170.676 47.8823C170.676 47.8832 170.676 47.8842 170.676 47.8851C170.676 47.886 170.676 47.887 170.676 47.8879C170.676 47.8888 170.676 47.8898 170.676 47.8907C170.676 47.8916 170.676 47.8926 170.676 47.8935C170.676 47.8944 170.676 47.8954 170.676 47.8963C170.676 47.8972 170.676 47.8982 170.676 47.8991C170.676 47.9001 170.676 47.901 170.676 47.9019C170.676 47.9029 170.676 47.9038 170.676 47.9047C170.676 47.9057 170.676 47.9066 170.676 47.9076C170.676 47.9085 170.676 47.9094 170.676 47.9104C170.676 47.9113 170.676 47.9123 170.676 47.9132C170.676 47.9142 170.676 47.9151 170.676 47.916C170.676 47.917 170.676 47.9179 170.676 47.9189C170.676 47.9198 170.676 47.9208 170.676 47.9217C170.676 47.9227 170.676 47.9236 170.676 47.9245C170.676 47.9255 170.676 47.9264 170.676 47.9274C170.676 47.9283 170.676 47.9293 170.676 47.9302C170.676 47.9312 170.676 47.9321 170.676 47.9331C170.676 47.934 170.676 47.935 170.676 47.9359C170.676 47.9369 170.676 47.9378 170.676 47.9388C170.676 47.9397 170.676 47.9407 170.676 47.9416C170.676 47.9426 170.676 47.9435 170.676 47.9445C170.676 47.9455 170.676 47.9464 170.676 47.9474C170.676 47.9483 170.676 47.9493 170.676 47.9502C170.676 47.9512 170.676 47.9521 170.676 47.9531C170.676 47.9541 170.676 47.955 170.676 47.956C170.676 47.9569 170.676 47.9579 170.676 47.9589C170.676 47.9598 170.676 47.9608 170.676 47.9617C170.676 47.9627 170.676 47.9637 170.676 47.9646C170.676 47.9656 170.676 47.9665 170.676 47.9675C170.676 47.9685 170.676 47.9694 170.676 47.9704C170.676 47.9714 170.676 47.9723 170.676 47.9733C170.676 47.9742 170.676 47.9752 170.676 47.9762C170.676 47.9771 170.676 47.9781 170.676 47.9791C170.676 47.98 170.676 47.981 170.676 47.982C170.676 47.983 170.676 47.9839 170.676 47.9849C170.676 47.9859 170.676 47.9868 170.676 47.9878C170.676 47.9888 170.676 47.9897 170.676 47.9907C170.676 47.9917 170.676 47.9927 170.676 47.9936C170.676 47.9946 170.676 47.9956 170.676 47.9965C170.676 47.9975 170.676 47.9985 170.676 47.9995C170.676 48.0004 170.676 48.0014 170.676 48.0024C170.676 48.0034 170.676 48.0043 170.676 48.0053C170.676 48.0063 170.676 48.0073 170.676 48.0083C170.676 48.0092 170.676 48.0102 170.676 48.0112C170.676 48.0122 170.676 48.0131 170.676 48.0141C170.676 48.0151 170.676 48.0161 170.676 48.0171C170.676 48.018 170.676 48.019 170.676 48.02C170.676 48.021 170.676 48.022 170.676 48.023C170.676 48.0239 170.676 48.0249 170.676 48.0259C170.676 48.0269 170.676 48.0279 170.676 48.0289C170.676 48.0299 170.676 48.0308 170.676 48.0318C170.676 48.0328 170.676 48.0338 170.676 48.0348C170.676 48.0358 170.676 48.0368 170.676 48.0377C170.676 48.0387 170.676 48.0397 170.676 48.0407C170.676 48.0417 170.676 48.0427 170.676 48.0437C170.676 48.0447 170.676 48.0457 170.676 48.0467C170.676 48.0477 170.676 48.0486 170.676 48.0496C170.676 48.0506 170.676 48.0516 170.676 48.0526C170.676 48.0536 170.676 48.0546 170.676 48.0556C170.676 48.0566 170.676 48.0576 170.676 48.0586C170.676 48.0596 170.676 48.0606 170.676 48.0616C170.676 48.0626 170.676 48.0636 170.676 48.0646C170.676 48.0656 170.676 48.0666 170.676 48.0676C170.676 48.0686 170.676 48.0696 170.676 48.0706C170.676 48.0716 170.676 48.0726 170.676 48.0736C170.676 48.0746 170.676 48.0756 170.676 48.0766C170.676 48.0776 170.676 48.0786 170.676 48.0796C170.676 48.0806 170.676 48.0816 170.676 48.0826C170.676 48.0836 170.676 48.0846 170.676 48.0856C170.676 48.0866 170.676 48.0876 170.676 48.0886C170.676 48.0896 170.676 48.0907 170.676 48.0917C170.676 48.0927 170.676 48.0937 170.676 48.0947C170.676 48.0957 170.676 48.0967 170.676 48.0977C170.676 48.0987 170.676 48.0997 170.676 48.1007C170.676 48.1018 170.676 48.1028 170.676 48.1038C170.676 48.1048 170.676 48.1058 170.676 48.1068C170.676 48.1078 170.676 48.1089 170.676 48.1099C170.676 48.1109 170.676 48.1119 170.676 48.1129C170.676 48.1139 170.676 48.1149 170.676 48.116C170.676 48.117 170.676 48.118 170.676 48.119C170.676 48.12 170.676 48.121 170.676 48.1221C170.676 48.1231 170.676 48.1241 170.676 48.1251C170.676 48.1261 170.676 48.1272 170.676 48.1282C170.676 48.1292 170.676 48.1302 170.676 48.1313C170.676 48.1323 170.676 48.1333 170.676 48.1343C170.676 48.1353 170.676 48.1364 170.676 48.1374C170.676 48.1384 170.676 48.1394 170.676 48.1405C170.676 48.1415 170.676 48.1425 170.676 48.1435C170.676 48.1446 170.676 48.1456 170.676 48.1466C170.676 48.1477 170.676 48.1487 170.676 48.1497C170.676 48.1507 170.676 48.1518 170.676 48.1528C170.676 48.1538 170.676 48.1549 170.676 48.1559C170.676 48.1569 170.676 48.1579 170.676 48.159C170.676 48.16 170.676 48.161 170.676 48.1621C170.676 48.1631 170.676 48.1641 170.676 48.1652C170.676 48.1662 170.676 48.1672 170.676 48.1683C170.676 48.1693 170.676 48.1704 170.676 48.1714C170.676 48.1724 170.676 48.1735 170.676 48.1745C170.676 48.1755 170.676 48.1766 170.676 48.1776C170.676 48.1787 170.676 48.1797 170.676 48.1807C170.676 48.1818 170.676 48.1828 170.676 48.1839C170.676 48.1849 170.676 48.1859 170.676 48.187C170.676 48.188 170.676 48.1891 170.676 48.1901C170.676 48.1911 170.676 48.1922 170.676 48.1932C170.676 48.1943 170.676 48.1953 170.676 48.1964C170.676 48.1974 170.676 48.1985 170.676 48.1995C170.676 48.2005 170.676 48.2016 170.676 48.2026C170.676 48.2037 170.676 48.2047 170.676 48.2058C170.676 48.2068 170.676 48.2079 170.676 48.2089C170.676 48.21 170.676 48.211 170.676 48.2121C170.676 48.2131 170.676 48.2142 170.676 48.2152C170.676 48.2163 170.676 48.2173 170.676 48.2184C170.676 48.2194 170.676 48.2205 170.676 48.2215C170.676 48.2226 170.676 48.2237 170.676 48.2247C170.676 48.2258 170.676 48.2268 170.676 48.2279C170.676 48.2289 170.676 48.23 170.676 48.231C170.676 48.2321 170.676 48.2332 170.676 48.2342C170.676 48.2353 170.676 48.2363 170.676 48.2374C170.676 48.2384 170.676 48.2395 170.676 48.2406C170.676 48.2416 170.676 48.2427 170.676 48.2437C170.676 48.2448 170.676 48.2459 170.676 48.2469C170.676 48.248 170.676 48.2491 170.676 48.2501C170.676 48.2512 170.676 48.2522 170.676 48.2533C170.676 48.2544 170.676 48.2554 170.676 48.2565C170.676 48.2576 170.676 48.2586 170.676 48.2597C170.676 48.2608 170.676 48.2618 170.676 48.2629C170.676 48.264 170.676 48.265 170.676 48.2661C170.676 48.2672 170.676 48.2682 170.676 48.2693C170.676 48.2704 170.676 48.2715 170.676 48.2725C170.676 48.2736 170.676 48.2747 170.676 48.2757C170.676 48.2768 170.676 48.2779 170.676 48.279C170.676 48.28 170.676 48.2811 170.676 48.2822C170.676 48.2833 170.676 48.2843 170.676 48.2854C170.676 48.2865 170.676 48.2876 170.676 48.2886C170.676 48.2897 170.676 48.2908 170.676 48.2919C170.676 48.2929 170.676 48.294 170.676 48.2951C170.676 48.2962 170.676 48.2973 170.676 48.2983C170.676 48.2994 170.676 48.3005 170.676 48.3016C170.676 48.3027 170.676 48.3037 170.676 48.3048C170.676 48.3059 170.676 48.307 170.676 48.3081C170.676 48.3091 170.676 48.3102 170.676 48.3113C170.676 48.3124 170.676 48.3135 170.676 48.3146C170.676 48.3157 170.676 48.3167 170.676 48.3178C170.676 48.3189 170.676 48.32 170.676 48.3211C170.676 48.3222 170.676 48.3233 170.676 48.3243C170.676 48.3254 170.676 48.3265 170.676 48.3276C170.676 48.3287 170.676 48.3298 170.676 48.3309C170.676 48.332 170.676 48.3331 170.676 48.3342C170.676 48.3352 170.676 48.3363 170.676 48.3374C170.676 48.3385 170.676 48.3396 170.676 48.3407C170.676 48.3418 170.676 48.3429 170.676 48.344C170.676 48.3451 170.676 48.3462 170.676 48.3473C170.676 48.3484 170.676 48.3495 170.676 48.3506C170.676 48.3517 170.676 48.3528 170.676 48.3539C170.676 48.355 170.676 48.3561 170.676 48.3572C170.676 48.3583 170.676 48.3594 170.676 48.3605C170.676 48.3616 170.676 48.3627 170.676 48.3638C170.676 48.3649 170.676 48.366 170.676 48.3671C170.676 48.3682 170.676 48.3693 170.676 48.3704C170.676 48.3715 170.676 48.3726 170.676 48.3737C170.676 48.3748 170.676 48.3759 170.676 48.377C170.676 48.3781 170.676 48.3792 170.676 48.3803C170.676 48.3814 170.676 48.3825 170.676 48.3836C170.676 48.3847 170.676 48.3858 170.676 48.387C170.676 48.3881 170.676 48.3892 170.676 48.3903C170.676 48.3914 170.676 48.3925 170.676 48.3936C170.676 48.3947 170.676 48.3958 170.676 48.3969C170.676 48.3981 170.676 48.3992 170.676 48.4003C170.676 48.4014 170.676 48.4025 170.676 48.4036C170.676 48.4047 170.676 48.4059 170.676 48.407C170.676 48.4081 170.676 48.4092 170.676 48.4103C170.676 48.4114 170.676 48.4126 170.676 48.4137C170.676 48.4148 170.676 48.4159 170.676 48.417C170.676 48.4181 170.676 48.4193 170.676 48.4204C170.676 48.4215 170.676 48.4226 170.676 48.4237C170.676 48.4249 170.676 48.426 170.676 48.4271C170.676 48.4282 170.676 48.4293 170.676 48.4305C170.676 48.4316 170.676 48.4327 170.676 48.4338C170.676 48.435 170.676 48.4361 170.676 48.4372C170.676 48.4383 170.676 48.4395 170.676 48.4406C170.676 48.4417 170.676 48.4428 170.676 48.444C170.676 48.4451 170.676 48.4462 170.676 48.4474C170.676 48.4485 170.676 48.4496 170.676 48.4507C170.676 48.4519 170.676 48.453 170.676 48.4541C170.676 48.4553 170.676 48.4564 170.676 48.4575C170.676 48.4587 170.676 48.4598 170.676 48.4609C170.676 48.462 170.676 48.4632 170.676 48.4643C170.676 48.4654 170.676 48.4666 170.676 48.4677C170.676 48.4689 170.676 48.47 170.676 48.4711C170.676 48.4723 170.676 48.4734 170.676 48.4745C170.676 48.4757 170.676 48.4768 170.676 48.4779C170.676 48.4791 170.676 48.4802 170.676 48.4814C170.676 48.4825 170.676 48.4836 170.676 48.4848C170.676 48.4859 170.676 48.4871 170.676 48.4882C170.676 48.4893 170.676 48.4905 170.676 48.4916C170.676 48.4928 170.676 48.4939 170.676 48.4951C170.676 48.4962 170.676 48.4973 170.676 48.4985C170.676 48.4996 170.676 48.5008 170.676 48.5019C170.676 48.5031 170.676 48.5042 170.676 48.5054C170.676 48.5065 170.676 48.5077 170.676 48.5088C170.676 48.5099 170.676 48.5111 170.676 48.5122C170.676 48.5134 170.676 48.5145 170.676 48.5157C170.676 48.5168 170.676 48.518 170.676 48.5191C170.676 48.5203 170.676 48.5214 170.676 48.5226C170.676 48.5237 170.676 48.5249 170.676 48.5261C170.676 48.5272 170.676 48.5284 170.676 48.5295C170.676 48.5307 170.676 48.5318 170.676 48.533C170.676 48.5341 170.676 48.5353 170.676 48.5364C170.676 48.5376 170.676 48.5388 170.676 48.5399C170.676 48.5411 170.676 48.5422 170.676 48.5434C170.676 48.5445 170.676 48.5457 170.676 48.5469C170.676 48.548 170.676 48.5492 170.676 48.5503C170.676 48.5515 170.676 48.5527 170.676 48.5538C170.676 48.555 170.676 48.5562 170.676 48.5573C170.676 48.5585 170.676 48.5596 170.676 48.5608C170.676 48.562 170.676 48.5631 170.676 48.5643C170.676 48.5655 170.676 48.5666 170.676 48.5678C170.676 48.569 170.676 48.5701 170.676 48.5713C170.676 48.5725 170.676 48.5736 170.676 48.5748C170.676 48.576 170.676 48.5771 170.676 48.5783C170.676 48.5795 170.676 48.5806 170.676 48.5818C170.676 48.583 170.676 48.5842 170.676 48.5853C170.676 48.5865 170.676 48.5877 170.676 48.5888C170.676 48.59 170.676 48.5912 170.676 48.5924C170.676 48.5935 170.676 48.5947 170.676 48.5959C170.676 48.5971 170.676 48.5982 170.676 48.5994C170.676 48.6006 170.676 48.6018 170.676 48.6029C170.676 48.6041 170.676 48.6053 170.676 48.6065C170.676 48.6076 170.676 48.6088 170.676 48.61C170.676 48.6112 170.676 48.6124 170.676 48.6135C170.676 48.6147 170.676 48.6159 170.676 48.6171C170.676 48.6183 170.676 48.6194 170.676 48.6206C170.676 48.6218 170.676 48.623 170.676 48.6242C170.676 48.6254 170.676 48.6265 170.676 48.6277C170.676 48.6289 170.676 48.6301 170.676 48.6313C170.676 48.6325 170.676 48.6337 170.676 48.6348C170.676 48.636 170.676 48.6372 170.676 48.6384C170.676 48.6396 170.676 48.6408 170.676 48.642C170.676 48.6432 170.676 48.6444 170.676 48.6455C170.676 48.6467 170.676 48.6479 170.676 48.6491C170.676 48.6503 170.676 48.6515 170.676 48.6527C170.676 48.6539 170.676 48.6551 170.676 48.6563C170.676 48.6575 170.676 48.6586 170.676 48.6598C170.676 48.661 170.676 48.6622 170.676 48.6634C170.676 48.6646 170.676 48.6658 170.676 48.667C170.676 48.6682 170.676 48.6694 170.676 48.6706C170.676 48.6718 170.676 48.673 170.676 48.6742C170.676 48.6754 170.676 48.6766 170.676 48.6778C170.676 48.679 170.676 48.6802 170.676 48.6814C170.676 48.6826 170.676 48.6838 170.676 48.685C170.676 48.6862 170.676 48.6874 170.676 48.6886C170.676 48.6898 170.676 48.691 170.676 48.6922C170.676 48.6934 170.676 48.6946 170.676 48.6958C170.676 48.697 170.676 48.6982 170.676 48.6994C170.676 48.7007 170.676 48.7019 170.676 48.7031C170.676 48.7043 170.676 48.7055 170.676 48.7067C170.676 48.7079 170.676 48.7091 170.676 48.7103C170.676 48.7115 170.676 48.7127 170.676 48.7139C170.676 48.7152 170.676 48.7164 170.676 48.7176C170.676 48.7188 170.676 48.72 170.676 48.7212C170.676 48.7224 170.676 48.7236 170.676 48.7249C170.676 48.7261 170.676 48.7273 170.676 48.7285C170.676 48.7297 170.676 48.7309 170.676 48.7321C170.676 48.7334 170.676 48.7346 170.676 48.7358C170.676 48.737 170.676 48.7382 170.676 48.7394C170.676 48.7407 170.676 48.7419 170.676 48.7431C170.676 48.7443 170.676 48.7455 170.676 48.7468C170.676 48.748 170.676 48.7492 170.676 48.7504C170.676 48.7516 170.676 48.7529 170.676 48.7541C170.676 48.7553 170.676 48.7565 170.676 48.7578C170.676 48.759 170.676 48.7602 170.676 48.7614C170.676 48.7626 170.676 48.7639 170.676 48.7651C170.676 48.7663 170.676 48.7675 170.676 48.7688C170.676 48.77 170.676 48.7712 170.676 48.7725C170.676 48.7737 170.676 48.7749 170.676 48.7761C170.676 48.7774 170.676 48.7786 170.676 48.7798C170.676 48.7811 170.676 48.7823 170.676 48.7835C170.676 48.7848 170.676 48.786 170.676 48.7872C170.676 48.7884 170.676 48.7897 170.676 48.7909C170.676 48.7921 170.676 48.7934 170.676 48.7946C170.676 48.7958 170.676 48.7971 170.676 48.7983C170.676 48.7996 170.676 48.8008 170.676 48.802C170.676 48.8033 170.676 48.8045 170.676 48.8057C170.676 48.807 170.676 48.8082 170.676 48.8095C170.676 48.8107 170.676 48.8119 170.676 48.8132C170.676 48.8144 170.676 48.8156 170.676 48.8169C170.676 48.8181 170.676 48.8194 170.676 48.8206C170.676 48.8219 170.676 48.8231 170.676 48.8243C170.676 48.8256 170.676 48.8268 170.676 48.8281C170.676 48.8293 170.676 48.8306 170.676 48.8318C170.676 48.833 170.676 48.8343 170.676 48.8355C170.676 48.8368 170.676 48.838 170.676 48.8393C170.676 48.8405 170.676 48.8418 170.676 48.843C170.676 48.8443 170.676 48.8455 170.676 48.8468C170.676 48.848 170.676 48.8493 170.676 48.8505C170.676 48.8518 170.676 48.853 170.676 48.8543C170.676 48.8555 170.676 48.8568 170.676 48.858C170.676 48.8593 170.676 48.8605 170.676 48.8618C170.676 48.863 170.676 48.8643 170.676 48.8655C170.676 48.8668 170.676 48.8681 170.676 48.8693C170.676 48.8706 170.676 48.8718 170.676 48.8731C170.676 48.8743 170.676 48.8756 170.676 48.8769C170.676 48.8781 170.676 48.8794 170.676 48.8806C170.676 48.8819 170.676 48.8831 170.676 48.8844C170.676 48.8857 170.676 48.8869 170.676 48.8882C170.676 48.8895 170.676 48.8907 170.676 48.892C170.676 48.8932 170.676 48.8945 170.676 48.8958C170.676 48.897 170.676 48.8983 170.676 48.8996C170.676 48.9008 170.676 48.9021 170.676 48.9034C170.676 48.9046 170.676 48.9059 170.676 48.9071C170.676 48.9084 170.676 48.9097 170.676 48.9109C170.676 48.9122 170.676 48.9135 170.676 48.9148C170.676 48.916 170.676 48.9173 170.676 48.9186C170.676 48.9198 170.676 48.9211 170.676 48.9224C170.676 48.9236 170.676 48.9249 170.676 48.9262C170.676 48.9275 170.676 48.9287 170.676 48.93C170.676 48.9313 170.676 48.9326 170.676 48.9338C170.676 48.9351 170.676 48.9364 170.676 48.9377C170.676 48.9389 170.676 48.9402 170.676 48.9415C170.676 48.9428 170.676 48.944 170.676 48.9453C170.676 48.9466 170.676 48.9479 170.676 48.9491C170.676 48.9504 170.676 48.9517 170.676 48.953C170.676 48.9543 170.676 48.9555 170.676 48.9568C170.676 48.9581 170.676 48.9594 170.676 48.9607C170.676 48.9619 170.676 48.9632 170.676 48.9645C170.676 48.9658 170.676 48.9671 170.676 48.9684C170.676 48.9696 170.676 48.9709 170.676 48.9722C170.676 48.9735 170.676 48.9748 170.676 48.9761C170.676 48.9774 170.676 48.9786 170.676 48.9799C170.676 48.9812 170.676 48.9825 170.676 48.9838C170.676 48.9851 170.676 48.9864 170.676 48.9877C170.676 48.9889 170.676 48.9902 170.676 48.9915C170.676 48.9928 170.676 48.9941 170.676 48.9954C170.676 48.9967 170.676 48.998 170.676 48.9993C170.676 49.0006 170.676 49.0019 170.676 49.0032C170.676 49.0045 170.676 49.0057 170.676 49.007C170.676 49.0083 170.676 49.0096 170.676 49.0109C170.676 49.0122 170.676 49.0135 170.676 49.0148C170.676 49.0161 170.676 49.0174 170.676 49.0187C170.676 49.02 170.676 49.0213 170.676 49.0226C170.676 49.0239 170.676 49.0252 170.676 49.0265C170.676 49.0278 170.676 49.0291 170.676 49.0304C170.676 49.0317 170.676 49.033 170.676 49.0343C170.676 49.0356 170.676 49.0369 170.676 49.0382C170.676 49.0395 170.676 49.0408 170.676 49.0421C170.676 49.0434 170.676 49.0447 170.676 49.046C170.676 49.0473 170.676 49.0487 170.676 49.05C170.676 49.0513 170.676 49.0526 170.676 49.0539C170.676 49.0552 170.676 49.0565 170.676 49.0578C170.676 49.0591 170.676 49.0604 170.676 49.0617C170.676 49.063 170.676 49.0644 170.676 49.0657C170.676 49.067 170.676 49.0683 170.676 49.0696C170.676 49.0709 170.676 49.0722 170.676 49.0735C170.676 49.0749 170.676 49.0762 170.676 49.0775C170.676 49.0788 170.676 49.0801 170.676 49.0814C170.676 49.0827 170.676 49.0841 170.676 49.0854C170.676 49.0867 170.676 49.088 170.676 49.0893C170.676 49.0906 170.676 49.092 170.676 49.0933C170.676 49.0946 170.676 49.0959 170.676 49.0972C170.676 49.0986 170.676 49.0999 170.676 49.1012C170.676 49.1025 170.676 49.1038 170.676 49.1052C170.676 49.1065 170.676 49.1078 170.676 49.1091C170.676 49.1104 170.676 49.1118 170.676 49.1131C170.676 49.1144 170.676 49.1157 170.676 49.1171C170.676 49.1184 170.676 49.1197 170.676 49.121C170.676 49.1224 170.676 49.1237 170.676 49.125C170.676 49.1264 170.676 49.1277 170.676 49.129C170.676 49.1303 170.676 49.1317 170.676 49.133C170.676 49.1343 170.676 49.1357 170.676 49.137C170.676 49.1383 170.676 49.1396 170.676 49.141C170.676 49.1423 170.676 49.1436 170.676 49.145C170.676 49.1463 170.676 49.1476 170.676 49.149C170.676 49.1503 170.676 49.1516 170.676 49.153C170.676 49.1543 170.676 49.1556 170.676 49.157C170.676 49.1583 170.676 49.1597 170.676 49.161C170.676 49.1623 170.676 49.1637 170.676 49.165C170.676 49.1663 170.676 49.1677 170.676 49.169C170.676 49.1704 170.676 49.1717 170.676 49.173C170.676 49.1744 170.676 49.1757 170.676 49.1771C170.676 49.1784 170.676 49.1797 170.676 49.1811C170.676 49.1824 170.676 49.1838 170.676 49.1851C170.676 49.1865 170.676 49.1878 170.676 49.1891C170.676 49.1905 170.676 49.1918 170.676 49.1932C170.676 49.1945 170.676 49.1959 170.676 49.1972C170.676 49.1986 170.676 49.1999 170.676 49.2013C170.676 49.2026 170.676 49.204 170.676 49.2053C170.676 49.2067 170.676 49.208 170.676 49.2094C170.676 49.2107 170.676 49.2121 170.676 49.2134C170.676 49.2148 170.676 49.2161 170.676 49.2175C170.676 49.2188 170.676 49.2202 170.676 49.2215C170.676 49.2229 170.676 49.2242 170.676 49.2256C170.676 49.2269 170.676 49.2283 170.676 49.2296C170.676 49.231 170.676 49.2324 170.676 49.2337C170.676 49.2351 170.676 49.2364 170.676 49.2378C170.676 49.2391 170.676 49.2405 170.676 49.2419C170.676 49.2432 170.676 49.2446 170.676 49.2459C170.676 49.2473 170.676 49.2487 170.676 49.25C170.676 49.2514 170.676 49.2527 170.676 49.2541C170.676 49.2555 170.676 49.2568 170.676 49.2582C170.676 49.2595 170.676 49.2609 170.676 49.2623C170.676 49.2636 170.676 49.265 170.676 49.2664C170.676 49.2677 170.676 49.2691 170.676 49.2705C170.676 49.2718 170.676 49.2732 170.676 49.2746C170.676 49.2759 170.676 49.2773 170.676 49.2787C170.676 49.28 170.676 49.2814 170.676 49.2828C170.676 49.2841 170.676 49.2855 170.676 49.2869C170.676 49.2883 170.676 49.2896 170.676 49.291C170.676 49.2924 170.676 49.2937 170.676 49.2951C170.676 49.2965 170.676 49.2979 170.676 49.2992C170.676 49.3006 170.676 49.302 170.676 49.3034C170.676 49.3047 170.676 49.3061 170.676 49.3075C170.676 49.3089 170.676 49.3102 170.676 49.3116C170.676 49.313 170.676 49.3144 170.676 49.3157C170.676 49.3171 170.676 49.3185 170.676 49.3199C170.676 49.3213 170.676 49.3226 170.676 49.324C170.676 49.3254 170.676 49.3268 170.676 49.3282C170.676 49.3295 170.676 49.3309 170.676 49.3323C170.676 49.3337 170.676 49.3351 170.676 49.3365C170.676 49.3378 170.676 49.3392 170.676 49.3406C170.676 49.342 170.676 49.3434 170.676 49.3448C170.676 49.3461 170.676 49.3475 170.676 49.3489C170.676 49.3503 170.676 49.3517 170.676 49.3531C170.676 49.3545 170.676 49.3559 170.676 49.3572C170.676 49.3586 170.676 49.36 170.676 49.3614C170.676 49.3628 170.676 49.3642 170.676 49.3656C170.676 49.367 170.676 49.3684 170.676 49.3698C170.676 49.3712 170.676 49.3725 170.676 49.3739C170.676 49.3753 170.676 49.3767 170.676 49.3781C170.676 49.3795 170.676 49.3809 170.676 49.3823C170.676 49.3837 170.676 49.3851 170.676 49.3865C170.676 49.3879 170.676 49.3893 170.676 49.3907C170.676 49.3921 170.676 49.3935 170.676 49.3949C170.676 49.3963 170.676 49.3977 170.676 49.3991C170.676 49.4005 170.676 49.4019 170.676 49.4033C170.676 49.4047 170.676 49.4061 170.676 49.4075C170.676 49.4089 170.676 49.4103 170.676 49.4117C170.676 49.4131 170.676 49.4145 170.676 49.4159C170.676 49.4173 170.676 49.4187 170.676 49.4201C170.676 49.4215 170.676 49.4229 170.676 49.4243C170.676 49.4257 170.676 49.4271 170.676 49.4285C170.676 49.43 170.676 49.4314 170.676 49.4328C170.676 49.4342 170.676 49.4356 170.676 49.437C170.676 49.4384 170.676 49.4398 170.676 49.4412C170.676 49.4426 170.676 49.444 170.676 49.4455C170.676 49.4469 170.676 49.4483 170.676 49.4497C170.676 49.4511 170.676 49.4525 170.676 49.4539C170.676 49.4553 170.676 49.4568 170.676 49.4582C170.676 49.4596 170.676 49.461 170.676 49.4624C170.676 49.4638 170.676 49.4653 170.676 49.4667C170.676 49.4681 170.676 49.4695 170.676 49.4709C170.676 49.4723 170.676 49.4738 170.676 49.4752C170.676 49.4766 170.676 49.478 170.676 49.4794C170.676 49.4809 170.676 49.4823 170.676 49.4837C170.676 49.4851 170.676 49.4865 170.676 49.488C170.676 49.4894 170.676 49.4908 170.676 49.4922C170.676 49.4937 170.676 49.4951 170.676 49.4965C170.676 49.4979 170.676 49.4994 170.676 49.5008C170.676 49.5022 170.676 49.5036 170.676 49.5051C170.676 49.5065 170.676 49.5079 170.676 49.5093C170.676 49.5108 170.676 49.5122 170.676 49.5136C170.676 49.5151 170.676 49.5165 170.676 49.5179C170.676 49.5193 170.676 49.5208 170.676 49.5222C170.676 49.5236 170.676 49.5251 170.676 49.5265C170.676 49.5279 170.676 49.5294 170.676 49.5308C170.676 49.5322 170.676 49.5337 170.676 49.5351C170.676 49.5365 170.676 49.538 170.676 49.5394C170.676 49.5408 170.676 49.5423 170.676 49.5437C170.676 49.5451 170.676 49.5466 170.676 49.548C170.676 49.5495 170.676 49.5509 170.676 49.5523C170.676 49.5538 170.676 49.5552 170.676 49.5567C170.676 49.5581 170.676 49.5595 170.676 49.561C170.676 49.5624 170.676 49.5639 170.676 49.5653C170.676 49.5667 170.676 49.5682 170.676 49.5696C170.676 49.5711 170.676 49.5725 170.676 49.574C170.676 49.5754 170.676 49.5768 170.676 49.5783C170.676 49.5797 170.676 49.5812 170.676 49.5826C170.676 49.5841 170.676 49.5855 170.676 49.587C170.676 49.5884 170.676 49.5899 170.676 49.5913H172.676C172.676 49.5899 172.676 49.5884 172.676 49.587C172.676 49.5855 172.676 49.5841 172.676 49.5826C172.676 49.5812 172.676 49.5797 172.676 49.5783C172.676 49.5768 172.676 49.5754 172.676 49.574C172.676 49.5725 172.676 49.5711 172.676 49.5696C172.676 49.5682 172.676 49.5667 172.676 49.5653C172.676 49.5639 172.676 49.5624 172.676 49.561C172.676 49.5595 172.676 49.5581 172.676 49.5567C172.676 49.5552 172.676 49.5538 172.676 49.5523C172.676 49.5509 172.676 49.5495 172.676 49.548C172.676 49.5466 172.676 49.5451 172.676 49.5437C172.676 49.5423 172.676 49.5408 172.676 49.5394C172.676 49.538 172.676 49.5365 172.676 49.5351C172.676 49.5337 172.676 49.5322 172.676 49.5308C172.676 49.5294 172.676 49.5279 172.676 49.5265C172.676 49.5251 172.676 49.5236 172.676 49.5222C172.676 49.5208 172.676 49.5193 172.676 49.5179C172.676 49.5165 172.676 49.5151 172.676 49.5136C172.676 49.5122 172.676 49.5108 172.676 49.5093C172.676 49.5079 172.676 49.5065 172.676 49.5051C172.676 49.5036 172.676 49.5022 172.676 49.5008C172.676 49.4994 172.676 49.4979 172.676 49.4965C172.676 49.4951 172.676 49.4937 172.676 49.4922C172.676 49.4908 172.676 49.4894 172.676 49.488C172.676 49.4865 172.676 49.4851 172.676 49.4837C172.676 49.4823 172.676 49.4809 172.676 49.4794C172.676 49.478 172.676 49.4766 172.676 49.4752C172.676 49.4738 172.676 49.4723 172.676 49.4709C172.676 49.4695 172.676 49.4681 172.676 49.4667C172.676 49.4653 172.676 49.4638 172.676 49.4624C172.676 49.461 172.676 49.4596 172.676 49.4582C172.676 49.4568 172.676 49.4553 172.676 49.4539C172.676 49.4525 172.676 49.4511 172.676 49.4497C172.676 49.4483 172.676 49.4469 172.676 49.4455C172.676 49.444 172.676 49.4426 172.676 49.4412C172.676 49.4398 172.676 49.4384 172.676 49.437C172.676 49.4356 172.676 49.4342 172.676 49.4328C172.676 49.4314 172.676 49.43 172.676 49.4285C172.676 49.4271 172.676 49.4257 172.676 49.4243C172.676 49.4229 172.676 49.4215 172.676 49.4201C172.676 49.4187 172.676 49.4173 172.676 49.4159C172.676 49.4145 172.676 49.4131 172.676 49.4117C172.676 49.4103 172.676 49.4089 172.676 49.4075C172.676 49.4061 172.676 49.4047 172.676 49.4033C172.676 49.4019 172.676 49.4005 172.676 49.3991C172.676 49.3977 172.676 49.3963 172.676 49.3949C172.676 49.3935 172.676 49.3921 172.676 49.3907C172.676 49.3893 172.676 49.3879 172.676 49.3865C172.676 49.3851 172.676 49.3837 172.676 49.3823C172.676 49.3809 172.676 49.3795 172.676 49.3781C172.676 49.3767 172.676 49.3753 172.676 49.3739C172.676 49.3725 172.676 49.3712 172.676 49.3698C172.676 49.3684 172.676 49.367 172.676 49.3656C172.676 49.3642 172.676 49.3628 172.676 49.3614C172.676 49.36 172.676 49.3586 172.676 49.3572C172.676 49.3559 172.676 49.3545 172.676 49.3531C172.676 49.3517 172.676 49.3503 172.676 49.3489C172.676 49.3475 172.676 49.3461 172.676 49.3448C172.676 49.3434 172.676 49.342 172.676 49.3406C172.676 49.3392 172.676 49.3378 172.676 49.3365C172.676 49.3351 172.676 49.3337 172.676 49.3323C172.676 49.3309 172.676 49.3295 172.676 49.3282C172.676 49.3268 172.676 49.3254 172.676 49.324C172.676 49.3226 172.676 49.3213 172.676 49.3199C172.676 49.3185 172.676 49.3171 172.676 49.3157C172.676 49.3144 172.676 49.313 172.676 49.3116C172.676 49.3102 172.676 49.3089 172.676 49.3075C172.676 49.3061 172.676 49.3047 172.676 49.3034C172.676 49.302 172.676 49.3006 172.676 49.2992C172.676 49.2979 172.676 49.2965 172.676 49.2951C172.676 49.2937 172.676 49.2924 172.676 49.291C172.676 49.2896 172.676 49.2883 172.676 49.2869C172.676 49.2855 172.676 49.2841 172.676 49.2828C172.676 49.2814 172.676 49.28 172.676 49.2787C172.676 49.2773 172.676 49.2759 172.676 49.2746C172.676 49.2732 172.676 49.2718 172.676 49.2705C172.676 49.2691 172.676 49.2677 172.676 49.2664C172.676 49.265 172.676 49.2636 172.676 49.2623C172.676 49.2609 172.676 49.2595 172.676 49.2582C172.676 49.2568 172.676 49.2555 172.676 49.2541C172.676 49.2527 172.676 49.2514 172.676 49.25C172.676 49.2487 172.676 49.2473 172.676 49.2459C172.676 49.2446 172.676 49.2432 172.676 49.2419C172.676 49.2405 172.676 49.2391 172.676 49.2378C172.676 49.2364 172.676 49.2351 172.676 49.2337C172.676 49.2324 172.676 49.231 172.676 49.2296C172.676 49.2283 172.676 49.2269 172.676 49.2256C172.676 49.2242 172.676 49.2229 172.676 49.2215C172.676 49.2202 172.676 49.2188 172.676 49.2175C172.676 49.2161 172.676 49.2148 172.676 49.2134C172.676 49.2121 172.676 49.2107 172.676 49.2094C172.676 49.208 172.676 49.2067 172.676 49.2053C172.676 49.204 172.676 49.2026 172.676 49.2013C172.676 49.1999 172.676 49.1986 172.676 49.1972C172.676 49.1959 172.676 49.1945 172.676 49.1932C172.676 49.1918 172.676 49.1905 172.676 49.1891C172.676 49.1878 172.676 49.1865 172.676 49.1851C172.676 49.1838 172.676 49.1824 172.676 49.1811C172.676 49.1797 172.676 49.1784 172.676 49.1771C172.676 49.1757 172.676 49.1744 172.676 49.173C172.676 49.1717 172.676 49.1704 172.676 49.169C172.676 49.1677 172.676 49.1663 172.676 49.165C172.676 49.1637 172.676 49.1623 172.676 49.161C172.676 49.1597 172.676 49.1583 172.676 49.157C172.676 49.1556 172.676 49.1543 172.676 49.153C172.676 49.1516 172.676 49.1503 172.676 49.149C172.676 49.1476 172.676 49.1463 172.676 49.145C172.676 49.1436 172.676 49.1423 172.676 49.141C172.676 49.1396 172.676 49.1383 172.676 49.137C172.676 49.1357 172.676 49.1343 172.676 49.133C172.676 49.1317 172.676 49.1303 172.676 49.129C172.676 49.1277 172.676 49.1264 172.676 49.125C172.676 49.1237 172.676 49.1224 172.676 49.121C172.676 49.1197 172.676 49.1184 172.676 49.1171C172.676 49.1157 172.676 49.1144 172.676 49.1131C172.676 49.1118 172.676 49.1104 172.676 49.1091C172.676 49.1078 172.676 49.1065 172.676 49.1052C172.676 49.1038 172.676 49.1025 172.676 49.1012C172.676 49.0999 172.676 49.0986 172.676 49.0972C172.676 49.0959 172.676 49.0946 172.676 49.0933C172.676 49.092 172.676 49.0906 172.676 49.0893C172.676 49.088 172.676 49.0867 172.676 49.0854C172.676 49.0841 172.676 49.0827 172.676 49.0814C172.676 49.0801 172.676 49.0788 172.676 49.0775C172.676 49.0762 172.676 49.0749 172.676 49.0735C172.676 49.0722 172.676 49.0709 172.676 49.0696C172.676 49.0683 172.676 49.067 172.676 49.0657C172.676 49.0644 172.676 49.063 172.676 49.0617C172.676 49.0604 172.676 49.0591 172.676 49.0578C172.676 49.0565 172.676 49.0552 172.676 49.0539C172.676 49.0526 172.676 49.0513 172.676 49.05C172.676 49.0487 172.676 49.0473 172.676 49.046C172.676 49.0447 172.676 49.0434 172.676 49.0421C172.676 49.0408 172.676 49.0395 172.676 49.0382C172.676 49.0369 172.676 49.0356 172.676 49.0343C172.676 49.033 172.676 49.0317 172.676 49.0304C172.676 49.0291 172.676 49.0278 172.676 49.0265C172.676 49.0252 172.676 49.0239 172.676 49.0226C172.676 49.0213 172.676 49.02 172.676 49.0187C172.676 49.0174 172.676 49.0161 172.676 49.0148C172.676 49.0135 172.676 49.0122 172.676 49.0109C172.676 49.0096 172.676 49.0083 172.676 49.007C172.676 49.0057 172.676 49.0045 172.676 49.0032C172.676 49.0019 172.676 49.0006 172.676 48.9993C172.676 48.998 172.676 48.9967 172.676 48.9954C172.676 48.9941 172.676 48.9928 172.676 48.9915C172.676 48.9902 172.676 48.9889 172.676 48.9877C172.676 48.9864 172.676 48.9851 172.676 48.9838C172.676 48.9825 172.676 48.9812 172.676 48.9799C172.676 48.9786 172.676 48.9774 172.676 48.9761C172.676 48.9748 172.676 48.9735 172.676 48.9722C172.676 48.9709 172.676 48.9696 172.676 48.9684C172.676 48.9671 172.676 48.9658 172.676 48.9645C172.676 48.9632 172.676 48.9619 172.676 48.9607C172.676 48.9594 172.676 48.9581 172.676 48.9568C172.676 48.9555 172.676 48.9543 172.676 48.953C172.676 48.9517 172.676 48.9504 172.676 48.9491C172.676 48.9479 172.676 48.9466 172.676 48.9453C172.676 48.944 172.676 48.9428 172.676 48.9415C172.676 48.9402 172.676 48.9389 172.676 48.9377C172.676 48.9364 172.676 48.9351 172.676 48.9338C172.676 48.9326 172.676 48.9313 172.676 48.93C172.676 48.9287 172.676 48.9275 172.676 48.9262C172.676 48.9249 172.676 48.9236 172.676 48.9224C172.676 48.9211 172.676 48.9198 172.676 48.9186C172.676 48.9173 172.676 48.916 172.676 48.9148C172.676 48.9135 172.676 48.9122 172.676 48.9109C172.676 48.9097 172.676 48.9084 172.676 48.9071C172.676 48.9059 172.676 48.9046 172.676 48.9034C172.676 48.9021 172.676 48.9008 172.676 48.8996C172.676 48.8983 172.676 48.897 172.676 48.8958C172.676 48.8945 172.676 48.8932 172.676 48.892C172.676 48.8907 172.676 48.8895 172.676 48.8882C172.676 48.8869 172.676 48.8857 172.676 48.8844C172.676 48.8831 172.676 48.8819 172.676 48.8806C172.676 48.8794 172.676 48.8781 172.676 48.8769C172.676 48.8756 172.676 48.8743 172.676 48.8731C172.676 48.8718 172.676 48.8706 172.676 48.8693C172.676 48.8681 172.676 48.8668 172.676 48.8655C172.676 48.8643 172.676 48.863 172.676 48.8618C172.676 48.8605 172.676 48.8593 172.676 48.858C172.676 48.8568 172.676 48.8555 172.676 48.8543C172.676 48.853 172.676 48.8518 172.676 48.8505C172.676 48.8493 172.676 48.848 172.676 48.8468C172.676 48.8455 172.676 48.8443 172.676 48.843C172.676 48.8418 172.676 48.8405 172.676 48.8393C172.676 48.838 172.676 48.8368 172.676 48.8355C172.676 48.8343 172.676 48.833 172.676 48.8318C172.676 48.8306 172.676 48.8293 172.676 48.8281C172.676 48.8268 172.676 48.8256 172.676 48.8243C172.676 48.8231 172.676 48.8219 172.676 48.8206C172.676 48.8194 172.676 48.8181 172.676 48.8169C172.676 48.8156 172.676 48.8144 172.676 48.8132C172.676 48.8119 172.676 48.8107 172.676 48.8095C172.676 48.8082 172.676 48.807 172.676 48.8057C172.676 48.8045 172.676 48.8033 172.676 48.802C172.676 48.8008 172.676 48.7996 172.676 48.7983C172.676 48.7971 172.676 48.7958 172.676 48.7946C172.676 48.7934 172.676 48.7921 172.676 48.7909C172.676 48.7897 172.676 48.7884 172.676 48.7872C172.676 48.786 172.676 48.7848 172.676 48.7835C172.676 48.7823 172.676 48.7811 172.676 48.7798C172.676 48.7786 172.676 48.7774 172.676 48.7761C172.676 48.7749 172.676 48.7737 172.676 48.7725C172.676 48.7712 172.676 48.77 172.676 48.7688C172.676 48.7675 172.676 48.7663 172.676 48.7651C172.676 48.7639 172.676 48.7626 172.676 48.7614C172.676 48.7602 172.676 48.759 172.676 48.7578C172.676 48.7565 172.676 48.7553 172.676 48.7541C172.676 48.7529 172.676 48.7516 172.676 48.7504C172.676 48.7492 172.676 48.748 172.676 48.7468C172.676 48.7455 172.676 48.7443 172.676 48.7431C172.676 48.7419 172.676 48.7407 172.676 48.7394C172.676 48.7382 172.676 48.737 172.676 48.7358C172.676 48.7346 172.676 48.7334 172.676 48.7321C172.676 48.7309 172.676 48.7297 172.676 48.7285C172.676 48.7273 172.676 48.7261 172.676 48.7249C172.676 48.7236 172.676 48.7224 172.676 48.7212C172.676 48.72 172.676 48.7188 172.676 48.7176C172.676 48.7164 172.676 48.7152 172.676 48.7139C172.676 48.7127 172.676 48.7115 172.676 48.7103C172.676 48.7091 172.676 48.7079 172.676 48.7067C172.676 48.7055 172.676 48.7043 172.676 48.7031C172.676 48.7019 172.676 48.7007 172.676 48.6994C172.676 48.6982 172.676 48.697 172.676 48.6958C172.676 48.6946 172.676 48.6934 172.676 48.6922C172.676 48.691 172.676 48.6898 172.676 48.6886C172.676 48.6874 172.676 48.6862 172.676 48.685C172.676 48.6838 172.676 48.6826 172.676 48.6814C172.676 48.6802 172.676 48.679 172.676 48.6778C172.676 48.6766 172.676 48.6754 172.676 48.6742C172.676 48.673 172.676 48.6718 172.676 48.6706C172.676 48.6694 172.676 48.6682 172.676 48.667C172.676 48.6658 172.676 48.6646 172.676 48.6634C172.676 48.6622 172.676 48.661 172.676 48.6598C172.676 48.6586 172.676 48.6575 172.676 48.6563C172.676 48.6551 172.676 48.6539 172.676 48.6527C172.676 48.6515 172.676 48.6503 172.676 48.6491C172.676 48.6479 172.676 48.6467 172.676 48.6455C172.676 48.6444 172.676 48.6432 172.676 48.642C172.676 48.6408 172.676 48.6396 172.676 48.6384C172.676 48.6372 172.676 48.636 172.676 48.6348C172.676 48.6337 172.676 48.6325 172.676 48.6313C172.676 48.6301 172.676 48.6289 172.676 48.6277C172.676 48.6265 172.676 48.6254 172.676 48.6242C172.676 48.623 172.676 48.6218 172.676 48.6206C172.676 48.6194 172.676 48.6183 172.676 48.6171C172.676 48.6159 172.676 48.6147 172.676 48.6135C172.676 48.6124 172.676 48.6112 172.676 48.61C172.676 48.6088 172.676 48.6076 172.676 48.6065C172.676 48.6053 172.676 48.6041 172.676 48.6029C172.676 48.6018 172.676 48.6006 172.676 48.5994C172.676 48.5982 172.676 48.5971 172.676 48.5959C172.676 48.5947 172.676 48.5935 172.676 48.5924C172.676 48.5912 172.676 48.59 172.676 48.5888C172.676 48.5877 172.676 48.5865 172.676 48.5853C172.676 48.5842 172.676 48.583 172.676 48.5818C172.676 48.5806 172.676 48.5795 172.676 48.5783C172.676 48.5771 172.676 48.576 172.676 48.5748C172.676 48.5736 172.676 48.5725 172.676 48.5713C172.676 48.5701 172.676 48.569 172.676 48.5678C172.676 48.5666 172.676 48.5655 172.676 48.5643C172.676 48.5631 172.676 48.562 172.676 48.5608C172.676 48.5596 172.676 48.5585 172.676 48.5573C172.676 48.5562 172.676 48.555 172.676 48.5538C172.676 48.5527 172.676 48.5515 172.676 48.5503C172.676 48.5492 172.676 48.548 172.676 48.5469C172.676 48.5457 172.676 48.5445 172.676 48.5434C172.676 48.5422 172.676 48.5411 172.676 48.5399C172.676 48.5388 172.676 48.5376 172.676 48.5364C172.676 48.5353 172.676 48.5341 172.676 48.533C172.676 48.5318 172.676 48.5307 172.676 48.5295C172.676 48.5284 172.676 48.5272 172.676 48.5261C172.676 48.5249 172.676 48.5237 172.676 48.5226C172.676 48.5214 172.676 48.5203 172.676 48.5191C172.676 48.518 172.676 48.5168 172.676 48.5157C172.676 48.5145 172.676 48.5134 172.676 48.5122C172.676 48.5111 172.676 48.5099 172.676 48.5088C172.676 48.5077 172.676 48.5065 172.676 48.5054C172.676 48.5042 172.676 48.5031 172.676 48.5019C172.676 48.5008 172.676 48.4996 172.676 48.4985C172.676 48.4973 172.676 48.4962 172.676 48.4951C172.676 48.4939 172.676 48.4928 172.676 48.4916C172.676 48.4905 172.676 48.4893 172.676 48.4882C172.676 48.4871 172.676 48.4859 172.676 48.4848C172.676 48.4836 172.676 48.4825 172.676 48.4814C172.676 48.4802 172.676 48.4791 172.676 48.4779C172.676 48.4768 172.676 48.4757 172.676 48.4745C172.676 48.4734 172.676 48.4723 172.676 48.4711C172.676 48.47 172.676 48.4689 172.676 48.4677C172.676 48.4666 172.676 48.4654 172.676 48.4643C172.676 48.4632 172.676 48.462 172.676 48.4609C172.676 48.4598 172.676 48.4587 172.676 48.4575C172.676 48.4564 172.676 48.4553 172.676 48.4541C172.676 48.453 172.676 48.4519 172.676 48.4507C172.676 48.4496 172.676 48.4485 172.676 48.4474C172.676 48.4462 172.676 48.4451 172.676 48.444C172.676 48.4428 172.676 48.4417 172.676 48.4406C172.676 48.4395 172.676 48.4383 172.676 48.4372C172.676 48.4361 172.676 48.435 172.676 48.4338C172.676 48.4327 172.676 48.4316 172.676 48.4305C172.676 48.4293 172.676 48.4282 172.676 48.4271C172.676 48.426 172.676 48.4249 172.676 48.4237C172.676 48.4226 172.676 48.4215 172.676 48.4204C172.676 48.4193 172.676 48.4181 172.676 48.417C172.676 48.4159 172.676 48.4148 172.676 48.4137C172.676 48.4126 172.676 48.4114 172.676 48.4103C172.676 48.4092 172.676 48.4081 172.676 48.407C172.676 48.4059 172.676 48.4047 172.676 48.4036C172.676 48.4025 172.676 48.4014 172.676 48.4003C172.676 48.3992 172.676 48.3981 172.676 48.3969C172.676 48.3958 172.676 48.3947 172.676 48.3936C172.676 48.3925 172.676 48.3914 172.676 48.3903C172.676 48.3892 172.676 48.3881 172.676 48.387C172.676 48.3858 172.676 48.3847 172.676 48.3836C172.676 48.3825 172.676 48.3814 172.676 48.3803C172.676 48.3792 172.676 48.3781 172.676 48.377C172.676 48.3759 172.676 48.3748 172.676 48.3737C172.676 48.3726 172.676 48.3715 172.676 48.3704C172.676 48.3693 172.676 48.3682 172.676 48.3671C172.676 48.366 172.676 48.3649 172.676 48.3638C172.676 48.3627 172.676 48.3616 172.676 48.3605C172.676 48.3594 172.676 48.3583 172.676 48.3572C172.676 48.3561 172.676 48.355 172.676 48.3539C172.676 48.3528 172.676 48.3517 172.676 48.3506C172.676 48.3495 172.676 48.3484 172.676 48.3473C172.676 48.3462 172.676 48.3451 172.676 48.344C172.676 48.3429 172.676 48.3418 172.676 48.3407C172.676 48.3396 172.676 48.3385 172.676 48.3374C172.676 48.3363 172.676 48.3352 172.676 48.3342C172.676 48.3331 172.676 48.332 172.676 48.3309C172.676 48.3298 172.676 48.3287 172.676 48.3276C172.676 48.3265 172.676 48.3254 172.676 48.3243C172.676 48.3233 172.676 48.3222 172.676 48.3211C172.676 48.32 172.676 48.3189 172.676 48.3178C172.676 48.3167 172.676 48.3157 172.676 48.3146C172.676 48.3135 172.676 48.3124 172.676 48.3113C172.676 48.3102 172.676 48.3091 172.676 48.3081C172.676 48.307 172.676 48.3059 172.676 48.3048C172.676 48.3037 172.676 48.3027 172.676 48.3016C172.676 48.3005 172.676 48.2994 172.676 48.2983C172.676 48.2973 172.676 48.2962 172.676 48.2951C172.676 48.294 172.676 48.2929 172.676 48.2919C172.676 48.2908 172.676 48.2897 172.676 48.2886C172.676 48.2876 172.676 48.2865 172.676 48.2854C172.676 48.2843 172.676 48.2833 172.676 48.2822C172.676 48.2811 172.676 48.28 172.676 48.279C172.676 48.2779 172.676 48.2768 172.676 48.2757C172.676 48.2747 172.676 48.2736 172.676 48.2725C172.676 48.2715 172.676 48.2704 172.676 48.2693C172.676 48.2682 172.676 48.2672 172.676 48.2661C172.676 48.265 172.676 48.264 172.676 48.2629C172.676 48.2618 172.676 48.2608 172.676 48.2597C172.676 48.2586 172.676 48.2576 172.676 48.2565C172.676 48.2554 172.676 48.2544 172.676 48.2533C172.676 48.2522 172.676 48.2512 172.676 48.2501C172.676 48.2491 172.676 48.248 172.676 48.2469C172.676 48.2459 172.676 48.2448 172.676 48.2437C172.676 48.2427 172.676 48.2416 172.676 48.2406C172.676 48.2395 172.676 48.2384 172.676 48.2374C172.676 48.2363 172.676 48.2353 172.676 48.2342C172.676 48.2332 172.676 48.2321 172.676 48.231C172.676 48.23 172.676 48.2289 172.676 48.2279C172.676 48.2268 172.676 48.2258 172.676 48.2247C172.676 48.2237 172.676 48.2226 172.676 48.2215C172.676 48.2205 172.676 48.2194 172.676 48.2184C172.676 48.2173 172.676 48.2163 172.676 48.2152C172.676 48.2142 172.676 48.2131 172.676 48.2121C172.676 48.211 172.676 48.21 172.676 48.2089C172.676 48.2079 172.676 48.2068 172.676 48.2058C172.676 48.2047 172.676 48.2037 172.676 48.2026C172.676 48.2016 172.676 48.2005 172.676 48.1995C172.676 48.1985 172.676 48.1974 172.676 48.1964C172.676 48.1953 172.676 48.1943 172.676 48.1932C172.676 48.1922 172.676 48.1911 172.676 48.1901C172.676 48.1891 172.676 48.188 172.676 48.187C172.676 48.1859 172.676 48.1849 172.676 48.1839C172.676 48.1828 172.676 48.1818 172.676 48.1807C172.676 48.1797 172.676 48.1787 172.676 48.1776C172.676 48.1766 172.676 48.1755 172.676 48.1745C172.676 48.1735 172.676 48.1724 172.676 48.1714C172.676 48.1704 172.676 48.1693 172.676 48.1683C172.676 48.1672 172.676 48.1662 172.676 48.1652C172.676 48.1641 172.676 48.1631 172.676 48.1621C172.676 48.161 172.676 48.16 172.676 48.159C172.676 48.1579 172.676 48.1569 172.676 48.1559C172.676 48.1549 172.676 48.1538 172.676 48.1528C172.676 48.1518 172.676 48.1507 172.676 48.1497C172.676 48.1487 172.676 48.1477 172.676 48.1466C172.676 48.1456 172.676 48.1446 172.676 48.1435C172.676 48.1425 172.676 48.1415 172.676 48.1405C172.676 48.1394 172.676 48.1384 172.676 48.1374C172.676 48.1364 172.676 48.1353 172.676 48.1343C172.676 48.1333 172.676 48.1323 172.676 48.1313C172.676 48.1302 172.676 48.1292 172.676 48.1282C172.676 48.1272 172.676 48.1261 172.676 48.1251C172.676 48.1241 172.676 48.1231 172.676 48.1221C172.676 48.121 172.676 48.12 172.676 48.119C172.676 48.118 172.676 48.117 172.676 48.116C172.676 48.1149 172.676 48.1139 172.676 48.1129C172.676 48.1119 172.676 48.1109 172.676 48.1099C172.676 48.1089 172.676 48.1078 172.676 48.1068C172.676 48.1058 172.676 48.1048 172.676 48.1038C172.676 48.1028 172.676 48.1018 172.676 48.1007C172.676 48.0997 172.676 48.0987 172.676 48.0977C172.676 48.0967 172.676 48.0957 172.676 48.0947C172.676 48.0937 172.676 48.0927 172.676 48.0917C172.676 48.0907 172.676 48.0896 172.676 48.0886C172.676 48.0876 172.676 48.0866 172.676 48.0856C172.676 48.0846 172.676 48.0836 172.676 48.0826C172.676 48.0816 172.676 48.0806 172.676 48.0796C172.676 48.0786 172.676 48.0776 172.676 48.0766C172.676 48.0756 172.676 48.0746 172.676 48.0736C172.676 48.0726 172.676 48.0716 172.676 48.0706C172.676 48.0696 172.676 48.0686 172.676 48.0676C172.676 48.0666 172.676 48.0656 172.676 48.0646C172.676 48.0636 172.676 48.0626 172.676 48.0616C172.676 48.0606 172.676 48.0596 172.676 48.0586C172.676 48.0576 172.676 48.0566 172.676 48.0556C172.676 48.0546 172.676 48.0536 172.676 48.0526C172.676 48.0516 172.676 48.0506 172.676 48.0496C172.676 48.0486 172.676 48.0477 172.676 48.0467C172.676 48.0457 172.676 48.0447 172.676 48.0437C172.676 48.0427 172.676 48.0417 172.676 48.0407C172.676 48.0397 172.676 48.0387 172.676 48.0377C172.676 48.0368 172.676 48.0358 172.676 48.0348C172.676 48.0338 172.676 48.0328 172.676 48.0318C172.676 48.0308 172.676 48.0299 172.676 48.0289C172.676 48.0279 172.676 48.0269 172.676 48.0259C172.676 48.0249 172.676 48.0239 172.676 48.023C172.676 48.022 172.676 48.021 172.676 48.02C172.676 48.019 172.676 48.018 172.676 48.0171C172.676 48.0161 172.676 48.0151 172.676 48.0141C172.676 48.0131 172.676 48.0122 172.676 48.0112C172.676 48.0102 172.676 48.0092 172.676 48.0083C172.676 48.0073 172.676 48.0063 172.676 48.0053C172.676 48.0043 172.676 48.0034 172.676 48.0024C172.676 48.0014 172.676 48.0004 172.676 47.9995C172.676 47.9985 172.676 47.9975 172.676 47.9965C172.676 47.9956 172.676 47.9946 172.676 47.9936C172.676 47.9927 172.676 47.9917 172.676 47.9907C172.676 47.9897 172.676 47.9888 172.676 47.9878C172.676 47.9868 172.676 47.9859 172.676 47.9849C172.676 47.9839 172.676 47.983 172.676 47.982C172.676 47.981 172.676 47.98 172.676 47.9791C172.676 47.9781 172.676 47.9771 172.676 47.9762C172.676 47.9752 172.676 47.9742 172.676 47.9733C172.676 47.9723 172.676 47.9714 172.676 47.9704C172.676 47.9694 172.676 47.9685 172.676 47.9675C172.676 47.9665 172.676 47.9656 172.676 47.9646C172.676 47.9637 172.676 47.9627 172.676 47.9617C172.676 47.9608 172.676 47.9598 172.676 47.9589C172.676 47.9579 172.676 47.9569 172.676 47.956C172.676 47.955 172.676 47.9541 172.676 47.9531C172.676 47.9521 172.676 47.9512 172.676 47.9502C172.676 47.9493 172.676 47.9483 172.676 47.9474C172.676 47.9464 172.676 47.9455 172.676 47.9445C172.676 47.9435 172.676 47.9426 172.676 47.9416C172.676 47.9407 172.676 47.9397 172.676 47.9388C172.676 47.9378 172.676 47.9369 172.676 47.9359C172.676 47.935 172.676 47.934 172.676 47.9331C172.676 47.9321 172.676 47.9312 172.676 47.9302C172.676 47.9293 172.676 47.9283 172.676 47.9274C172.676 47.9264 172.676 47.9255 172.676 47.9245C172.676 47.9236 172.676 47.9227 172.676 47.9217C172.676 47.9208 172.676 47.9198 172.676 47.9189C172.676 47.9179 172.676 47.917 172.676 47.916C172.676 47.9151 172.676 47.9142 172.676 47.9132C172.676 47.9123 172.676 47.9113 172.676 47.9104C172.676 47.9094 172.676 47.9085 172.676 47.9076C172.676 47.9066 172.676 47.9057 172.676 47.9047C172.676 47.9038 172.676 47.9029 172.676 47.9019C172.676 47.901 172.676 47.9001 172.676 47.8991C172.676 47.8982 172.676 47.8972 172.676 47.8963C172.676 47.8954 172.676 47.8944 172.676 47.8935C172.676 47.8926 172.676 47.8916 172.676 47.8907C172.676 47.8898 172.676 47.8888 172.676 47.8879C172.676 47.887 172.676 47.886 172.676 47.8851C172.676 47.8842 172.676 47.8832 172.676 47.8823C172.676 47.8814 172.676 47.8805 172.676 47.8795C172.676 47.8786 172.676 47.8777 172.676 47.8767C172.676 47.8758 172.676 47.8749 172.676 47.874C172.676 47.873 172.676 47.8721 172.676 47.8712C172.676 47.8703 172.676 47.8693 172.676 47.8684C172.676 47.8675 172.676 47.8666 172.676 47.8656C172.676 47.8647 172.676 47.8638 172.676 47.8629C172.676 47.8619 172.676 47.861 172.676 47.8601C172.676 47.8592 172.676 47.8583 172.676 47.8573C172.676 47.8564 172.676 47.8555 172.676 47.8546C172.676 47.8537 172.676 47.8527 172.676 47.8518C172.676 47.8509 172.676 47.85 172.676 47.8491C172.676 47.8481 172.676 47.8472 172.676 47.8463C172.676 47.8454 172.676 47.8445 172.676 47.8436C172.676 47.8427 172.676 47.8417 172.676 47.8408C172.676 47.8399 172.676 47.839 172.676 47.8381C172.676 47.8372 172.676 47.8363 172.676 47.8353C172.676 47.8344 172.676 47.8335 172.676 47.8326C172.676 47.8317 172.676 47.8308 172.676 47.8299C172.676 47.829 172.676 47.8281 172.676 47.8272C172.676 47.8262 172.676 47.8253 172.676 47.8244C172.676 47.8235 172.676 47.8226 172.676 47.8217C172.676 47.8208 172.676 47.8199 172.676 47.819C172.676 47.8181 172.676 47.8172 172.676 47.8163C172.676 47.8154 172.676 47.8145 172.676 47.8136C172.676 47.8127 172.676 47.8118 172.676 47.8109C172.676 47.81 172.676 47.8091 172.676 47.8082C172.676 47.8073 172.676 47.8064 172.676 47.8055C172.676 47.8046 172.676 47.8037 172.676 47.8028C172.676 47.8019 172.676 47.801 172.676 47.8001C172.676 47.7992 172.676 47.7983 172.676 47.7974C172.676 47.7965 172.676 47.7956 172.676 47.7947C172.676 47.7938 172.676 47.7929 172.676 47.792H170.676ZM170.676 49.5913C170.676 50.3618 170.71 51.194 170.777 52.087L172.772 51.9374C172.708 51.0856 172.676 50.3039 172.676 49.5913H170.676ZM170.777 52.0889C170.845 52.972 170.958 53.875 171.116 54.7977L173.087 54.4611C172.94 53.5953 172.834 52.7535 172.772 51.9355L170.777 52.0889ZM171.121 54.8255C171.307 55.7556 171.566 56.6179 171.901 57.4081L173.742 56.627C173.466 55.9778 173.245 55.2479 173.082 54.4333L171.121 54.8255ZM171.901 57.4081C172.25 58.2312 172.714 58.9402 173.309 59.5075L174.69 58.0608C174.324 57.7122 174.003 57.2434 173.742 56.627L171.901 57.4081ZM173.326 59.5241C174.011 60.1465 174.859 60.4385 175.798 60.4385V58.4385C175.298 58.4385 174.947 58.2942 174.672 58.0442L173.326 59.5241ZM175.798 60.4385C176.541 60.4385 177.243 60.2277 177.889 59.8347L176.849 58.1263C176.491 58.3439 176.146 58.4385 175.798 58.4385V60.4385ZM177.915 59.8181C178.491 59.4425 179.014 58.9934 179.484 58.4736L178.001 57.1318C177.643 57.5281 177.25 57.8641 176.822 58.1429L177.915 59.8181ZM179.5 58.4564C179.952 57.9322 180.348 57.3806 180.686 56.8017L178.959 55.794C178.686 56.2619 178.362 56.7137 177.986 57.1491L179.5 58.4564ZM180.67 56.8279C181.02 56.2687 181.301 55.7352 181.503 55.2298L179.646 54.487C179.499 54.854 179.279 55.2801 178.974 55.7679L180.67 56.8279ZM181.575 54.8678L181.706 40.9313L179.706 40.9125L179.575 54.849L181.575 54.8678ZM220.389 32.3506L220.448 33.3488L221.412 33.2914L221.388 32.3261L220.389 32.3506ZM214.893 32.6777L213.894 32.7219L213.938 33.7363L214.952 33.676L214.893 32.6777ZM214.565 25.2842L215.565 25.24L215.521 24.2623L214.543 24.2844L214.565 25.2842ZM202.984 25.5459L202.962 24.5462L201.976 24.5684L201.984 25.5547L202.984 25.5459ZM203.115 40.4639L202.115 40.4726L202.124 41.4639H203.115V40.4639ZM212.864 40.4639H213.864V39.4639H212.864V40.4639ZM212.864 45.1748L212.925 46.173L213.864 46.1158V45.1748H212.864ZM203.181 45.7637L203.12 44.7655L202.171 44.8232L202.181 45.7736L203.181 45.7637ZM203.312 58.9805L202.312 58.9904L202.321 59.9262L203.255 59.9789L203.312 58.9805ZM207.957 59.2422H208.957V58.2969L208.013 58.2438L207.957 59.2422ZM207.957 65.0654L207.98 66.0652L208.957 66.0427V65.0654H207.957ZM193.759 65.3926L192.759 65.4232L192.79 66.4152L193.782 66.3923L193.759 65.3926ZM193.563 58.9805V57.9805H192.531L192.563 59.0111L193.563 58.9805ZM197.423 58.9805V59.9805H198.425L198.423 58.9785L197.423 58.9805ZM197.357 25.5459L198.357 25.5439L198.355 24.5132L197.325 24.5464L197.357 25.5459ZM193.301 25.6768L192.302 25.6253L192.246 26.7113L193.333 26.6762L193.301 25.6768ZM193.628 19.3301L193.616 18.3302L192.678 18.3418L192.629 19.2786L193.628 19.3301ZM220.062 19.0029L221.061 18.9784L221.037 17.9908L220.049 18.003L220.062 19.0029ZM220.329 31.3524L214.833 31.6795L214.952 33.676L220.448 33.3488L220.329 31.3524ZM215.892 32.6335L215.565 25.24L213.566 25.3284L213.894 32.7219L215.892 32.6335ZM214.543 24.2844L202.962 24.5462L203.007 26.5456L214.588 26.2839L214.543 24.2844ZM201.984 25.5547L202.115 40.4726L204.115 40.4551L203.984 25.5371L201.984 25.5547ZM203.115 41.4639H212.864V39.4639H203.115V41.4639ZM211.864 40.4639V45.1748H213.864V40.4639H211.864ZM212.804 44.1766L203.12 44.7655L203.241 46.7618L212.925 46.173L212.804 44.1766ZM202.181 45.7736L202.312 58.9904L204.312 58.9706L204.181 45.7538L202.181 45.7736ZM203.255 59.9789L207.901 60.2406L208.013 58.2438L203.368 57.9821L203.255 59.9789ZM206.957 59.2422V65.0654H208.957V59.2422H206.957ZM207.934 64.0657L193.736 64.3928L193.782 66.3923L207.98 66.0652L207.934 64.0657ZM194.758 65.362L194.562 58.9499L192.563 59.0111L192.759 65.4232L194.758 65.362ZM193.563 59.9805H197.423V57.9805H193.563V59.9805ZM198.423 58.9785L198.357 25.5439L196.357 25.5479L196.423 58.9824L198.423 58.9785ZM197.325 24.5464L193.269 24.6773L193.333 26.6762L197.39 26.5454L197.325 24.5464ZM194.3 25.7282L194.627 19.3816L192.629 19.2786L192.302 25.6253L194.3 25.7282ZM193.64 20.33L220.074 20.0029L220.049 18.003L193.616 18.3302L193.64 20.33ZM219.062 19.0274L219.389 32.3751L221.388 32.3261L221.061 18.9784L219.062 19.0274ZM246.659 37.2578L246.721 38.2559L247.659 38.1973V37.2578H246.659ZM243.518 37.4541L243.456 36.456L242.704 36.5031L242.542 37.2389L243.518 37.4541ZM235.732 72.7861L234.755 72.5709L234.501 73.7273L235.683 73.7849L235.732 72.7861ZM238.415 72.917H239.415V71.9646L238.463 71.9182L238.415 72.917ZM238.415 78.3477L238.426 79.3476L239.415 79.3361V78.3477H238.415ZM227.161 78.4785L226.161 78.5169L226.199 79.4898L227.172 79.4784L227.161 78.4785ZM226.964 73.375L226.861 72.3804L225.929 72.4774L225.965 73.4134L226.964 73.375ZM230.105 73.0479L230.209 74.0425L230.917 73.9687L231.079 73.2751L230.105 73.0479ZM231.937 65.1963L232.911 65.4235L232.97 65.1703L232.898 64.9204L231.937 65.1963ZM223.693 36.4727L224.654 36.1968L224.446 35.4727H223.693V36.4727ZM220.683 36.4727L219.685 36.4139L219.623 37.4727H220.683V36.4727ZM221.01 30.9111L221.022 29.9112L220.068 29.8998L220.012 30.8524L221.01 30.9111ZM232.003 31.042L233.002 31.0173L232.978 30.0535L232.014 30.0421L232.003 31.042ZM232.133 36.3418L232.224 37.3377L233.156 37.2529L233.133 36.3171L232.133 36.3418ZM229.254 36.6035L229.164 35.6076L227.988 35.7145L228.287 36.8566L229.254 36.6035ZM234.423 56.3633L233.456 56.6164L235.405 56.5549L234.423 56.3633ZM238.218 36.9307L239.2 37.1223L239.404 36.0745L238.345 35.9388L238.218 36.9307ZM235.667 36.6035L234.669 36.6659L234.72 37.4904L235.539 37.5954L235.667 36.6035ZM235.339 31.3691L235.328 30.3692L234.276 30.3814L234.341 31.4315L235.339 31.3691ZM246.659 31.2383H247.659V30.2267L246.647 30.2383L246.659 31.2383ZM246.596 36.2598L243.456 36.456L243.581 38.4522L246.721 38.2559L246.596 36.2598ZM242.542 37.2389L234.755 72.5709L236.709 73.0013L244.495 37.6693L242.542 37.2389ZM235.683 73.7849L238.366 73.9158L238.463 71.9182L235.781 71.7873L235.683 73.7849ZM237.415 72.917V78.3477H239.415V72.917H237.415ZM238.403 77.3477L227.149 77.4786L227.172 79.4784L238.426 79.3476L238.403 77.3477ZM228.16 78.4401L227.964 73.3366L225.965 73.4134L226.161 78.5169L228.16 78.4401ZM227.068 74.3696L230.209 74.0425L230.001 72.0532L226.861 72.3804L227.068 74.3696ZM231.079 73.2751L232.911 65.4235L230.963 64.9691L229.131 72.8206L231.079 73.2751ZM232.898 64.9204L224.654 36.1968L222.732 36.7485L230.976 65.4722L232.898 64.9204ZM223.693 35.4727H220.683V37.4727H223.693V35.4727ZM221.681 36.5314L222.009 30.9699L220.012 30.8524L219.685 36.4139L221.681 36.5314ZM220.998 31.9111L231.991 32.0419L232.014 30.0421L221.022 29.9112L220.998 31.9111ZM231.003 31.0667L231.134 36.3665L233.133 36.3171L233.002 31.0173L231.003 31.0667ZM232.043 35.3459L229.164 35.6076L229.345 37.5994L232.224 37.3377L232.043 35.3459ZM228.287 36.8566L233.456 56.6164L235.391 56.1102L230.222 36.3504L228.287 36.8566ZM235.405 56.5549L239.2 37.1223L237.237 36.739L233.442 56.1716L235.405 56.5549ZM238.345 35.9388L235.794 35.6116L235.539 37.5954L238.091 37.9225L238.345 35.9388ZM236.665 36.5411L236.337 31.3068L234.341 31.4315L234.669 36.6659L236.665 36.5411ZM235.351 32.3691L246.67 32.2382L246.647 30.2383L235.328 30.3692L235.351 32.3691ZM245.659 31.2383V37.2578H247.659V31.2383H245.659Z" fill="white"/>
<path d="M62.8086 76.965H68.9202C72.0127 76.965 74.5531 74.725 74.9212 71.855L80.9959 14.175H62.5877V0H55.3349V14.175H37.0372L38.1417 22.365C44.4373 24.01 50.3279 26.985 53.8623 30.275C59.1638 35.245 62.8086 40.39 62.8086 48.79V76.965ZM0 73.465V70H55.3349V73.465C55.3349 75.39 53.6782 76.965 51.6165 76.965H3.71845C1.65673 76.965 0 75.39 0 73.465ZM55.3349 48.965C55.3349 20.965 0 20.965 0 48.965H55.3349ZM0.0736326 56H55.2981V63H0.0736326V56Z" fill="white"/>
</g>
<defs>
<filter id="filter0_i" x="0" y="0" width="247.659" height="92" filterUnits="userSpaceOnUse" color-interpolation-filters="sRGB">
<feFlood flood-opacity="0" result="BackgroundImageFix"/>
<feBlend mode="normal" in="SourceGraphic" in2="BackgroundImageFix" result="shape"/>
<feColorMatrix in="SourceAlpha" type="matrix" values="0 0 0 0 0 0 0 0 0 0 0 0 0 0 0 0 0 0 127 0" result="hardAlpha"/>
<feOffset dy="7"/>
<feGaussianBlur stdDeviation="9"/>
<feComposite in2="hardAlpha" operator="arithmetic" k2="-1" k3="1"/>
<feColorMatrix type="matrix" values="0 0 0 0 0 0 0 0 0 0 0 0 0 0 0 0 0 0 0.3 0"/>
<feBlend mode="normal" in2="shape" result="effect1_innerShadow"/>
</filter>
</defs>
</svg>
