<svg width="249" height="85" viewBox="0 0 249 85" fill="none" xmlns="http://www.w3.org/2000/svg">
<g filter="url(#filter0_i)">
<path d="M117.987 32.3506L112.491 32.6777L112.164 25.2842L100.583 25.5459L100.714 40.4639H110.463V45.1748L100.779 45.7637L100.91 58.9805L105.556 59.2422V65.0654L91.3573 65.3926L91.161 58.9805H95.0214L94.9559 25.5459L90.8993 25.6768L91.2264 19.3301L117.66 19.0029L117.987 32.3506ZM138.859 47.2031C138.859 48.2936 138.794 49.5041 138.663 50.8345C138.532 52.1649 138.303 53.5171 137.976 54.8911C137.649 56.2433 137.213 57.5737 136.667 58.8823C136.144 60.1691 135.479 61.3141 134.672 62.3174C133.865 63.3206 132.916 64.1276 131.826 64.7383C130.757 65.349 129.503 65.6543 128.063 65.6543C126.711 65.6543 125.523 65.4035 124.497 64.9019C123.472 64.3784 122.589 63.7023 121.848 62.8735C121.106 62.0229 120.484 61.0415 119.983 59.9292C119.481 58.8169 119.078 57.661 118.772 56.4614C118.489 55.2619 118.282 54.0514 118.151 52.8301C118.042 51.6087 117.987 50.4746 117.987 49.4277C117.987 48.3372 118.053 47.1159 118.183 45.7637C118.314 44.4115 118.532 43.0483 118.838 41.6743C119.165 40.2785 119.59 38.9263 120.114 37.6177C120.659 36.3091 121.324 35.1532 122.109 34.1499C122.916 33.1248 123.865 32.307 124.955 31.6963C126.046 31.0856 127.322 30.7803 128.783 30.7803C130.113 30.7803 131.28 31.042 132.284 31.5654C133.309 32.0889 134.192 32.7868 134.933 33.6592C135.697 34.5316 136.318 35.5348 136.798 36.6689C137.3 37.8031 137.703 38.9808 138.009 40.2021C138.314 41.4017 138.532 42.6121 138.663 43.8335C138.794 45.0549 138.859 46.1781 138.859 47.2031ZM133.69 47.0068C133.69 46.5488 133.668 45.96 133.625 45.2402C133.581 44.5205 133.494 43.7572 133.363 42.9502C133.254 42.1432 133.091 41.3363 132.872 40.5293C132.654 39.7223 132.371 38.9917 132.022 38.3374C131.673 37.6831 131.237 37.1597 130.713 36.7671C130.212 36.3527 129.612 36.1455 128.914 36.1455C128.063 36.1455 127.333 36.4072 126.722 36.9307C126.133 37.4323 125.621 38.0866 125.184 38.8936C124.77 39.7005 124.432 40.6056 124.17 41.6089C123.909 42.5903 123.701 43.5827 123.549 44.5859C123.418 45.5674 123.331 46.4943 123.287 47.3667C123.243 48.2391 123.222 48.9479 123.222 49.4932C123.222 49.9512 123.243 50.54 123.287 51.2598C123.331 51.9577 123.418 52.7101 123.549 53.5171C123.68 54.3241 123.854 55.131 124.072 55.938C124.312 56.7231 124.606 57.4429 124.955 58.0972C125.304 58.7515 125.73 59.2858 126.231 59.7002C126.733 60.0928 127.322 60.2891 127.998 60.2891C128.827 60.2891 129.536 60.0382 130.124 59.5366C130.735 59.035 131.248 58.3916 131.662 57.6064C132.098 56.7995 132.447 55.9053 132.709 54.9238C132.971 53.9424 133.167 52.9609 133.298 51.9795C133.45 50.9762 133.549 50.0384 133.592 49.166C133.658 48.2936 133.69 47.5739 133.69 47.0068ZM163.003 47.2031C163.003 48.2936 162.937 49.5041 162.807 50.8345C162.676 52.1649 162.447 53.5171 162.12 54.8911C161.792 56.2433 161.356 57.5737 160.811 58.8823C160.287 60.1691 159.622 61.3141 158.815 62.3174C158.008 63.3206 157.06 64.1276 155.969 64.7383C154.9 65.349 153.646 65.6543 152.207 65.6543C150.855 65.6543 149.666 65.4035 148.641 64.9019C147.616 64.3784 146.733 63.7023 145.991 62.8735C145.25 62.0229 144.628 61.0415 144.126 59.9292C143.625 58.8169 143.221 57.661 142.916 56.4614C142.632 55.2619 142.425 54.0514 142.294 52.8301C142.185 51.6087 142.131 50.4746 142.131 49.4277C142.131 48.3372 142.196 47.1159 142.327 45.7637C142.458 44.4115 142.676 43.0483 142.981 41.6743C143.308 40.2785 143.734 38.9263 144.257 37.6177C144.802 36.3091 145.468 35.1532 146.253 34.1499C147.06 33.1248 148.009 32.307 149.099 31.6963C150.189 31.0856 151.465 30.7803 152.927 30.7803C154.257 30.7803 155.424 31.042 156.427 31.5654C157.452 32.0889 158.335 32.7868 159.077 33.6592C159.84 34.5316 160.462 35.5348 160.942 36.6689C161.443 37.8031 161.847 38.9808 162.152 40.2021C162.458 41.4017 162.676 42.6121 162.807 43.8335C162.937 45.0549 163.003 46.1781 163.003 47.2031ZM157.834 47.0068C157.834 46.5488 157.812 45.96 157.768 45.2402C157.725 44.5205 157.638 43.7572 157.507 42.9502C157.398 42.1432 157.234 41.3363 157.016 40.5293C156.798 39.7223 156.514 38.9917 156.165 38.3374C155.816 37.6831 155.38 37.1597 154.857 36.7671C154.355 36.3527 153.755 36.1455 153.057 36.1455C152.207 36.1455 151.476 36.4072 150.866 36.9307C150.277 37.4323 149.764 38.0866 149.328 38.8936C148.914 39.7005 148.576 40.6056 148.314 41.6089C148.052 42.5903 147.845 43.5827 147.692 44.5859C147.561 45.5674 147.474 46.4943 147.431 47.3667C147.387 48.2391 147.365 48.9479 147.365 49.4932C147.365 49.9512 147.387 50.54 147.431 51.2598C147.474 51.9577 147.561 52.7101 147.692 53.5171C147.823 54.3241 147.998 55.131 148.216 55.938C148.456 56.7231 148.75 57.4429 149.099 58.0972C149.448 58.7515 149.873 59.2858 150.375 59.7002C150.877 60.0928 151.465 60.2891 152.141 60.2891C152.97 60.2891 153.679 60.0382 154.268 59.5366C154.879 59.035 155.391 58.3916 155.806 57.6064C156.242 56.7995 156.591 55.9053 156.852 54.9238C157.114 53.9424 157.31 52.9609 157.441 51.9795C157.594 50.9762 157.692 50.0384 157.736 49.166C157.801 48.2936 157.834 47.5739 157.834 47.0068ZM191.497 65.0654L182.73 65.3271L182.272 61.5322C181.552 62.71 180.592 63.6369 179.393 64.313C178.193 64.9891 176.907 65.3271 175.533 65.3271C174.18 65.3271 173.014 65.0436 172.032 64.4766C171.072 63.9095 170.244 63.1571 169.546 62.2192C168.87 61.2814 168.314 60.2127 167.877 59.0132C167.463 57.8136 167.136 56.5814 166.896 55.3164C166.678 54.0514 166.525 52.8083 166.438 51.5869C166.351 50.3656 166.307 49.2533 166.307 48.25C166.307 47.2467 166.372 46.1235 166.503 44.8804C166.634 43.6154 166.852 42.3395 167.158 41.0527C167.485 39.766 167.899 38.5119 168.401 37.2905C168.924 36.0692 169.557 34.9787 170.298 34.019C171.062 33.0594 171.956 32.2961 172.981 31.729C174.006 31.1401 175.184 30.8457 176.514 30.8457C177.539 30.8457 178.51 31.1183 179.426 31.6636C180.363 32.187 181.094 32.874 181.618 33.7246V23.0596H175.729V17.4326L187.703 17.6289L187.179 59.7656L191.497 59.6348V65.0654ZM181.421 40.9219C181.29 40.5293 181.105 40.0931 180.865 39.6133C180.625 39.1335 180.331 38.6864 179.982 38.272C179.655 37.8358 179.273 37.4759 178.837 37.1924C178.422 36.887 177.975 36.7344 177.495 36.7344C176.776 36.7344 176.143 36.9416 175.598 37.356C175.075 37.7703 174.627 38.3047 174.257 38.959C173.886 39.6133 173.57 40.3548 173.308 41.1836C173.068 41.9906 172.883 42.8084 172.752 43.6372C172.621 44.4442 172.523 45.2184 172.457 45.96C172.414 46.6797 172.392 47.2904 172.392 47.792C172.392 48.25 172.392 48.8498 172.392 49.5913C172.392 50.3328 172.425 51.1398 172.49 52.0122C172.556 52.8628 172.665 53.7352 172.817 54.6294C172.992 55.5018 173.232 56.2979 173.537 57.0176C173.842 57.7373 174.235 58.3262 174.715 58.7842C175.195 59.2204 175.794 59.4385 176.514 59.4385C177.059 59.4385 177.583 59.2858 178.084 58.9805C178.586 58.6533 179.044 58.2607 179.458 57.8027C179.873 57.3229 180.233 56.8213 180.538 56.2979C180.865 55.7744 181.116 55.2946 181.29 54.8584L181.421 40.9219ZM221.104 32.3506L215.608 32.6777L215.281 25.2842L203.7 25.5459L203.831 40.4639H213.58V45.1748L203.896 45.7637L204.027 58.9805L208.673 59.2422V65.0654L194.474 65.3926L194.278 58.9805H198.139L198.073 25.5459L194.016 25.6768L194.344 19.3301L220.777 19.0029L221.104 32.3506ZM247.374 37.2578L244.234 37.4541L236.448 72.7861L239.13 72.917V78.3477L227.876 78.4785L227.68 73.375L230.821 73.0479L232.653 65.1963L224.409 36.4727H221.399L221.726 30.9111L232.718 31.042L232.849 36.3418L229.97 36.6035L235.139 56.3633L238.934 36.9307L236.382 36.6035L236.055 31.3691L247.374 31.2383V37.2578Z" fill="black"/>
<path d="M117.987 32.3506L118.047 33.3488L119.011 33.2914L118.987 32.3261L117.987 32.3506ZM112.491 32.6777L111.492 32.7219L111.537 33.7363L112.551 33.676L112.491 32.6777ZM112.164 25.2842L113.163 25.24L113.12 24.2623L112.141 24.2844L112.164 25.2842ZM100.583 25.5459L100.56 24.5462L99.5743 24.5684L99.5829 25.5547L100.583 25.5459ZM100.714 40.4639L99.7138 40.4726L99.7225 41.4639H100.714V40.4639ZM110.463 40.4639H111.463V39.4639H110.463V40.4639ZM110.463 45.1748L110.523 46.173L111.463 46.1158V45.1748H110.463ZM100.779 45.7637L100.718 44.7655L99.7698 44.8232L99.7792 45.7736L100.779 45.7637ZM100.91 58.9805L99.9101 58.9904L99.9193 59.9262L100.854 59.9789L100.91 58.9805ZM105.556 59.2422H106.556V58.2969L105.612 58.2438L105.556 59.2422ZM105.556 65.0654L105.579 66.0652L106.556 66.0427V65.0654H105.556ZM91.3573 65.3926L90.3578 65.4232L90.3881 66.4152L91.3803 66.3923L91.3573 65.3926ZM91.161 58.9805V57.9805H90.1299L90.1615 59.0111L91.161 58.9805ZM95.0214 58.9805V59.9805H96.0233L96.0214 58.9785L95.0214 58.9805ZM94.9559 25.5459L95.9559 25.5439L95.9539 24.5132L94.9237 24.5464L94.9559 25.5459ZM90.8993 25.6768L89.9006 25.6253L89.8446 26.7113L90.9315 26.6762L90.8993 25.6768ZM91.2264 19.3301L91.2141 18.3302L90.2761 18.3418L90.2278 19.2786L91.2264 19.3301ZM117.66 19.0029L118.66 18.9784L118.636 17.9908L117.648 18.003L117.66 19.0029ZM117.928 31.3524L112.432 31.6795L112.551 33.676L118.047 33.3488L117.928 31.3524ZM113.49 32.6335L113.163 25.24L111.165 25.3284L111.492 32.7219L113.49 32.6335ZM112.141 24.2844L100.56 24.5462L100.605 26.5456L112.187 26.2839L112.141 24.2844ZM99.5829 25.5547L99.7138 40.4726L101.714 40.4551L101.583 25.5371L99.5829 25.5547ZM100.714 41.4639H110.463V39.4639H100.714V41.4639ZM109.463 40.4639V45.1748H111.463V40.4639H109.463ZM110.402 44.1766L100.718 44.7655L100.84 46.7618L110.523 46.173L110.402 44.1766ZM99.7792 45.7736L99.9101 58.9904L101.91 58.9706L101.779 45.7538L99.7792 45.7736ZM100.854 59.9789L105.499 60.2406L105.612 58.2438L100.966 57.9821L100.854 59.9789ZM104.556 59.2422V65.0654H106.556V59.2422H104.556ZM105.533 64.0657L91.3343 64.3928L91.3803 66.3923L105.579 66.0652L105.533 64.0657ZM92.3568 65.362L92.1605 58.9499L90.1615 59.0111L90.3578 65.4232L92.3568 65.362ZM91.161 59.9805H95.0214V57.9805H91.161V59.9805ZM96.0214 58.9785L95.9559 25.5439L93.9559 25.5479L94.0214 58.9824L96.0214 58.9785ZM94.9237 24.5464L90.8671 24.6773L90.9315 26.6762L94.9882 26.5454L94.9237 24.5464ZM91.898 25.7282L92.2251 19.3816L90.2278 19.2786L89.9006 25.6253L91.898 25.7282ZM91.2388 20.33L117.672 20.0029L117.648 18.003L91.2141 18.3302L91.2388 20.33ZM116.66 19.0274L116.987 32.3751L118.987 32.3261L118.66 18.9784L116.66 19.0274ZM137.976 54.8911L138.948 55.1263L138.949 55.1227L137.976 54.8911ZM136.667 58.8823L135.744 58.4977L135.741 58.5055L136.667 58.8823ZM131.826 64.7383L131.337 63.8657L131.329 63.87L131.826 64.7383ZM124.497 64.9019L124.043 65.7925L124.05 65.7963L124.058 65.8001L124.497 64.9019ZM121.848 62.8735L121.094 63.5307L121.102 63.5403L121.848 62.8735ZM118.772 56.4614L117.799 56.6915L117.801 56.6998L117.803 56.7081L118.772 56.4614ZM118.151 52.8301L117.155 52.919L117.156 52.9278L117.156 52.9366L118.151 52.8301ZM118.838 41.6743L117.864 41.4461L117.862 41.4574L118.838 41.6743ZM120.114 37.6177L119.191 37.2331L119.188 37.2397L119.185 37.2463L120.114 37.6177ZM122.109 34.1499L121.324 33.5313L121.322 33.5336L122.109 34.1499ZM124.955 31.6963L125.444 32.5688L124.955 31.6963ZM132.284 31.5654L131.821 32.452L131.829 32.456L132.284 31.5654ZM134.933 33.6592L134.172 34.3068L134.176 34.3123L134.181 34.3177L134.933 33.6592ZM136.798 36.6689L135.877 37.0586L135.88 37.066L135.884 37.0735L136.798 36.6689ZM138.009 40.2021L137.039 40.4447L137.04 40.4488L138.009 40.2021ZM133.363 42.9502L132.372 43.0841L132.374 43.0972L132.376 43.1103L133.363 42.9502ZM132.022 38.3374L131.139 38.808L132.022 38.3374ZM130.713 36.7671L130.076 37.5381L130.094 37.553L130.113 37.5671L130.713 36.7671ZM126.722 36.9307L127.371 37.6919L127.373 37.6899L126.722 36.9307ZM125.184 38.8936L124.305 38.418L124.3 38.4273L124.295 38.4368L125.184 38.8936ZM124.17 41.6089L125.137 41.8666L125.138 41.8613L124.17 41.6089ZM123.549 44.5859L122.56 44.4355L122.559 44.4446L122.557 44.4538L123.549 44.5859ZM123.287 51.2598L122.289 51.3203L122.289 51.3221L123.287 51.2598ZM124.072 55.938L123.107 56.1989L123.111 56.2146L123.116 56.2302L124.072 55.938ZM124.955 58.0972L124.073 58.5678L124.955 58.0972ZM126.231 59.7002L125.594 60.4712L125.605 60.4796L125.615 60.4877L126.231 59.7002ZM130.124 59.5366L129.49 58.7639L129.483 58.7696L129.476 58.7754L130.124 59.5366ZM131.662 57.6064L130.782 57.1309L130.778 57.1397L131.662 57.6064ZM133.298 51.9795L132.309 51.8291L132.308 51.8382L132.307 51.8473L133.298 51.9795ZM133.592 49.166L132.595 49.0912L132.594 49.1036L132.593 49.1161L133.592 49.166ZM137.859 47.2031C137.859 48.2546 137.796 49.4318 137.668 50.7366L139.658 50.9324C139.792 49.5764 139.859 48.3326 139.859 47.2031H137.859ZM137.668 50.7366C137.542 52.0195 137.32 53.327 137.003 54.6595L138.949 55.1227C139.286 53.7072 139.523 52.3102 139.658 50.9324L137.668 50.7366ZM137.004 54.656C136.689 55.9562 136.27 57.2367 135.744 58.4977L137.59 59.2669C138.155 57.9108 138.608 56.5305 138.948 55.1263L137.004 54.656ZM135.741 58.5055C135.251 59.7094 134.634 60.7688 133.893 61.6906L135.451 62.9441C136.323 61.8594 137.036 60.6289 137.594 59.2591L135.741 58.5055ZM133.893 61.6906C133.163 62.5972 132.312 63.3196 131.337 63.8658L132.314 65.6108C133.52 64.9357 134.566 64.0441 135.451 62.9441L133.893 61.6906ZM131.329 63.87C130.436 64.3807 129.359 64.6543 128.063 64.6543V66.6543C129.647 66.6543 131.078 66.3172 132.322 65.6065L131.329 63.87ZM128.063 64.6543C126.836 64.6543 125.802 64.427 124.937 64.0036L124.058 65.8001C125.243 66.38 126.587 66.6543 128.063 66.6543V64.6543ZM124.952 64.0113C124.033 63.5419 123.249 62.9404 122.593 62.2067L121.102 63.5403C121.929 64.4642 122.912 65.215 124.043 65.7925L124.952 64.0113ZM122.601 62.2164C121.929 61.4454 121.359 60.5483 120.894 59.5181L119.071 60.3403C119.61 61.5347 120.283 62.6005 121.094 63.5307L122.601 62.2164ZM120.894 59.5181C120.417 58.4596 120.033 57.3587 119.741 56.2147L117.803 56.7081C118.123 57.9632 118.545 59.1742 119.071 60.3403L120.894 59.5181ZM119.746 56.2314C119.472 55.0724 119.271 53.9032 119.145 52.7235L117.156 52.9366C117.292 54.1997 117.506 55.4514 117.799 56.6915L119.746 56.2314ZM119.147 52.7411C119.04 51.5445 118.987 50.4404 118.987 49.4277H116.987C116.987 50.5088 117.043 51.6729 117.155 52.919L119.147 52.7411ZM118.987 49.4277C118.987 48.3761 119.05 47.1876 119.179 45.86L117.188 45.6673C117.055 47.0442 116.987 48.2984 116.987 49.4277H118.987ZM119.179 45.86C119.306 44.5498 119.517 43.2269 119.814 41.8912L117.862 41.4574C117.548 42.8698 117.323 44.2732 117.188 45.6673L119.179 45.86ZM119.811 41.9025C120.127 40.5546 120.538 39.2503 121.042 37.9891L119.185 37.2463C118.643 38.6022 118.203 40.0023 117.864 41.4461L119.811 41.9025ZM121.037 38.0023C121.551 36.7675 122.173 35.6912 122.897 34.7662L121.322 33.5336C120.475 34.6151 119.767 35.8507 119.191 37.2331L121.037 38.0023ZM122.895 34.7685C123.624 33.8422 124.473 33.1124 125.444 32.5688L124.467 30.8238C123.257 31.5015 122.208 32.4075 121.324 33.5313L122.895 34.7685ZM125.444 32.5688C126.362 32.0549 127.464 31.7803 128.783 31.7803V29.7803C127.18 29.7803 125.73 30.1163 124.467 30.8238L125.444 32.5688ZM128.783 31.7803C129.981 31.7803 130.984 32.0151 131.821 32.452L132.746 30.6788C131.577 30.0688 130.246 29.7803 128.783 29.7803V31.7803ZM131.829 32.456C132.737 32.9198 133.516 33.5354 134.172 34.3068L135.695 33.0115C134.868 32.0382 133.88 31.2579 132.738 30.6748L131.829 32.456ZM134.181 34.3177C134.87 35.1051 135.436 36.0164 135.877 37.0586L137.719 36.2793C137.2 35.0533 136.524 33.958 135.686 33.0007L134.181 34.3177ZM135.884 37.0735C136.362 38.1545 136.747 39.278 137.039 40.4447L138.979 39.9596C138.66 38.6836 138.238 37.4516 137.713 36.2644L135.884 37.0735ZM137.04 40.4488C137.333 41.6027 137.543 42.7663 137.669 43.94L139.657 43.727C139.521 42.458 139.295 41.2007 138.978 39.9555L137.04 40.4488ZM137.669 43.94C137.796 45.1327 137.859 46.2198 137.859 47.2031H139.859C139.859 46.1363 139.791 44.977 139.657 43.727L137.669 43.94ZM134.69 47.0068C134.69 46.5206 134.667 45.9096 134.623 45.1797L132.627 45.3007C132.67 46.0103 132.69 46.577 132.69 47.0068H134.69ZM134.623 45.1797C134.577 44.4226 134.486 43.6258 134.35 42.7901L132.376 43.1103C132.502 43.8885 132.585 44.6184 132.627 45.3007L134.623 45.1797ZM134.354 42.8163C134.239 41.9654 134.067 41.116 133.838 40.2684L131.907 40.7902C132.114 41.5565 132.269 42.3211 132.372 43.0841L134.354 42.8163ZM133.838 40.2684C133.602 39.3977 133.293 38.5954 132.904 37.8668L131.139 38.808C131.449 39.3879 131.706 40.047 131.907 40.7902L133.838 40.2684ZM132.904 37.8668C132.496 37.1006 131.968 36.4585 131.313 35.9671L130.113 37.5671C130.505 37.8608 130.85 38.2656 131.139 38.808L132.904 37.8668ZM131.35 35.9961C130.656 35.4225 129.826 35.1455 128.914 35.1455V37.1455C129.398 37.1455 129.767 37.2829 130.076 37.5381L131.35 35.9961ZM128.914 35.1455C127.84 35.1455 126.874 35.4832 126.071 36.1714L127.373 37.6899C127.791 37.3313 128.287 37.1455 128.914 37.1455V35.1455ZM126.074 36.1694C125.375 36.7646 124.789 37.5221 124.305 38.418L126.064 39.3691C126.452 38.651 126.891 38.1 127.371 37.6919L126.074 36.1694ZM124.295 38.4368C123.843 39.3173 123.48 40.2923 123.203 41.3565L125.138 41.8613C125.384 40.919 125.697 40.0838 126.074 39.3504L124.295 38.4368ZM123.204 41.3512C122.933 42.3679 122.718 43.3961 122.56 44.4355L124.537 44.7364C124.684 43.7693 124.884 42.8127 125.137 41.8665L123.204 41.3512ZM122.557 44.4538C122.423 45.459 122.333 46.4135 122.288 47.3168L124.286 47.4166C124.328 46.5751 124.412 45.6758 124.54 44.7181L122.557 44.4538ZM122.288 47.3168C122.244 48.1972 122.222 48.9244 122.222 49.4932H124.222C124.222 48.9714 124.243 48.281 124.286 47.4166L122.288 47.3168ZM122.222 49.4932C122.222 49.9794 122.245 50.5904 122.289 51.3203L124.285 51.1993C124.242 50.4897 124.222 49.923 124.222 49.4932H122.222ZM122.289 51.3221C122.335 52.0577 122.426 52.8431 122.562 53.6772L124.536 53.357C124.409 52.5772 124.326 51.8577 124.285 51.1974L122.289 51.3221ZM122.562 53.6772C122.698 54.5188 122.88 55.3595 123.107 56.1989L125.038 55.6771C124.828 54.9026 124.661 54.1293 124.536 53.357L122.562 53.6772ZM123.116 56.2302C123.373 57.0706 123.691 57.8508 124.073 58.5678L125.838 57.6266C125.522 57.0349 125.252 56.3757 125.028 55.6458L123.116 56.2302ZM124.073 58.5678C124.475 59.3213 124.979 59.9628 125.594 60.4712L126.868 58.9292C126.48 58.6088 126.134 58.1817 125.838 57.6266L124.073 58.5678ZM125.615 60.4877C126.304 61.0268 127.113 61.2891 127.998 61.2891V59.2891C127.531 59.2891 127.162 59.1588 126.848 58.9127L125.615 60.4877ZM127.998 61.2891C129.046 61.2891 129.99 60.9651 130.773 60.2979L129.476 58.7754C129.081 59.1114 128.607 59.2891 127.998 59.2891V61.2891ZM130.759 60.3093C131.484 59.7135 132.078 58.9614 132.546 58.0732L130.778 57.1397C130.418 57.8218 129.986 58.3565 129.49 58.7639L130.759 60.3093ZM132.542 58.082C133.019 57.1991 133.395 56.2307 133.675 55.1815L131.743 54.6662C131.499 55.5798 131.177 56.3999 130.782 57.1309L132.542 58.082ZM133.675 55.1815C133.948 54.1599 134.152 53.1365 134.289 52.1117L132.307 51.8473C132.181 52.7854 131.994 53.7249 131.743 54.6662L133.675 55.1815ZM134.286 52.1299C134.443 51.0986 134.545 50.1269 134.591 49.216L132.593 49.1161C132.552 49.95 132.457 50.8539 132.309 51.8291L134.286 52.1299ZM134.589 49.2408C134.656 48.3553 134.69 47.6084 134.69 47.0068H132.69C132.69 47.5394 132.659 48.2319 132.595 49.0912L134.589 49.2408ZM162.12 54.8911L163.091 55.1263L163.092 55.1227L162.12 54.8911ZM160.811 58.8823L159.888 58.4977L159.885 58.5055L160.811 58.8823ZM155.969 64.7383L155.48 63.8657L155.473 63.87L155.969 64.7383ZM148.641 64.9019L148.186 65.7925L148.194 65.7963L148.201 65.8001L148.641 64.9019ZM145.991 62.8735L145.237 63.5307L145.246 63.5403L145.991 62.8735ZM142.916 56.4614L141.943 56.6915L141.945 56.6998L141.947 56.7081L142.916 56.4614ZM142.294 52.8301L141.298 52.919L141.299 52.9278L141.3 52.9366L142.294 52.8301ZM142.981 41.6743L142.008 41.4461L142.005 41.4574L142.981 41.6743ZM144.257 37.6177L143.334 37.2331L143.331 37.2397L143.329 37.2463L144.257 37.6177ZM146.253 34.1499L145.467 33.5313L145.465 33.5336L146.253 34.1499ZM149.099 31.6963L149.588 32.5688L149.099 31.6963ZM156.427 31.5654L155.965 32.452L155.972 32.456L156.427 31.5654ZM159.077 33.6592L158.315 34.3068L158.32 34.3123L158.324 34.3177L159.077 33.6592ZM160.942 36.6689L160.021 37.0586L160.024 37.066L160.027 37.0735L160.942 36.6689ZM162.152 40.2021L161.182 40.4447L161.183 40.4488L162.152 40.2021ZM157.507 42.9502L156.516 43.0841L156.517 43.0972L156.52 43.1103L157.507 42.9502ZM156.165 38.3374L155.283 38.808L156.165 38.3374ZM154.857 36.7671L154.22 37.5381L154.238 37.553L154.257 37.5671L154.857 36.7671ZM150.866 36.9307L151.514 37.6919L151.516 37.6899L150.866 36.9307ZM149.328 38.8936L148.448 38.418L148.443 38.4273L148.438 38.4368L149.328 38.8936ZM148.314 41.6089L149.28 41.8666L149.281 41.8613L148.314 41.6089ZM147.692 44.5859L146.704 44.4355L146.702 44.4446L146.701 44.4538L147.692 44.5859ZM147.431 51.2598L146.432 51.3203L146.432 51.3221L147.431 51.2598ZM148.216 55.938L147.25 56.1989L147.255 56.2146L147.259 56.2302L148.216 55.938ZM149.099 58.0972L148.217 58.5678L149.099 58.0972ZM150.375 59.7002L149.738 60.4712L149.748 60.4796L149.759 60.4877L150.375 59.7002ZM154.268 59.5366L153.633 58.7639L153.626 58.7696L153.619 58.7754L154.268 59.5366ZM155.806 57.6064L154.926 57.1309L154.921 57.1397L155.806 57.6064ZM157.441 51.9795L156.453 51.8291L156.451 51.8382L156.45 51.8473L157.441 51.9795ZM157.736 49.166L156.739 49.0912L156.738 49.1036L156.737 49.1161L157.736 49.166ZM162.003 47.2031C162.003 48.2546 161.94 49.4318 161.811 50.7366L163.802 50.9324C163.935 49.5764 164.003 48.3326 164.003 47.2031H162.003ZM161.811 50.7366C161.685 52.0195 161.464 53.327 161.147 54.6595L163.092 55.1227C163.429 53.7072 163.666 52.3102 163.802 50.9324L161.811 50.7366ZM161.148 54.656C160.833 55.9562 160.413 57.2367 159.888 58.4977L161.734 59.2669C162.299 57.9108 162.752 56.5305 163.091 55.1263L161.148 54.656ZM159.885 58.5055C159.395 59.7094 158.778 60.7688 158.036 61.6906L159.595 62.9441C160.467 61.8594 161.18 60.6289 161.737 59.2591L159.885 58.5055ZM158.036 61.6906C157.307 62.5972 156.456 63.3196 155.481 63.8658L156.458 65.6108C157.663 64.9357 158.71 64.0441 159.595 62.9441L158.036 61.6906ZM155.473 63.87C154.579 64.3807 153.502 64.6543 152.207 64.6543V66.6543C153.791 66.6543 155.222 66.3172 156.465 65.6065L155.473 63.87ZM152.207 64.6543C150.979 64.6543 149.946 64.427 149.081 64.0036L148.201 65.8001C149.386 66.38 150.73 66.6543 152.207 66.6543V64.6543ZM149.096 64.0113C148.177 63.5419 147.393 62.9404 146.736 62.2067L145.246 63.5403C146.072 64.4642 147.055 65.215 148.186 65.7925L149.096 64.0113ZM146.745 62.2164C146.073 61.4454 145.503 60.5483 145.038 59.5181L143.215 60.3403C143.753 61.5347 144.426 62.6005 145.237 63.5307L146.745 62.2164ZM145.038 59.5181C144.561 58.4596 144.176 57.3587 143.885 56.2147L141.947 56.7081C142.266 57.9632 142.689 59.1742 143.215 60.3403L145.038 59.5181ZM143.889 56.2314C143.615 55.0724 143.415 53.9032 143.289 52.7235L141.3 52.9366C141.435 54.1997 141.65 55.4514 141.943 56.6915L143.889 56.2314ZM143.29 52.7411C143.184 51.5445 143.131 50.4404 143.131 49.4277H141.131C141.131 50.5088 141.187 51.6729 141.298 52.919L143.29 52.7411ZM143.131 49.4277C143.131 48.3761 143.194 47.1876 143.322 45.86L141.332 45.6673C141.198 47.0442 141.131 48.2984 141.131 49.4277H143.131ZM143.322 45.86C143.449 44.5498 143.661 43.2269 143.958 41.8912L142.005 41.4574C141.691 42.8698 141.467 44.2732 141.332 45.6673L143.322 45.86ZM143.955 41.9025C144.271 40.5546 144.681 39.2503 145.186 37.9891L143.329 37.2463C142.786 38.6022 142.346 40.0023 142.008 41.4461L143.955 41.9025ZM145.18 38.0023C145.695 36.7675 146.316 35.6912 147.04 34.7662L145.465 33.5336C144.619 34.6151 143.91 35.8507 143.334 37.2331L145.18 38.0023ZM147.039 34.7685C147.768 33.8422 148.617 33.1124 149.588 32.5688L148.61 30.8238C147.4 31.5015 146.352 32.4075 145.467 33.5313L147.039 34.7685ZM149.588 32.5688C150.505 32.0549 151.607 31.7803 152.927 31.7803V29.7803C151.323 29.7803 149.874 30.1163 148.61 30.8238L149.588 32.5688ZM152.927 31.7803C154.124 31.7803 155.127 32.0151 155.965 32.452L156.89 30.6788C155.721 30.0688 154.39 29.7803 152.927 29.7803V31.7803ZM155.972 32.456C156.881 32.9198 157.659 33.5354 158.315 34.3068L159.839 33.0115C159.012 32.0382 158.024 31.2579 156.882 30.6748L155.972 32.456ZM158.324 34.3177C159.013 35.1051 159.58 36.0164 160.021 37.0586L161.863 36.2793C161.344 35.0533 160.667 33.958 159.83 33.0007L158.324 34.3177ZM160.027 37.0735C160.505 38.1545 160.89 39.278 161.182 40.4447L163.122 39.9596C162.803 38.6836 162.381 37.4516 161.856 36.2644L160.027 37.0735ZM161.183 40.4488C161.477 41.6027 161.686 42.7663 161.812 43.94L163.801 43.727C163.665 42.458 163.438 41.2007 163.121 39.9555L161.183 40.4488ZM161.812 43.94C161.94 45.1327 162.003 46.2198 162.003 47.2031H164.003C164.003 46.1363 163.935 44.977 163.801 43.727L161.812 43.94ZM158.834 47.0068C158.834 46.5206 158.811 45.9096 158.767 45.1797L156.77 45.3007C156.813 46.0103 156.834 46.577 156.834 47.0068H158.834ZM158.767 45.1797C158.721 44.4226 158.629 43.6258 158.494 42.7901L156.52 43.1103C156.646 43.8885 156.729 44.6184 156.77 45.3007L158.767 45.1797ZM158.498 42.8163C158.383 41.9654 158.21 41.116 157.981 40.2684L156.051 40.7902C156.258 41.5565 156.413 42.3211 156.516 43.0841L158.498 42.8163ZM157.981 40.2684C157.746 39.3977 157.436 38.5954 157.048 37.8668L155.283 38.808C155.592 39.3879 155.85 40.047 156.051 40.7902L157.981 40.2684ZM157.048 37.8668C156.639 37.1006 156.112 36.4585 155.457 35.9671L154.257 37.5671C154.648 37.8608 154.994 38.2656 155.283 38.808L157.048 37.8668ZM155.494 35.9961C154.799 35.4225 153.97 35.1455 153.057 35.1455V37.1455C153.541 37.1455 153.911 37.2829 154.22 37.5381L155.494 35.9961ZM153.057 35.1455C151.983 35.1455 151.018 35.4832 150.215 36.1714L151.516 37.6899C151.935 37.3313 152.431 37.1455 153.057 37.1455V35.1455ZM150.217 36.1694C149.518 36.7646 148.933 37.5221 148.448 38.418L150.208 39.3691C150.596 38.651 151.035 38.1 151.514 37.6919L150.217 36.1694ZM148.438 38.4368C147.986 39.3173 147.624 40.2923 147.346 41.3565L149.281 41.8613C149.527 40.919 149.841 40.0838 150.218 39.3504L148.438 38.4368ZM147.348 41.3512C147.076 42.3679 146.862 43.3961 146.704 44.4355L148.681 44.7364C148.828 43.7693 149.028 42.8127 149.28 41.8665L147.348 41.3512ZM146.701 44.4538C146.567 45.459 146.477 46.4135 146.432 47.3168L148.429 47.4166C148.471 46.5751 148.556 45.6758 148.683 44.7181L146.701 44.4538ZM146.432 47.3168C146.388 48.1972 146.365 48.9244 146.365 49.4932H148.365C148.365 48.9714 148.386 48.281 148.429 47.4166L146.432 47.3168ZM146.365 49.4932C146.365 49.9794 146.388 50.5904 146.432 51.3203L148.429 51.1993C148.386 50.4897 148.365 49.923 148.365 49.4932H146.365ZM146.432 51.3221C146.478 52.0577 146.57 52.8431 146.705 53.6772L148.679 53.357C148.553 52.5772 148.47 51.8577 148.429 51.1974L146.432 51.3221ZM146.705 53.6772C146.842 54.5188 147.023 55.3595 147.25 56.1989L149.181 55.6771C148.972 54.9026 148.805 54.1293 148.679 53.357L146.705 53.6772ZM147.259 56.2302C147.516 57.0706 147.834 57.8508 148.217 58.5678L149.981 57.6266C149.666 57.0349 149.395 56.3757 149.172 55.6458L147.259 56.2302ZM148.217 58.5678C148.619 59.3213 149.123 59.9628 149.738 60.4712L151.012 58.9292C150.624 58.6088 150.277 58.1817 149.981 57.6266L148.217 58.5678ZM149.759 60.4877C150.447 61.0268 151.257 61.2891 152.141 61.2891V59.2891C151.674 59.2891 151.306 59.1588 150.991 58.9127L149.759 60.4877ZM152.141 61.2891C153.19 61.2891 154.133 60.9651 154.916 60.2979L153.619 58.7754C153.225 59.1114 152.751 59.2891 152.141 59.2891V61.2891ZM154.903 60.3093C155.628 59.7135 156.221 58.9614 156.69 58.0732L154.921 57.1397C154.561 57.8218 154.129 58.3565 153.633 58.7639L154.903 60.3093ZM156.685 58.082C157.162 57.1991 157.539 56.2307 157.819 55.1815L155.886 54.6662C155.643 55.5798 155.321 56.3999 154.926 57.1309L156.685 58.082ZM157.819 55.1815C158.091 54.1599 158.296 53.1365 158.433 52.1117L156.45 51.8473C156.325 52.7854 156.137 53.7249 155.886 54.6662L157.819 55.1815ZM158.43 52.1299C158.587 51.0986 158.689 50.1269 158.734 49.216L156.737 49.1161C156.695 49.95 156.601 50.8539 156.453 51.8291L158.43 52.1299ZM158.733 49.2408C158.799 48.3553 158.834 47.6084 158.834 47.0068H156.834C156.834 47.5394 156.803 48.2319 156.739 49.0912L158.733 49.2408ZM191.497 65.0654L191.527 66.065L192.497 66.036V65.0654H191.497ZM182.73 65.3271L181.737 65.447L181.847 66.354L182.76 66.3267L182.73 65.3271ZM182.272 61.5322L183.265 61.4124L182.92 58.5544L181.419 61.0108L182.272 61.5322ZM172.032 64.4766L171.523 65.3375L171.532 65.3424L172.032 64.4766ZM169.546 62.2192L168.735 62.804L168.739 62.8102L168.744 62.8162L169.546 62.2192ZM167.877 59.0132L166.932 59.3397L166.935 59.3473L166.938 59.3549L167.877 59.0132ZM166.896 55.3164L165.91 55.4863L165.912 55.4945L165.913 55.5027L166.896 55.3164ZM166.503 44.8804L167.498 44.9851L167.498 44.9833L166.503 44.8804ZM167.158 41.0527L166.188 40.8063L166.186 40.8141L166.185 40.8219L167.158 41.0527ZM168.401 37.2905L167.482 36.8966L167.479 36.9036L167.476 36.9106L168.401 37.2905ZM170.298 34.019L169.516 33.3965L169.507 33.4076L170.298 34.019ZM172.981 31.729L173.465 32.604L173.472 32.6001L173.479 32.5961L172.981 31.729ZM179.426 31.6636L178.914 32.5229L178.926 32.53L178.938 32.5368L179.426 31.6636ZM181.618 33.7246L180.766 34.2487L182.618 37.2577V33.7246H181.618ZM181.618 23.0596H182.618V22.0596H181.618V23.0596ZM175.729 23.0596H174.729V24.0596H175.729V23.0596ZM175.729 17.4326L175.745 16.4328L174.729 16.4161V17.4326H175.729ZM187.703 17.6289L188.702 17.6413L188.715 16.6454L187.719 16.629L187.703 17.6289ZM187.179 59.7656L186.179 59.7532L186.166 60.7968L187.209 60.7652L187.179 59.7656ZM191.497 59.6348H192.497V58.604L191.467 58.6352L191.497 59.6348ZM181.421 40.9219L182.421 40.9313L182.423 40.7642L182.37 40.6056L181.421 40.9219ZM180.865 39.6133L181.76 39.1661L180.865 39.6133ZM179.982 38.272L179.182 38.872L179.199 38.8945L179.217 38.9161L179.982 38.272ZM178.837 37.1924L178.244 37.9974L178.267 38.0148L178.292 38.0308L178.837 37.1924ZM175.598 37.356L174.993 36.5598L174.985 36.5658L174.977 36.5719L175.598 37.356ZM173.308 41.1836L172.354 40.8825L172.352 40.8905L172.349 40.8986L173.308 41.1836ZM172.752 43.6372L173.739 43.7973L173.74 43.7932L172.752 43.6372ZM172.457 45.96L171.461 45.8721L171.46 45.8858L171.459 45.8995L172.457 45.96ZM172.49 52.0122L171.493 52.087L171.493 52.0889L172.49 52.0122ZM172.817 54.6294L171.832 54.7977L171.834 54.8116L171.837 54.8255L172.817 54.6294ZM174.715 58.7842L174.024 59.5075L174.033 59.5159L174.042 59.5241L174.715 58.7842ZM178.084 58.9805L178.604 59.8347L178.618 59.8266L178.631 59.8181L178.084 58.9805ZM179.458 57.8027L180.2 58.4736L180.208 58.4651L180.215 58.4564L179.458 57.8027ZM180.538 56.2979L179.69 55.7679L179.682 55.7808L179.674 55.794L180.538 56.2979ZM181.29 54.8584L182.219 55.2298L182.289 55.0555L182.29 54.8678L181.29 54.8584ZM191.468 64.0659L182.7 64.3276L182.76 66.3267L191.527 66.065L191.468 64.0659ZM183.723 65.2073L183.265 61.4124L181.279 61.652L181.737 65.447L183.723 65.2073ZM181.419 61.0108C180.788 62.0433 179.952 62.8497 178.902 63.4418L179.884 65.1841C181.232 64.4241 182.317 63.3766 183.125 62.0537L181.419 61.0108ZM178.902 63.4418C177.852 64.0337 176.734 64.3271 175.533 64.3271V66.3271C177.079 66.3271 178.535 65.9445 179.884 65.1841L178.902 63.4418ZM175.533 64.3271C174.322 64.3271 173.335 64.0743 172.532 63.6107L171.532 65.3424C172.692 66.0129 174.039 66.3271 175.533 66.3271V64.3271ZM172.541 63.6156C171.701 63.1195 170.971 62.4587 170.348 61.6222L168.744 62.8162C169.517 63.8554 170.444 64.6996 171.523 65.3375L172.541 63.6156ZM170.357 61.6344C169.74 60.7786 169.225 59.7933 168.817 58.6714L166.938 59.3549C167.402 60.6321 167.999 61.7842 168.735 62.804L170.357 61.6344ZM168.823 58.6867C168.424 57.5335 168.109 56.3482 167.878 55.1301L165.913 55.5027C166.162 56.8146 166.502 58.0937 166.932 59.3397L168.823 58.6867ZM167.881 55.1465C167.669 53.9126 167.52 52.7024 167.435 51.5157L165.44 51.6582C165.53 52.9141 165.687 54.1902 165.91 55.4863L167.881 55.1465ZM167.435 51.5157C167.349 50.3131 167.307 49.225 167.307 48.25H165.307C165.307 49.2815 165.352 50.418 165.44 51.6582L167.435 51.5157ZM167.307 48.25C167.307 47.289 167.37 46.2015 167.498 44.9851L165.509 44.7757C165.375 46.0456 165.307 47.2045 165.307 48.25H167.307ZM167.498 44.9833C167.624 43.7631 167.835 42.5299 168.131 41.2836L166.185 40.8219C165.87 42.1491 165.644 43.4677 165.509 44.7775L167.498 44.9833ZM168.127 41.2991C168.442 40.0576 168.842 38.8481 169.326 37.6704L167.476 36.9106C166.956 38.1756 166.527 39.4743 166.188 40.8063L168.127 41.2991ZM169.32 37.6844C169.813 36.5334 170.404 35.5173 171.09 34.6305L169.507 33.4076C168.709 34.4401 168.035 35.605 167.482 36.8966L169.32 37.6844ZM171.081 34.6416C171.766 33.78 172.56 33.1044 173.465 32.604L172.497 30.854C171.351 31.4877 170.357 32.3388 169.516 33.3965L171.081 34.6416ZM173.479 32.5961C174.334 32.1048 175.336 31.8457 176.514 31.8457V29.8457C175.031 29.8457 173.678 30.1755 172.483 30.8619L173.479 32.5961ZM176.514 31.8457C177.352 31.8457 178.146 32.0659 178.914 32.5229L179.937 30.8043C178.873 30.1708 177.727 29.8457 176.514 29.8457V31.8457ZM178.938 32.5368C179.738 32.9834 180.339 33.5546 180.766 34.2487L182.469 33.2005C181.849 32.1934 180.989 31.3907 179.913 30.7904L178.938 32.5368ZM182.618 33.7246V23.0596H180.618V33.7246H182.618ZM181.618 22.0596H175.729V24.0596H181.618V22.0596ZM176.729 23.0596V17.4326H174.729V23.0596H176.729ZM175.712 18.4325L187.686 18.6288L187.719 16.629L175.745 16.4328L175.712 18.4325ZM186.703 17.6165L186.179 59.7532L188.179 59.778L188.702 17.6413L186.703 17.6165ZM187.209 60.7652L191.528 60.6343L191.467 58.6352L187.149 58.7661L187.209 60.7652ZM190.497 59.6348V65.0654H192.497V59.6348H190.497ZM182.37 40.6056C182.22 40.1573 182.015 39.6765 181.76 39.1661L179.971 40.0605C180.195 40.5097 180.36 40.9013 180.473 41.2381L182.37 40.6056ZM181.76 39.1661C181.484 38.615 181.146 38.1019 180.747 37.6278L179.217 38.9161C179.516 39.2708 179.766 39.6519 179.971 40.0605L181.76 39.1661ZM180.782 37.672C180.388 37.1465 179.921 36.7044 179.382 36.3539L178.292 38.0308C178.625 38.2474 178.922 38.525 179.182 38.872L180.782 37.672ZM179.43 36.3873C178.857 35.9651 178.205 35.7344 177.495 35.7344V37.7344C177.746 37.7344 177.988 37.809 178.244 37.9974L179.43 36.3873ZM177.495 35.7344C176.569 35.7344 175.721 36.0061 174.993 36.5598L176.203 38.1521C176.565 37.877 176.982 37.7344 177.495 37.7344V35.7344ZM174.977 36.5719C174.341 37.0758 173.813 37.7136 173.387 38.466L175.127 39.452C175.442 38.8957 175.808 38.4649 176.219 38.14L174.977 36.5719ZM173.387 38.466C172.977 39.1897 172.634 39.997 172.354 40.8825L174.262 41.4847C174.505 40.7126 174.795 40.0369 175.127 39.452L173.387 38.466ZM172.349 40.8986C172.097 41.7478 171.902 42.6087 171.764 43.4812L173.74 43.7932C173.864 43.0081 174.039 42.2334 174.267 41.4686L172.349 40.8986ZM171.765 43.4771C171.63 44.3057 171.529 45.1042 171.461 45.8721L173.454 46.0479C173.517 45.3327 173.612 44.5826 173.739 43.7973L171.765 43.4771ZM171.459 45.8995C171.415 46.6315 171.392 47.2636 171.392 47.792H173.392C173.392 47.3171 173.413 46.7279 173.456 46.0205L171.459 45.8995ZM171.392 47.792C171.392 47.7929 171.392 47.7938 171.392 47.7947C171.392 47.7956 171.392 47.7965 171.392 47.7974C171.392 47.7983 171.392 47.7992 171.392 47.8001C171.392 47.801 171.392 47.8019 171.392 47.8028C171.392 47.8037 171.392 47.8046 171.392 47.8055C171.392 47.8064 171.392 47.8073 171.392 47.8082C171.392 47.8091 171.392 47.81 171.392 47.8109C171.392 47.8118 171.392 47.8127 171.392 47.8136C171.392 47.8145 171.392 47.8154 171.392 47.8163C171.392 47.8172 171.392 47.8181 171.392 47.819C171.392 47.8199 171.392 47.8208 171.392 47.8217C171.392 47.8226 171.392 47.8235 171.392 47.8244C171.392 47.8253 171.392 47.8262 171.392 47.8272C171.392 47.8281 171.392 47.829 171.392 47.8299C171.392 47.8308 171.392 47.8317 171.392 47.8326C171.392 47.8335 171.392 47.8344 171.392 47.8353C171.392 47.8363 171.392 47.8372 171.392 47.8381C171.392 47.839 171.392 47.8399 171.392 47.8408C171.392 47.8417 171.392 47.8427 171.392 47.8436C171.392 47.8445 171.392 47.8454 171.392 47.8463C171.392 47.8472 171.392 47.8481 171.392 47.8491C171.392 47.85 171.392 47.8509 171.392 47.8518C171.392 47.8527 171.392 47.8537 171.392 47.8546C171.392 47.8555 171.392 47.8564 171.392 47.8573C171.392 47.8583 171.392 47.8592 171.392 47.8601C171.392 47.861 171.392 47.8619 171.392 47.8629C171.392 47.8638 171.392 47.8647 171.392 47.8656C171.392 47.8666 171.392 47.8675 171.392 47.8684C171.392 47.8693 171.392 47.8703 171.392 47.8712C171.392 47.8721 171.392 47.873 171.392 47.874C171.392 47.8749 171.392 47.8758 171.392 47.8767C171.392 47.8777 171.392 47.8786 171.392 47.8795C171.392 47.8805 171.392 47.8814 171.392 47.8823C171.392 47.8832 171.392 47.8842 171.392 47.8851C171.392 47.886 171.392 47.887 171.392 47.8879C171.392 47.8888 171.392 47.8898 171.392 47.8907C171.392 47.8916 171.392 47.8926 171.392 47.8935C171.392 47.8944 171.392 47.8954 171.392 47.8963C171.392 47.8972 171.392 47.8982 171.392 47.8991C171.392 47.9001 171.392 47.901 171.392 47.9019C171.392 47.9029 171.392 47.9038 171.392 47.9047C171.392 47.9057 171.392 47.9066 171.392 47.9076C171.392 47.9085 171.392 47.9094 171.392 47.9104C171.392 47.9113 171.392 47.9123 171.392 47.9132C171.392 47.9142 171.392 47.9151 171.392 47.916C171.392 47.917 171.392 47.9179 171.392 47.9189C171.392 47.9198 171.392 47.9208 171.392 47.9217C171.392 47.9227 171.392 47.9236 171.392 47.9245C171.392 47.9255 171.392 47.9264 171.392 47.9274C171.392 47.9283 171.392 47.9293 171.392 47.9302C171.392 47.9312 171.392 47.9321 171.392 47.9331C171.392 47.934 171.392 47.935 171.392 47.9359C171.392 47.9369 171.392 47.9378 171.392 47.9388C171.392 47.9397 171.392 47.9407 171.392 47.9416C171.392 47.9426 171.392 47.9435 171.392 47.9445C171.392 47.9455 171.392 47.9464 171.392 47.9474C171.392 47.9483 171.392 47.9493 171.392 47.9502C171.392 47.9512 171.392 47.9521 171.392 47.9531C171.392 47.9541 171.392 47.955 171.392 47.956C171.392 47.9569 171.392 47.9579 171.392 47.9589C171.392 47.9598 171.392 47.9608 171.392 47.9617C171.392 47.9627 171.392 47.9637 171.392 47.9646C171.392 47.9656 171.392 47.9665 171.392 47.9675C171.392 47.9685 171.392 47.9694 171.392 47.9704C171.392 47.9714 171.392 47.9723 171.392 47.9733C171.392 47.9742 171.392 47.9752 171.392 47.9762C171.392 47.9771 171.392 47.9781 171.392 47.9791C171.392 47.98 171.392 47.981 171.392 47.982C171.392 47.9829 171.392 47.9839 171.392 47.9849C171.392 47.9859 171.392 47.9868 171.392 47.9878C171.392 47.9888 171.392 47.9897 171.392 47.9907C171.392 47.9917 171.392 47.9927 171.392 47.9936C171.392 47.9946 171.392 47.9956 171.392 47.9965C171.392 47.9975 171.392 47.9985 171.392 47.9995C171.392 48.0004 171.392 48.0014 171.392 48.0024C171.392 48.0034 171.392 48.0043 171.392 48.0053C171.392 48.0063 171.392 48.0073 171.392 48.0083C171.392 48.0092 171.392 48.0102 171.392 48.0112C171.392 48.0122 171.392 48.0131 171.392 48.0141C171.392 48.0151 171.392 48.0161 171.392 48.0171C171.392 48.018 171.392 48.019 171.392 48.02C171.392 48.021 171.392 48.022 171.392 48.023C171.392 48.0239 171.392 48.0249 171.392 48.0259C171.392 48.0269 171.392 48.0279 171.392 48.0289C171.392 48.0299 171.392 48.0308 171.392 48.0318C171.392 48.0328 171.392 48.0338 171.392 48.0348C171.392 48.0358 171.392 48.0368 171.392 48.0377C171.392 48.0387 171.392 48.0397 171.392 48.0407C171.392 48.0417 171.392 48.0427 171.392 48.0437C171.392 48.0447 171.392 48.0457 171.392 48.0467C171.392 48.0477 171.392 48.0486 171.392 48.0496C171.392 48.0506 171.392 48.0516 171.392 48.0526C171.392 48.0536 171.392 48.0546 171.392 48.0556C171.392 48.0566 171.392 48.0576 171.392 48.0586C171.392 48.0596 171.392 48.0606 171.392 48.0616C171.392 48.0626 171.392 48.0636 171.392 48.0646C171.392 48.0656 171.392 48.0666 171.392 48.0676C171.392 48.0686 171.392 48.0696 171.392 48.0706C171.392 48.0716 171.392 48.0726 171.392 48.0736C171.392 48.0746 171.392 48.0756 171.392 48.0766C171.392 48.0776 171.392 48.0786 171.392 48.0796C171.392 48.0806 171.392 48.0816 171.392 48.0826C171.392 48.0836 171.392 48.0846 171.392 48.0856C171.392 48.0866 171.392 48.0876 171.392 48.0886C171.392 48.0896 171.392 48.0907 171.392 48.0917C171.392 48.0927 171.392 48.0937 171.392 48.0947C171.392 48.0957 171.392 48.0967 171.392 48.0977C171.392 48.0987 171.392 48.0997 171.392 48.1007C171.392 48.1018 171.392 48.1028 171.392 48.1038C171.392 48.1048 171.392 48.1058 171.392 48.1068C171.392 48.1078 171.392 48.1089 171.392 48.1099C171.392 48.1109 171.392 48.1119 171.392 48.1129C171.392 48.1139 171.392 48.1149 171.392 48.116C171.392 48.117 171.392 48.118 171.392 48.119C171.392 48.12 171.392 48.121 171.392 48.1221C171.392 48.1231 171.392 48.1241 171.392 48.1251C171.392 48.1261 171.392 48.1272 171.392 48.1282C171.392 48.1292 171.392 48.1302 171.392 48.1313C171.392 48.1323 171.392 48.1333 171.392 48.1343C171.392 48.1353 171.392 48.1364 171.392 48.1374C171.392 48.1384 171.392 48.1394 171.392 48.1405C171.392 48.1415 171.392 48.1425 171.392 48.1435C171.392 48.1446 171.392 48.1456 171.392 48.1466C171.392 48.1477 171.392 48.1487 171.392 48.1497C171.392 48.1507 171.392 48.1518 171.392 48.1528C171.392 48.1538 171.392 48.1549 171.392 48.1559C171.392 48.1569 171.392 48.1579 171.392 48.159C171.392 48.16 171.392 48.161 171.392 48.1621C171.392 48.1631 171.392 48.1641 171.392 48.1652C171.392 48.1662 171.392 48.1672 171.392 48.1683C171.392 48.1693 171.392 48.1704 171.392 48.1714C171.392 48.1724 171.392 48.1735 171.392 48.1745C171.392 48.1755 171.392 48.1766 171.392 48.1776C171.392 48.1787 171.392 48.1797 171.392 48.1807C171.392 48.1818 171.392 48.1828 171.392 48.1839C171.392 48.1849 171.392 48.1859 171.392 48.187C171.392 48.188 171.392 48.1891 171.392 48.1901C171.392 48.1911 171.392 48.1922 171.392 48.1932C171.392 48.1943 171.392 48.1953 171.392 48.1964C171.392 48.1974 171.392 48.1985 171.392 48.1995C171.392 48.2005 171.392 48.2016 171.392 48.2026C171.392 48.2037 171.392 48.2047 171.392 48.2058C171.392 48.2068 171.392 48.2079 171.392 48.2089C171.392 48.21 171.392 48.211 171.392 48.2121C171.392 48.2131 171.392 48.2142 171.392 48.2152C171.392 48.2163 171.392 48.2173 171.392 48.2184C171.392 48.2194 171.392 48.2205 171.392 48.2215C171.392 48.2226 171.392 48.2237 171.392 48.2247C171.392 48.2258 171.392 48.2268 171.392 48.2279C171.392 48.2289 171.392 48.23 171.392 48.231C171.392 48.2321 171.392 48.2332 171.392 48.2342C171.392 48.2353 171.392 48.2363 171.392 48.2374C171.392 48.2384 171.392 48.2395 171.392 48.2406C171.392 48.2416 171.392 48.2427 171.392 48.2437C171.392 48.2448 171.392 48.2459 171.392 48.2469C171.392 48.248 171.392 48.2491 171.392 48.2501C171.392 48.2512 171.392 48.2522 171.392 48.2533C171.392 48.2544 171.392 48.2554 171.392 48.2565C171.392 48.2576 171.392 48.2586 171.392 48.2597C171.392 48.2608 171.392 48.2618 171.392 48.2629C171.392 48.264 171.392 48.265 171.392 48.2661C171.392 48.2672 171.392 48.2682 171.392 48.2693C171.392 48.2704 171.392 48.2715 171.392 48.2725C171.392 48.2736 171.392 48.2747 171.392 48.2757C171.392 48.2768 171.392 48.2779 171.392 48.279C171.392 48.28 171.392 48.2811 171.392 48.2822C171.392 48.2833 171.392 48.2843 171.392 48.2854C171.392 48.2865 171.392 48.2876 171.392 48.2886C171.392 48.2897 171.392 48.2908 171.392 48.2919C171.392 48.2929 171.392 48.294 171.392 48.2951C171.392 48.2962 171.392 48.2973 171.392 48.2983C171.392 48.2994 171.392 48.3005 171.392 48.3016C171.392 48.3027 171.392 48.3037 171.392 48.3048C171.392 48.3059 171.392 48.307 171.392 48.3081C171.392 48.3091 171.392 48.3102 171.392 48.3113C171.392 48.3124 171.392 48.3135 171.392 48.3146C171.392 48.3157 171.392 48.3167 171.392 48.3178C171.392 48.3189 171.392 48.32 171.392 48.3211C171.392 48.3222 171.392 48.3233 171.392 48.3243C171.392 48.3254 171.392 48.3265 171.392 48.3276C171.392 48.3287 171.392 48.3298 171.392 48.3309C171.392 48.332 171.392 48.3331 171.392 48.3342C171.392 48.3352 171.392 48.3363 171.392 48.3374C171.392 48.3385 171.392 48.3396 171.392 48.3407C171.392 48.3418 171.392 48.3429 171.392 48.344C171.392 48.3451 171.392 48.3462 171.392 48.3473C171.392 48.3484 171.392 48.3495 171.392 48.3506C171.392 48.3517 171.392 48.3528 171.392 48.3539C171.392 48.355 171.392 48.3561 171.392 48.3572C171.392 48.3583 171.392 48.3594 171.392 48.3605C171.392 48.3616 171.392 48.3627 171.392 48.3638C171.392 48.3649 171.392 48.366 171.392 48.3671C171.392 48.3682 171.392 48.3693 171.392 48.3704C171.392 48.3715 171.392 48.3726 171.392 48.3737C171.392 48.3748 171.392 48.3759 171.392 48.377C171.392 48.3781 171.392 48.3792 171.392 48.3803C171.392 48.3814 171.392 48.3825 171.392 48.3836C171.392 48.3847 171.392 48.3858 171.392 48.387C171.392 48.3881 171.392 48.3892 171.392 48.3903C171.392 48.3914 171.392 48.3925 171.392 48.3936C171.392 48.3947 171.392 48.3958 171.392 48.3969C171.392 48.3981 171.392 48.3992 171.392 48.4003C171.392 48.4014 171.392 48.4025 171.392 48.4036C171.392 48.4047 171.392 48.4059 171.392 48.407C171.392 48.4081 171.392 48.4092 171.392 48.4103C171.392 48.4114 171.392 48.4126 171.392 48.4137C171.392 48.4148 171.392 48.4159 171.392 48.417C171.392 48.4181 171.392 48.4193 171.392 48.4204C171.392 48.4215 171.392 48.4226 171.392 48.4237C171.392 48.4249 171.392 48.426 171.392 48.4271C171.392 48.4282 171.392 48.4293 171.392 48.4305C171.392 48.4316 171.392 48.4327 171.392 48.4338C171.392 48.435 171.392 48.4361 171.392 48.4372C171.392 48.4383 171.392 48.4395 171.392 48.4406C171.392 48.4417 171.392 48.4428 171.392 48.444C171.392 48.4451 171.392 48.4462 171.392 48.4474C171.392 48.4485 171.392 48.4496 171.392 48.4507C171.392 48.4519 171.392 48.453 171.392 48.4541C171.392 48.4553 171.392 48.4564 171.392 48.4575C171.392 48.4587 171.392 48.4598 171.392 48.4609C171.392 48.462 171.392 48.4632 171.392 48.4643C171.392 48.4654 171.392 48.4666 171.392 48.4677C171.392 48.4689 171.392 48.47 171.392 48.4711C171.392 48.4723 171.392 48.4734 171.392 48.4745C171.392 48.4757 171.392 48.4768 171.392 48.4779C171.392 48.4791 171.392 48.4802 171.392 48.4814C171.392 48.4825 171.392 48.4836 171.392 48.4848C171.392 48.4859 171.392 48.4871 171.392 48.4882C171.392 48.4893 171.392 48.4905 171.392 48.4916C171.392 48.4928 171.392 48.4939 171.392 48.4951C171.392 48.4962 171.392 48.4973 171.392 48.4985C171.392 48.4996 171.392 48.5008 171.392 48.5019C171.392 48.5031 171.392 48.5042 171.392 48.5054C171.392 48.5065 171.392 48.5077 171.392 48.5088C171.392 48.5099 171.392 48.5111 171.392 48.5122C171.392 48.5134 171.392 48.5145 171.392 48.5157C171.392 48.5168 171.392 48.518 171.392 48.5191C171.392 48.5203 171.392 48.5214 171.392 48.5226C171.392 48.5237 171.392 48.5249 171.392 48.5261C171.392 48.5272 171.392 48.5284 171.392 48.5295C171.392 48.5307 171.392 48.5318 171.392 48.533C171.392 48.5341 171.392 48.5353 171.392 48.5364C171.392 48.5376 171.392 48.5388 171.392 48.5399C171.392 48.5411 171.392 48.5422 171.392 48.5434C171.392 48.5445 171.392 48.5457 171.392 48.5469C171.392 48.548 171.392 48.5492 171.392 48.5503C171.392 48.5515 171.392 48.5527 171.392 48.5538C171.392 48.555 171.392 48.5562 171.392 48.5573C171.392 48.5585 171.392 48.5596 171.392 48.5608C171.392 48.562 171.392 48.5631 171.392 48.5643C171.392 48.5655 171.392 48.5666 171.392 48.5678C171.392 48.569 171.392 48.5701 171.392 48.5713C171.392 48.5725 171.392 48.5736 171.392 48.5748C171.392 48.576 171.392 48.5771 171.392 48.5783C171.392 48.5795 171.392 48.5806 171.392 48.5818C171.392 48.583 171.392 48.5842 171.392 48.5853C171.392 48.5865 171.392 48.5877 171.392 48.5888C171.392 48.59 171.392 48.5912 171.392 48.5924C171.392 48.5935 171.392 48.5947 171.392 48.5959C171.392 48.5971 171.392 48.5982 171.392 48.5994C171.392 48.6006 171.392 48.6018 171.392 48.6029C171.392 48.6041 171.392 48.6053 171.392 48.6065C171.392 48.6076 171.392 48.6088 171.392 48.61C171.392 48.6112 171.392 48.6124 171.392 48.6135C171.392 48.6147 171.392 48.6159 171.392 48.6171C171.392 48.6183 171.392 48.6195 171.392 48.6206C171.392 48.6218 171.392 48.623 171.392 48.6242C171.392 48.6254 171.392 48.6265 171.392 48.6277C171.392 48.6289 171.392 48.6301 171.392 48.6313C171.392 48.6325 171.392 48.6337 171.392 48.6348C171.392 48.636 171.392 48.6372 171.392 48.6384C171.392 48.6396 171.392 48.6408 171.392 48.642C171.392 48.6432 171.392 48.6443 171.392 48.6455C171.392 48.6467 171.392 48.6479 171.392 48.6491C171.392 48.6503 171.392 48.6515 171.392 48.6527C171.392 48.6539 171.392 48.6551 171.392 48.6563C171.392 48.6575 171.392 48.6586 171.392 48.6598C171.392 48.661 171.392 48.6622 171.392 48.6634C171.392 48.6646 171.392 48.6658 171.392 48.667C171.392 48.6682 171.392 48.6694 171.392 48.6706C171.392 48.6718 171.392 48.673 171.392 48.6742C171.392 48.6754 171.392 48.6766 171.392 48.6778C171.392 48.679 171.392 48.6802 171.392 48.6814C171.392 48.6826 171.392 48.6838 171.392 48.685C171.392 48.6862 171.392 48.6874 171.392 48.6886C171.392 48.6898 171.392 48.691 171.392 48.6922C171.392 48.6934 171.392 48.6946 171.392 48.6958C171.392 48.697 171.392 48.6982 171.392 48.6994C171.392 48.7007 171.392 48.7019 171.392 48.7031C171.392 48.7043 171.392 48.7055 171.392 48.7067C171.392 48.7079 171.392 48.7091 171.392 48.7103C171.392 48.7115 171.392 48.7127 171.392 48.7139C171.392 48.7152 171.392 48.7164 171.392 48.7176C171.392 48.7188 171.392 48.72 171.392 48.7212C171.392 48.7224 171.392 48.7236 171.392 48.7249C171.392 48.7261 171.392 48.7273 171.392 48.7285C171.392 48.7297 171.392 48.7309 171.392 48.7321C171.392 48.7334 171.392 48.7346 171.392 48.7358C171.392 48.737 171.392 48.7382 171.392 48.7394C171.392 48.7407 171.392 48.7419 171.392 48.7431C171.392 48.7443 171.392 48.7455 171.392 48.7468C171.392 48.748 171.392 48.7492 171.392 48.7504C171.392 48.7516 171.392 48.7529 171.392 48.7541C171.392 48.7553 171.392 48.7565 171.392 48.7578C171.392 48.759 171.392 48.7602 171.392 48.7614C171.392 48.7626 171.392 48.7639 171.392 48.7651C171.392 48.7663 171.392 48.7675 171.392 48.7688C171.392 48.77 171.392 48.7712 171.392 48.7725C171.392 48.7737 171.392 48.7749 171.392 48.7761C171.392 48.7774 171.392 48.7786 171.392 48.7798C171.392 48.7811 171.392 48.7823 171.392 48.7835C171.392 48.7848 171.392 48.786 171.392 48.7872C171.392 48.7884 171.392 48.7897 171.392 48.7909C171.392 48.7921 171.392 48.7934 171.392 48.7946C171.392 48.7958 171.392 48.7971 171.392 48.7983C171.392 48.7996 171.392 48.8008 171.392 48.802C171.392 48.8033 171.392 48.8045 171.392 48.8057C171.392 48.807 171.392 48.8082 171.392 48.8094C171.392 48.8107 171.392 48.8119 171.392 48.8132C171.392 48.8144 171.392 48.8156 171.392 48.8169C171.392 48.8181 171.392 48.8194 171.392 48.8206C171.392 48.8219 171.392 48.8231 171.392 48.8243C171.392 48.8256 171.392 48.8268 171.392 48.8281C171.392 48.8293 171.392 48.8306 171.392 48.8318C171.392 48.833 171.392 48.8343 171.392 48.8355C171.392 48.8368 171.392 48.838 171.392 48.8393C171.392 48.8405 171.392 48.8418 171.392 48.843C171.392 48.8443 171.392 48.8455 171.392 48.8468C171.392 48.848 171.392 48.8493 171.392 48.8505C171.392 48.8518 171.392 48.853 171.392 48.8543C171.392 48.8555 171.392 48.8568 171.392 48.858C171.392 48.8593 171.392 48.8605 171.392 48.8618C171.392 48.863 171.392 48.8643 171.392 48.8655C171.392 48.8668 171.392 48.8681 171.392 48.8693C171.392 48.8706 171.392 48.8718 171.392 48.8731C171.392 48.8743 171.392 48.8756 171.392 48.8769C171.392 48.8781 171.392 48.8794 171.392 48.8806C171.392 48.8819 171.392 48.8831 171.392 48.8844C171.392 48.8857 171.392 48.8869 171.392 48.8882C171.392 48.8895 171.392 48.8907 171.392 48.892C171.392 48.8932 171.392 48.8945 171.392 48.8958C171.392 48.897 171.392 48.8983 171.392 48.8996C171.392 48.9008 171.392 48.9021 171.392 48.9034C171.392 48.9046 171.392 48.9059 171.392 48.9071C171.392 48.9084 171.392 48.9097 171.392 48.9109C171.392 48.9122 171.392 48.9135 171.392 48.9148C171.392 48.916 171.392 48.9173 171.392 48.9186C171.392 48.9198 171.392 48.9211 171.392 48.9224C171.392 48.9236 171.392 48.9249 171.392 48.9262C171.392 48.9275 171.392 48.9287 171.392 48.93C171.392 48.9313 171.392 48.9326 171.392 48.9338C171.392 48.9351 171.392 48.9364 171.392 48.9377C171.392 48.9389 171.392 48.9402 171.392 48.9415C171.392 48.9428 171.392 48.944 171.392 48.9453C171.392 48.9466 171.392 48.9479 171.392 48.9491C171.392 48.9504 171.392 48.9517 171.392 48.953C171.392 48.9543 171.392 48.9555 171.392 48.9568C171.392 48.9581 171.392 48.9594 171.392 48.9607C171.392 48.9619 171.392 48.9632 171.392 48.9645C171.392 48.9658 171.392 48.9671 171.392 48.9684C171.392 48.9696 171.392 48.9709 171.392 48.9722C171.392 48.9735 171.392 48.9748 171.392 48.9761C171.392 48.9774 171.392 48.9786 171.392 48.9799C171.392 48.9812 171.392 48.9825 171.392 48.9838C171.392 48.9851 171.392 48.9864 171.392 48.9877C171.392 48.9889 171.392 48.9902 171.392 48.9915C171.392 48.9928 171.392 48.9941 171.392 48.9954C171.392 48.9967 171.392 48.998 171.392 48.9993C171.392 49.0006 171.392 49.0019 171.392 49.0032C171.392 49.0045 171.392 49.0057 171.392 49.007C171.392 49.0083 171.392 49.0096 171.392 49.0109C171.392 49.0122 171.392 49.0135 171.392 49.0148C171.392 49.0161 171.392 49.0174 171.392 49.0187C171.392 49.02 171.392 49.0213 171.392 49.0226C171.392 49.0239 171.392 49.0252 171.392 49.0265C171.392 49.0278 171.392 49.0291 171.392 49.0304C171.392 49.0317 171.392 49.033 171.392 49.0343C171.392 49.0356 171.392 49.0369 171.392 49.0382C171.392 49.0395 171.392 49.0408 171.392 49.0421C171.392 49.0434 171.392 49.0447 171.392 49.046C171.392 49.0474 171.392 49.0487 171.392 49.05C171.392 49.0513 171.392 49.0526 171.392 49.0539C171.392 49.0552 171.392 49.0565 171.392 49.0578C171.392 49.0591 171.392 49.0604 171.392 49.0617C171.392 49.063 171.392 49.0644 171.392 49.0657C171.392 49.067 171.392 49.0683 171.392 49.0696C171.392 49.0709 171.392 49.0722 171.392 49.0735C171.392 49.0749 171.392 49.0762 171.392 49.0775C171.392 49.0788 171.392 49.0801 171.392 49.0814C171.392 49.0827 171.392 49.0841 171.392 49.0854C171.392 49.0867 171.392 49.088 171.392 49.0893C171.392 49.0906 171.392 49.092 171.392 49.0933C171.392 49.0946 171.392 49.0959 171.392 49.0972C171.392 49.0986 171.392 49.0999 171.392 49.1012C171.392 49.1025 171.392 49.1038 171.392 49.1052C171.392 49.1065 171.392 49.1078 171.392 49.1091C171.392 49.1104 171.392 49.1118 171.392 49.1131C171.392 49.1144 171.392 49.1157 171.392 49.1171C171.392 49.1184 171.392 49.1197 171.392 49.121C171.392 49.1224 171.392 49.1237 171.392 49.125C171.392 49.1264 171.392 49.1277 171.392 49.129C171.392 49.1303 171.392 49.1317 171.392 49.133C171.392 49.1343 171.392 49.1357 171.392 49.137C171.392 49.1383 171.392 49.1396 171.392 49.141C171.392 49.1423 171.392 49.1436 171.392 49.145C171.392 49.1463 171.392 49.1476 171.392 49.149C171.392 49.1503 171.392 49.1516 171.392 49.153C171.392 49.1543 171.392 49.1556 171.392 49.157C171.392 49.1583 171.392 49.1597 171.392 49.161C171.392 49.1623 171.392 49.1637 171.392 49.165C171.392 49.1663 171.392 49.1677 171.392 49.169C171.392 49.1704 171.392 49.1717 171.392 49.173C171.392 49.1744 171.392 49.1757 171.392 49.1771C171.392 49.1784 171.392 49.1797 171.392 49.1811C171.392 49.1824 171.392 49.1838 171.392 49.1851C171.392 49.1865 171.392 49.1878 171.392 49.1891C171.392 49.1905 171.392 49.1918 171.392 49.1932C171.392 49.1945 171.392 49.1959 171.392 49.1972C171.392 49.1986 171.392 49.1999 171.392 49.2013C171.392 49.2026 171.392 49.204 171.392 49.2053C171.392 49.2067 171.392 49.208 171.392 49.2094C171.392 49.2107 171.392 49.2121 171.392 49.2134C171.392 49.2148 171.392 49.2161 171.392 49.2175C171.392 49.2188 171.392 49.2202 171.392 49.2215C171.392 49.2229 171.392 49.2242 171.392 49.2256C171.392 49.2269 171.392 49.2283 171.392 49.2296C171.392 49.231 171.392 49.2324 171.392 49.2337C171.392 49.2351 171.392 49.2364 171.392 49.2378C171.392 49.2391 171.392 49.2405 171.392 49.2419C171.392 49.2432 171.392 49.2446 171.392 49.2459C171.392 49.2473 171.392 49.2487 171.392 49.25C171.392 49.2514 171.392 49.2527 171.392 49.2541C171.392 49.2555 171.392 49.2568 171.392 49.2582C171.392 49.2595 171.392 49.2609 171.392 49.2623C171.392 49.2636 171.392 49.265 171.392 49.2664C171.392 49.2677 171.392 49.2691 171.392 49.2705C171.392 49.2718 171.392 49.2732 171.392 49.2746C171.392 49.2759 171.392 49.2773 171.392 49.2787C171.392 49.28 171.392 49.2814 171.392 49.2828C171.392 49.2841 171.392 49.2855 171.392 49.2869C171.392 49.2883 171.392 49.2896 171.392 49.291C171.392 49.2924 171.392 49.2937 171.392 49.2951C171.392 49.2965 171.392 49.2979 171.392 49.2992C171.392 49.3006 171.392 49.302 171.392 49.3034C171.392 49.3047 171.392 49.3061 171.392 49.3075C171.392 49.3089 171.392 49.3102 171.392 49.3116C171.392 49.313 171.392 49.3144 171.392 49.3157C171.392 49.3171 171.392 49.3185 171.392 49.3199C171.392 49.3213 171.392 49.3226 171.392 49.324C171.392 49.3254 171.392 49.3268 171.392 49.3282C171.392 49.3295 171.392 49.3309 171.392 49.3323C171.392 49.3337 171.392 49.3351 171.392 49.3365C171.392 49.3378 171.392 49.3392 171.392 49.3406C171.392 49.342 171.392 49.3434 171.392 49.3448C171.392 49.3461 171.392 49.3475 171.392 49.3489C171.392 49.3503 171.392 49.3517 171.392 49.3531C171.392 49.3545 171.392 49.3559 171.392 49.3572C171.392 49.3586 171.392 49.36 171.392 49.3614C171.392 49.3628 171.392 49.3642 171.392 49.3656C171.392 49.367 171.392 49.3684 171.392 49.3698C171.392 49.3712 171.392 49.3725 171.392 49.3739C171.392 49.3753 171.392 49.3767 171.392 49.3781C171.392 49.3795 171.392 49.3809 171.392 49.3823C171.392 49.3837 171.392 49.3851 171.392 49.3865C171.392 49.3879 171.392 49.3893 171.392 49.3907C171.392 49.3921 171.392 49.3935 171.392 49.3949C171.392 49.3963 171.392 49.3977 171.392 49.3991C171.392 49.4005 171.392 49.4019 171.392 49.4033C171.392 49.4047 171.392 49.4061 171.392 49.4075C171.392 49.4089 171.392 49.4103 171.392 49.4117C171.392 49.4131 171.392 49.4145 171.392 49.4159C171.392 49.4173 171.392 49.4187 171.392 49.4201C171.392 49.4215 171.392 49.4229 171.392 49.4243C171.392 49.4257 171.392 49.4271 171.392 49.4285C171.392 49.43 171.392 49.4314 171.392 49.4328C171.392 49.4342 171.392 49.4356 171.392 49.437C171.392 49.4384 171.392 49.4398 171.392 49.4412C171.392 49.4426 171.392 49.444 171.392 49.4455C171.392 49.4469 171.392 49.4483 171.392 49.4497C171.392 49.4511 171.392 49.4525 171.392 49.4539C171.392 49.4553 171.392 49.4568 171.392 49.4582C171.392 49.4596 171.392 49.461 171.392 49.4624C171.392 49.4638 171.392 49.4653 171.392 49.4667C171.392 49.4681 171.392 49.4695 171.392 49.4709C171.392 49.4723 171.392 49.4738 171.392 49.4752C171.392 49.4766 171.392 49.478 171.392 49.4794C171.392 49.4809 171.392 49.4823 171.392 49.4837C171.392 49.4851 171.392 49.4865 171.392 49.488C171.392 49.4894 171.392 49.4908 171.392 49.4922C171.392 49.4937 171.392 49.4951 171.392 49.4965C171.392 49.4979 171.392 49.4994 171.392 49.5008C171.392 49.5022 171.392 49.5036 171.392 49.5051C171.392 49.5065 171.392 49.5079 171.392 49.5093C171.392 49.5108 171.392 49.5122 171.392 49.5136C171.392 49.5151 171.392 49.5165 171.392 49.5179C171.392 49.5193 171.392 49.5208 171.392 49.5222C171.392 49.5236 171.392 49.5251 171.392 49.5265C171.392 49.5279 171.392 49.5294 171.392 49.5308C171.392 49.5322 171.392 49.5337 171.392 49.5351C171.392 49.5365 171.392 49.538 171.392 49.5394C171.392 49.5408 171.392 49.5423 171.392 49.5437C171.392 49.5451 171.392 49.5466 171.392 49.548C171.392 49.5495 171.392 49.5509 171.392 49.5523C171.392 49.5538 171.392 49.5552 171.392 49.5567C171.392 49.5581 171.392 49.5595 171.392 49.561C171.392 49.5624 171.392 49.5639 171.392 49.5653C171.392 49.5667 171.392 49.5682 171.392 49.5696C171.392 49.5711 171.392 49.5725 171.392 49.574C171.392 49.5754 171.392 49.5768 171.392 49.5783C171.392 49.5797 171.392 49.5812 171.392 49.5826C171.392 49.5841 171.392 49.5855 171.392 49.587C171.392 49.5884 171.392 49.5899 171.392 49.5913H173.392C173.392 49.5899 173.392 49.5884 173.392 49.587C173.392 49.5855 173.392 49.5841 173.392 49.5826C173.392 49.5812 173.392 49.5797 173.392 49.5783C173.392 49.5768 173.392 49.5754 173.392 49.574C173.392 49.5725 173.392 49.5711 173.392 49.5696C173.392 49.5682 173.392 49.5667 173.392 49.5653C173.392 49.5639 173.392 49.5624 173.392 49.561C173.392 49.5595 173.392 49.5581 173.392 49.5567C173.392 49.5552 173.392 49.5538 173.392 49.5523C173.392 49.5509 173.392 49.5495 173.392 49.548C173.392 49.5466 173.392 49.5451 173.392 49.5437C173.392 49.5423 173.392 49.5408 173.392 49.5394C173.392 49.538 173.392 49.5365 173.392 49.5351C173.392 49.5337 173.392 49.5322 173.392 49.5308C173.392 49.5294 173.392 49.5279 173.392 49.5265C173.392 49.5251 173.392 49.5236 173.392 49.5222C173.392 49.5208 173.392 49.5193 173.392 49.5179C173.392 49.5165 173.392 49.5151 173.392 49.5136C173.392 49.5122 173.392 49.5108 173.392 49.5093C173.392 49.5079 173.392 49.5065 173.392 49.5051C173.392 49.5036 173.392 49.5022 173.392 49.5008C173.392 49.4994 173.392 49.4979 173.392 49.4965C173.392 49.4951 173.392 49.4937 173.392 49.4922C173.392 49.4908 173.392 49.4894 173.392 49.488C173.392 49.4865 173.392 49.4851 173.392 49.4837C173.392 49.4823 173.392 49.4809 173.392 49.4794C173.392 49.478 173.392 49.4766 173.392 49.4752C173.392 49.4738 173.392 49.4723 173.392 49.4709C173.392 49.4695 173.392 49.4681 173.392 49.4667C173.392 49.4653 173.392 49.4638 173.392 49.4624C173.392 49.461 173.392 49.4596 173.392 49.4582C173.392 49.4568 173.392 49.4553 173.392 49.4539C173.392 49.4525 173.392 49.4511 173.392 49.4497C173.392 49.4483 173.392 49.4469 173.392 49.4455C173.392 49.444 173.392 49.4426 173.392 49.4412C173.392 49.4398 173.392 49.4384 173.392 49.437C173.392 49.4356 173.392 49.4342 173.392 49.4328C173.392 49.4314 173.392 49.43 173.392 49.4285C173.392 49.4271 173.392 49.4257 173.392 49.4243C173.392 49.4229 173.392 49.4215 173.392 49.4201C173.392 49.4187 173.392 49.4173 173.392 49.4159C173.392 49.4145 173.392 49.4131 173.392 49.4117C173.392 49.4103 173.392 49.4089 173.392 49.4075C173.392 49.4061 173.392 49.4047 173.392 49.4033C173.392 49.4019 173.392 49.4005 173.392 49.3991C173.392 49.3977 173.392 49.3963 173.392 49.3949C173.392 49.3935 173.392 49.3921 173.392 49.3907C173.392 49.3893 173.392 49.3879 173.392 49.3865C173.392 49.3851 173.392 49.3837 173.392 49.3823C173.392 49.3809 173.392 49.3795 173.392 49.3781C173.392 49.3767 173.392 49.3753 173.392 49.3739C173.392 49.3725 173.392 49.3712 173.392 49.3698C173.392 49.3684 173.392 49.367 173.392 49.3656C173.392 49.3642 173.392 49.3628 173.392 49.3614C173.392 49.36 173.392 49.3586 173.392 49.3572C173.392 49.3559 173.392 49.3545 173.392 49.3531C173.392 49.3517 173.392 49.3503 173.392 49.3489C173.392 49.3475 173.392 49.3461 173.392 49.3448C173.392 49.3434 173.392 49.342 173.392 49.3406C173.392 49.3392 173.392 49.3378 173.392 49.3365C173.392 49.3351 173.392 49.3337 173.392 49.3323C173.392 49.3309 173.392 49.3295 173.392 49.3282C173.392 49.3268 173.392 49.3254 173.392 49.324C173.392 49.3226 173.392 49.3213 173.392 49.3199C173.392 49.3185 173.392 49.3171 173.392 49.3157C173.392 49.3144 173.392 49.313 173.392 49.3116C173.392 49.3102 173.392 49.3089 173.392 49.3075C173.392 49.3061 173.392 49.3047 173.392 49.3034C173.392 49.302 173.392 49.3006 173.392 49.2992C173.392 49.2979 173.392 49.2965 173.392 49.2951C173.392 49.2937 173.392 49.2924 173.392 49.291C173.392 49.2896 173.392 49.2883 173.392 49.2869C173.392 49.2855 173.392 49.2841 173.392 49.2828C173.392 49.2814 173.392 49.28 173.392 49.2787C173.392 49.2773 173.392 49.2759 173.392 49.2746C173.392 49.2732 173.392 49.2718 173.392 49.2705C173.392 49.2691 173.392 49.2677 173.392 49.2664C173.392 49.265 173.392 49.2636 173.392 49.2623C173.392 49.2609 173.392 49.2595 173.392 49.2582C173.392 49.2568 173.392 49.2555 173.392 49.2541C173.392 49.2527 173.392 49.2514 173.392 49.25C173.392 49.2487 173.392 49.2473 173.392 49.2459C173.392 49.2446 173.392 49.2432 173.392 49.2419C173.392 49.2405 173.392 49.2391 173.392 49.2378C173.392 49.2364 173.392 49.2351 173.392 49.2337C173.392 49.2324 173.392 49.231 173.392 49.2296C173.392 49.2283 173.392 49.2269 173.392 49.2256C173.392 49.2242 173.392 49.2229 173.392 49.2215C173.392 49.2202 173.392 49.2188 173.392 49.2175C173.392 49.2161 173.392 49.2148 173.392 49.2134C173.392 49.2121 173.392 49.2107 173.392 49.2094C173.392 49.208 173.392 49.2067 173.392 49.2053C173.392 49.204 173.392 49.2026 173.392 49.2013C173.392 49.1999 173.392 49.1986 173.392 49.1972C173.392 49.1959 173.392 49.1945 173.392 49.1932C173.392 49.1918 173.392 49.1905 173.392 49.1891C173.392 49.1878 173.392 49.1865 173.392 49.1851C173.392 49.1838 173.392 49.1824 173.392 49.1811C173.392 49.1797 173.392 49.1784 173.392 49.1771C173.392 49.1757 173.392 49.1744 173.392 49.173C173.392 49.1717 173.392 49.1704 173.392 49.169C173.392 49.1677 173.392 49.1663 173.392 49.165C173.392 49.1637 173.392 49.1623 173.392 49.161C173.392 49.1597 173.392 49.1583 173.392 49.157C173.392 49.1556 173.392 49.1543 173.392 49.153C173.392 49.1516 173.392 49.1503 173.392 49.149C173.392 49.1476 173.392 49.1463 173.392 49.145C173.392 49.1436 173.392 49.1423 173.392 49.141C173.392 49.1396 173.392 49.1383 173.392 49.137C173.392 49.1357 173.392 49.1343 173.392 49.133C173.392 49.1317 173.392 49.1303 173.392 49.129C173.392 49.1277 173.392 49.1264 173.392 49.125C173.392 49.1237 173.392 49.1224 173.392 49.121C173.392 49.1197 173.392 49.1184 173.392 49.1171C173.392 49.1157 173.392 49.1144 173.392 49.1131C173.392 49.1118 173.392 49.1104 173.392 49.1091C173.392 49.1078 173.392 49.1065 173.392 49.1052C173.392 49.1038 173.392 49.1025 173.392 49.1012C173.392 49.0999 173.392 49.0986 173.392 49.0972C173.392 49.0959 173.392 49.0946 173.392 49.0933C173.392 49.092 173.392 49.0906 173.392 49.0893C173.392 49.088 173.392 49.0867 173.392 49.0854C173.392 49.0841 173.392 49.0827 173.392 49.0814C173.392 49.0801 173.392 49.0788 173.392 49.0775C173.392 49.0762 173.392 49.0749 173.392 49.0735C173.392 49.0722 173.392 49.0709 173.392 49.0696C173.392 49.0683 173.392 49.067 173.392 49.0657C173.392 49.0644 173.392 49.063 173.392 49.0617C173.392 49.0604 173.392 49.0591 173.392 49.0578C173.392 49.0565 173.392 49.0552 173.392 49.0539C173.392 49.0526 173.392 49.0513 173.392 49.05C173.392 49.0487 173.392 49.0474 173.392 49.046C173.392 49.0447 173.392 49.0434 173.392 49.0421C173.392 49.0408 173.392 49.0395 173.392 49.0382C173.392 49.0369 173.392 49.0356 173.392 49.0343C173.392 49.033 173.392 49.0317 173.392 49.0304C173.392 49.0291 173.392 49.0278 173.392 49.0265C173.392 49.0252 173.392 49.0239 173.392 49.0226C173.392 49.0213 173.392 49.02 173.392 49.0187C173.392 49.0174 173.392 49.0161 173.392 49.0148C173.392 49.0135 173.392 49.0122 173.392 49.0109C173.392 49.0096 173.392 49.0083 173.392 49.007C173.392 49.0057 173.392 49.0045 173.392 49.0032C173.392 49.0019 173.392 49.0006 173.392 48.9993C173.392 48.998 173.392 48.9967 173.392 48.9954C173.392 48.9941 173.392 48.9928 173.392 48.9915C173.392 48.9902 173.392 48.9889 173.392 48.9877C173.392 48.9864 173.392 48.9851 173.392 48.9838C173.392 48.9825 173.392 48.9812 173.392 48.9799C173.392 48.9786 173.392 48.9774 173.392 48.9761C173.392 48.9748 173.392 48.9735 173.392 48.9722C173.392 48.9709 173.392 48.9696 173.392 48.9684C173.392 48.9671 173.392 48.9658 173.392 48.9645C173.392 48.9632 173.392 48.9619 173.392 48.9607C173.392 48.9594 173.392 48.9581 173.392 48.9568C173.392 48.9555 173.392 48.9543 173.392 48.953C173.392 48.9517 173.392 48.9504 173.392 48.9491C173.392 48.9479 173.392 48.9466 173.392 48.9453C173.392 48.944 173.392 48.9428 173.392 48.9415C173.392 48.9402 173.392 48.9389 173.392 48.9377C173.392 48.9364 173.392 48.9351 173.392 48.9338C173.392 48.9326 173.392 48.9313 173.392 48.93C173.392 48.9287 173.392 48.9275 173.392 48.9262C173.392 48.9249 173.392 48.9236 173.392 48.9224C173.392 48.9211 173.392 48.9198 173.392 48.9186C173.392 48.9173 173.392 48.916 173.392 48.9148C173.392 48.9135 173.392 48.9122 173.392 48.9109C173.392 48.9097 173.392 48.9084 173.392 48.9071C173.392 48.9059 173.392 48.9046 173.392 48.9034C173.392 48.9021 173.392 48.9008 173.392 48.8996C173.392 48.8983 173.392 48.897 173.392 48.8958C173.392 48.8945 173.392 48.8932 173.392 48.892C173.392 48.8907 173.392 48.8895 173.392 48.8882C173.392 48.8869 173.392 48.8857 173.392 48.8844C173.392 48.8831 173.392 48.8819 173.392 48.8806C173.392 48.8794 173.392 48.8781 173.392 48.8769C173.392 48.8756 173.392 48.8743 173.392 48.8731C173.392 48.8718 173.392 48.8706 173.392 48.8693C173.392 48.8681 173.392 48.8668 173.392 48.8655C173.392 48.8643 173.392 48.863 173.392 48.8618C173.392 48.8605 173.392 48.8593 173.392 48.858C173.392 48.8568 173.392 48.8555 173.392 48.8543C173.392 48.853 173.392 48.8518 173.392 48.8505C173.392 48.8493 173.392 48.848 173.392 48.8468C173.392 48.8455 173.392 48.8443 173.392 48.843C173.392 48.8418 173.392 48.8405 173.392 48.8393C173.392 48.838 173.392 48.8368 173.392 48.8355C173.392 48.8343 173.392 48.833 173.392 48.8318C173.392 48.8306 173.392 48.8293 173.392 48.8281C173.392 48.8268 173.392 48.8256 173.392 48.8243C173.392 48.8231 173.392 48.8219 173.392 48.8206C173.392 48.8194 173.392 48.8181 173.392 48.8169C173.392 48.8156 173.392 48.8144 173.392 48.8132C173.392 48.8119 173.392 48.8107 173.392 48.8094C173.392 48.8082 173.392 48.807 173.392 48.8057C173.392 48.8045 173.392 48.8033 173.392 48.802C173.392 48.8008 173.392 48.7996 173.392 48.7983C173.392 48.7971 173.392 48.7958 173.392 48.7946C173.392 48.7934 173.392 48.7921 173.392 48.7909C173.392 48.7897 173.392 48.7884 173.392 48.7872C173.392 48.786 173.392 48.7848 173.392 48.7835C173.392 48.7823 173.392 48.7811 173.392 48.7798C173.392 48.7786 173.392 48.7774 173.392 48.7761C173.392 48.7749 173.392 48.7737 173.392 48.7725C173.392 48.7712 173.392 48.77 173.392 48.7688C173.392 48.7675 173.392 48.7663 173.392 48.7651C173.392 48.7639 173.392 48.7626 173.392 48.7614C173.392 48.7602 173.392 48.759 173.392 48.7578C173.392 48.7565 173.392 48.7553 173.392 48.7541C173.392 48.7529 173.392 48.7516 173.392 48.7504C173.392 48.7492 173.392 48.748 173.392 48.7468C173.392 48.7455 173.392 48.7443 173.392 48.7431C173.392 48.7419 173.392 48.7407 173.392 48.7394C173.392 48.7382 173.392 48.737 173.392 48.7358C173.392 48.7346 173.392 48.7334 173.392 48.7321C173.392 48.7309 173.392 48.7297 173.392 48.7285C173.392 48.7273 173.392 48.7261 173.392 48.7249C173.392 48.7236 173.392 48.7224 173.392 48.7212C173.392 48.72 173.392 48.7188 173.392 48.7176C173.392 48.7164 173.392 48.7152 173.392 48.7139C173.392 48.7127 173.392 48.7115 173.392 48.7103C173.392 48.7091 173.392 48.7079 173.392 48.7067C173.392 48.7055 173.392 48.7043 173.392 48.7031C173.392 48.7019 173.392 48.7007 173.392 48.6994C173.392 48.6982 173.392 48.697 173.392 48.6958C173.392 48.6946 173.392 48.6934 173.392 48.6922C173.392 48.691 173.392 48.6898 173.392 48.6886C173.392 48.6874 173.392 48.6862 173.392 48.685C173.392 48.6838 173.392 48.6826 173.392 48.6814C173.392 48.6802 173.392 48.679 173.392 48.6778C173.392 48.6766 173.392 48.6754 173.392 48.6742C173.392 48.673 173.392 48.6718 173.392 48.6706C173.392 48.6694 173.392 48.6682 173.392 48.667C173.392 48.6658 173.392 48.6646 173.392 48.6634C173.392 48.6622 173.392 48.661 173.392 48.6598C173.392 48.6586 173.392 48.6575 173.392 48.6563C173.392 48.6551 173.392 48.6539 173.392 48.6527C173.392 48.6515 173.392 48.6503 173.392 48.6491C173.392 48.6479 173.392 48.6467 173.392 48.6455C173.392 48.6443 173.392 48.6432 173.392 48.642C173.392 48.6408 173.392 48.6396 173.392 48.6384C173.392 48.6372 173.392 48.636 173.392 48.6348C173.392 48.6337 173.392 48.6325 173.392 48.6313C173.392 48.6301 173.392 48.6289 173.392 48.6277C173.392 48.6265 173.392 48.6254 173.392 48.6242C173.392 48.623 173.392 48.6218 173.392 48.6206C173.392 48.6195 173.392 48.6183 173.392 48.6171C173.392 48.6159 173.392 48.6147 173.392 48.6135C173.392 48.6124 173.392 48.6112 173.392 48.61C173.392 48.6088 173.392 48.6076 173.392 48.6065C173.392 48.6053 173.392 48.6041 173.392 48.6029C173.392 48.6018 173.392 48.6006 173.392 48.5994C173.392 48.5982 173.392 48.5971 173.392 48.5959C173.392 48.5947 173.392 48.5935 173.392 48.5924C173.392 48.5912 173.392 48.59 173.392 48.5888C173.392 48.5877 173.392 48.5865 173.392 48.5853C173.392 48.5842 173.392 48.583 173.392 48.5818C173.392 48.5806 173.392 48.5795 173.392 48.5783C173.392 48.5771 173.392 48.576 173.392 48.5748C173.392 48.5736 173.392 48.5725 173.392 48.5713C173.392 48.5701 173.392 48.569 173.392 48.5678C173.392 48.5666 173.392 48.5655 173.392 48.5643C173.392 48.5631 173.392 48.562 173.392 48.5608C173.392 48.5596 173.392 48.5585 173.392 48.5573C173.392 48.5562 173.392 48.555 173.392 48.5538C173.392 48.5527 173.392 48.5515 173.392 48.5503C173.392 48.5492 173.392 48.548 173.392 48.5469C173.392 48.5457 173.392 48.5445 173.392 48.5434C173.392 48.5422 173.392 48.5411 173.392 48.5399C173.392 48.5388 173.392 48.5376 173.392 48.5364C173.392 48.5353 173.392 48.5341 173.392 48.533C173.392 48.5318 173.392 48.5307 173.392 48.5295C173.392 48.5284 173.392 48.5272 173.392 48.5261C173.392 48.5249 173.392 48.5237 173.392 48.5226C173.392 48.5214 173.392 48.5203 173.392 48.5191C173.392 48.518 173.392 48.5168 173.392 48.5157C173.392 48.5145 173.392 48.5134 173.392 48.5122C173.392 48.5111 173.392 48.5099 173.392 48.5088C173.392 48.5077 173.392 48.5065 173.392 48.5054C173.392 48.5042 173.392 48.5031 173.392 48.5019C173.392 48.5008 173.392 48.4996 173.392 48.4985C173.392 48.4973 173.392 48.4962 173.392 48.4951C173.392 48.4939 173.392 48.4928 173.392 48.4916C173.392 48.4905 173.392 48.4893 173.392 48.4882C173.392 48.4871 173.392 48.4859 173.392 48.4848C173.392 48.4836 173.392 48.4825 173.392 48.4814C173.392 48.4802 173.392 48.4791 173.392 48.4779C173.392 48.4768 173.392 48.4757 173.392 48.4745C173.392 48.4734 173.392 48.4723 173.392 48.4711C173.392 48.47 173.392 48.4689 173.392 48.4677C173.392 48.4666 173.392 48.4654 173.392 48.4643C173.392 48.4632 173.392 48.462 173.392 48.4609C173.392 48.4598 173.392 48.4587 173.392 48.4575C173.392 48.4564 173.392 48.4553 173.392 48.4541C173.392 48.453 173.392 48.4519 173.392 48.4507C173.392 48.4496 173.392 48.4485 173.392 48.4474C173.392 48.4462 173.392 48.4451 173.392 48.444C173.392 48.4428 173.392 48.4417 173.392 48.4406C173.392 48.4395 173.392 48.4383 173.392 48.4372C173.392 48.4361 173.392 48.435 173.392 48.4338C173.392 48.4327 173.392 48.4316 173.392 48.4305C173.392 48.4293 173.392 48.4282 173.392 48.4271C173.392 48.426 173.392 48.4249 173.392 48.4237C173.392 48.4226 173.392 48.4215 173.392 48.4204C173.392 48.4193 173.392 48.4181 173.392 48.417C173.392 48.4159 173.392 48.4148 173.392 48.4137C173.392 48.4126 173.392 48.4114 173.392 48.4103C173.392 48.4092 173.392 48.4081 173.392 48.407C173.392 48.4059 173.392 48.4047 173.392 48.4036C173.392 48.4025 173.392 48.4014 173.392 48.4003C173.392 48.3992 173.392 48.3981 173.392 48.3969C173.392 48.3958 173.392 48.3947 173.392 48.3936C173.392 48.3925 173.392 48.3914 173.392 48.3903C173.392 48.3892 173.392 48.3881 173.392 48.387C173.392 48.3858 173.392 48.3847 173.392 48.3836C173.392 48.3825 173.392 48.3814 173.392 48.3803C173.392 48.3792 173.392 48.3781 173.392 48.377C173.392 48.3759 173.392 48.3748 173.392 48.3737C173.392 48.3726 173.392 48.3715 173.392 48.3704C173.392 48.3693 173.392 48.3682 173.392 48.3671C173.392 48.366 173.392 48.3649 173.392 48.3638C173.392 48.3627 173.392 48.3616 173.392 48.3605C173.392 48.3594 173.392 48.3583 173.392 48.3572C173.392 48.3561 173.392 48.355 173.392 48.3539C173.392 48.3528 173.392 48.3517 173.392 48.3506C173.392 48.3495 173.392 48.3484 173.392 48.3473C173.392 48.3462 173.392 48.3451 173.392 48.344C173.392 48.3429 173.392 48.3418 173.392 48.3407C173.392 48.3396 173.392 48.3385 173.392 48.3374C173.392 48.3363 173.392 48.3352 173.392 48.3342C173.392 48.3331 173.392 48.332 173.392 48.3309C173.392 48.3298 173.392 48.3287 173.392 48.3276C173.392 48.3265 173.392 48.3254 173.392 48.3243C173.392 48.3233 173.392 48.3222 173.392 48.3211C173.392 48.32 173.392 48.3189 173.392 48.3178C173.392 48.3167 173.392 48.3157 173.392 48.3146C173.392 48.3135 173.392 48.3124 173.392 48.3113C173.392 48.3102 173.392 48.3091 173.392 48.3081C173.392 48.307 173.392 48.3059 173.392 48.3048C173.392 48.3037 173.392 48.3027 173.392 48.3016C173.392 48.3005 173.392 48.2994 173.392 48.2983C173.392 48.2973 173.392 48.2962 173.392 48.2951C173.392 48.294 173.392 48.2929 173.392 48.2919C173.392 48.2908 173.392 48.2897 173.392 48.2886C173.392 48.2876 173.392 48.2865 173.392 48.2854C173.392 48.2843 173.392 48.2833 173.392 48.2822C173.392 48.2811 173.392 48.28 173.392 48.279C173.392 48.2779 173.392 48.2768 173.392 48.2757C173.392 48.2747 173.392 48.2736 173.392 48.2725C173.392 48.2715 173.392 48.2704 173.392 48.2693C173.392 48.2682 173.392 48.2672 173.392 48.2661C173.392 48.265 173.392 48.264 173.392 48.2629C173.392 48.2618 173.392 48.2608 173.392 48.2597C173.392 48.2586 173.392 48.2576 173.392 48.2565C173.392 48.2554 173.392 48.2544 173.392 48.2533C173.392 48.2522 173.392 48.2512 173.392 48.2501C173.392 48.2491 173.392 48.248 173.392 48.2469C173.392 48.2459 173.392 48.2448 173.392 48.2437C173.392 48.2427 173.392 48.2416 173.392 48.2406C173.392 48.2395 173.392 48.2384 173.392 48.2374C173.392 48.2363 173.392 48.2353 173.392 48.2342C173.392 48.2332 173.392 48.2321 173.392 48.231C173.392 48.23 173.392 48.2289 173.392 48.2279C173.392 48.2268 173.392 48.2258 173.392 48.2247C173.392 48.2237 173.392 48.2226 173.392 48.2215C173.392 48.2205 173.392 48.2194 173.392 48.2184C173.392 48.2173 173.392 48.2163 173.392 48.2152C173.392 48.2142 173.392 48.2131 173.392 48.2121C173.392 48.211 173.392 48.21 173.392 48.2089C173.392 48.2079 173.392 48.2068 173.392 48.2058C173.392 48.2047 173.392 48.2037 173.392 48.2026C173.392 48.2016 173.392 48.2005 173.392 48.1995C173.392 48.1985 173.392 48.1974 173.392 48.1964C173.392 48.1953 173.392 48.1943 173.392 48.1932C173.392 48.1922 173.392 48.1911 173.392 48.1901C173.392 48.1891 173.392 48.188 173.392 48.187C173.392 48.1859 173.392 48.1849 173.392 48.1839C173.392 48.1828 173.392 48.1818 173.392 48.1807C173.392 48.1797 173.392 48.1787 173.392 48.1776C173.392 48.1766 173.392 48.1755 173.392 48.1745C173.392 48.1735 173.392 48.1724 173.392 48.1714C173.392 48.1704 173.392 48.1693 173.392 48.1683C173.392 48.1672 173.392 48.1662 173.392 48.1652C173.392 48.1641 173.392 48.1631 173.392 48.1621C173.392 48.161 173.392 48.16 173.392 48.159C173.392 48.1579 173.392 48.1569 173.392 48.1559C173.392 48.1549 173.392 48.1538 173.392 48.1528C173.392 48.1518 173.392 48.1507 173.392 48.1497C173.392 48.1487 173.392 48.1477 173.392 48.1466C173.392 48.1456 173.392 48.1446 173.392 48.1435C173.392 48.1425 173.392 48.1415 173.392 48.1405C173.392 48.1394 173.392 48.1384 173.392 48.1374C173.392 48.1364 173.392 48.1353 173.392 48.1343C173.392 48.1333 173.392 48.1323 173.392 48.1313C173.392 48.1302 173.392 48.1292 173.392 48.1282C173.392 48.1272 173.392 48.1261 173.392 48.1251C173.392 48.1241 173.392 48.1231 173.392 48.1221C173.392 48.121 173.392 48.12 173.392 48.119C173.392 48.118 173.392 48.117 173.392 48.116C173.392 48.1149 173.392 48.1139 173.392 48.1129C173.392 48.1119 173.392 48.1109 173.392 48.1099C173.392 48.1089 173.392 48.1078 173.392 48.1068C173.392 48.1058 173.392 48.1048 173.392 48.1038C173.392 48.1028 173.392 48.1018 173.392 48.1007C173.392 48.0997 173.392 48.0987 173.392 48.0977C173.392 48.0967 173.392 48.0957 173.392 48.0947C173.392 48.0937 173.392 48.0927 173.392 48.0917C173.392 48.0907 173.392 48.0896 173.392 48.0886C173.392 48.0876 173.392 48.0866 173.392 48.0856C173.392 48.0846 173.392 48.0836 173.392 48.0826C173.392 48.0816 173.392 48.0806 173.392 48.0796C173.392 48.0786 173.392 48.0776 173.392 48.0766C173.392 48.0756 173.392 48.0746 173.392 48.0736C173.392 48.0726 173.392 48.0716 173.392 48.0706C173.392 48.0696 173.392 48.0686 173.392 48.0676C173.392 48.0666 173.392 48.0656 173.392 48.0646C173.392 48.0636 173.392 48.0626 173.392 48.0616C173.392 48.0606 173.392 48.0596 173.392 48.0586C173.392 48.0576 173.392 48.0566 173.392 48.0556C173.392 48.0546 173.392 48.0536 173.392 48.0526C173.392 48.0516 173.392 48.0506 173.392 48.0496C173.392 48.0486 173.392 48.0477 173.392 48.0467C173.392 48.0457 173.392 48.0447 173.392 48.0437C173.392 48.0427 173.392 48.0417 173.392 48.0407C173.392 48.0397 173.392 48.0387 173.392 48.0377C173.392 48.0368 173.392 48.0358 173.392 48.0348C173.392 48.0338 173.392 48.0328 173.392 48.0318C173.392 48.0308 173.392 48.0299 173.392 48.0289C173.392 48.0279 173.392 48.0269 173.392 48.0259C173.392 48.0249 173.392 48.0239 173.392 48.023C173.392 48.022 173.392 48.021 173.392 48.02C173.392 48.019 173.392 48.018 173.392 48.0171C173.392 48.0161 173.392 48.0151 173.392 48.0141C173.392 48.0131 173.392 48.0122 173.392 48.0112C173.392 48.0102 173.392 48.0092 173.392 48.0083C173.392 48.0073 173.392 48.0063 173.392 48.0053C173.392 48.0043 173.392 48.0034 173.392 48.0024C173.392 48.0014 173.392 48.0004 173.392 47.9995C173.392 47.9985 173.392 47.9975 173.392 47.9965C173.392 47.9956 173.392 47.9946 173.392 47.9936C173.392 47.9927 173.392 47.9917 173.392 47.9907C173.392 47.9897 173.392 47.9888 173.392 47.9878C173.392 47.9868 173.392 47.9859 173.392 47.9849C173.392 47.9839 173.392 47.9829 173.392 47.982C173.392 47.981 173.392 47.98 173.392 47.9791C173.392 47.9781 173.392 47.9771 173.392 47.9762C173.392 47.9752 173.392 47.9742 173.392 47.9733C173.392 47.9723 173.392 47.9714 173.392 47.9704C173.392 47.9694 173.392 47.9685 173.392 47.9675C173.392 47.9665 173.392 47.9656 173.392 47.9646C173.392 47.9637 173.392 47.9627 173.392 47.9617C173.392 47.9608 173.392 47.9598 173.392 47.9589C173.392 47.9579 173.392 47.9569 173.392 47.956C173.392 47.955 173.392 47.9541 173.392 47.9531C173.392 47.9521 173.392 47.9512 173.392 47.9502C173.392 47.9493 173.392 47.9483 173.392 47.9474C173.392 47.9464 173.392 47.9455 173.392 47.9445C173.392 47.9435 173.392 47.9426 173.392 47.9416C173.392 47.9407 173.392 47.9397 173.392 47.9388C173.392 47.9378 173.392 47.9369 173.392 47.9359C173.392 47.935 173.392 47.934 173.392 47.9331C173.392 47.9321 173.392 47.9312 173.392 47.9302C173.392 47.9293 173.392 47.9283 173.392 47.9274C173.392 47.9264 173.392 47.9255 173.392 47.9245C173.392 47.9236 173.392 47.9227 173.392 47.9217C173.392 47.9208 173.392 47.9198 173.392 47.9189C173.392 47.9179 173.392 47.917 173.392 47.916C173.392 47.9151 173.392 47.9142 173.392 47.9132C173.392 47.9123 173.392 47.9113 173.392 47.9104C173.392 47.9094 173.392 47.9085 173.392 47.9076C173.392 47.9066 173.392 47.9057 173.392 47.9047C173.392 47.9038 173.392 47.9029 173.392 47.9019C173.392 47.901 173.392 47.9001 173.392 47.8991C173.392 47.8982 173.392 47.8972 173.392 47.8963C173.392 47.8954 173.392 47.8944 173.392 47.8935C173.392 47.8926 173.392 47.8916 173.392 47.8907C173.392 47.8898 173.392 47.8888 173.392 47.8879C173.392 47.887 173.392 47.886 173.392 47.8851C173.392 47.8842 173.392 47.8832 173.392 47.8823C173.392 47.8814 173.392 47.8805 173.392 47.8795C173.392 47.8786 173.392 47.8777 173.392 47.8767C173.392 47.8758 173.392 47.8749 173.392 47.874C173.392 47.873 173.392 47.8721 173.392 47.8712C173.392 47.8703 173.392 47.8693 173.392 47.8684C173.392 47.8675 173.392 47.8666 173.392 47.8656C173.392 47.8647 173.392 47.8638 173.392 47.8629C173.392 47.8619 173.392 47.861 173.392 47.8601C173.392 47.8592 173.392 47.8583 173.392 47.8573C173.392 47.8564 173.392 47.8555 173.392 47.8546C173.392 47.8537 173.392 47.8527 173.392 47.8518C173.392 47.8509 173.392 47.85 173.392 47.8491C173.392 47.8481 173.392 47.8472 173.392 47.8463C173.392 47.8454 173.392 47.8445 173.392 47.8436C173.392 47.8427 173.392 47.8417 173.392 47.8408C173.392 47.8399 173.392 47.839 173.392 47.8381C173.392 47.8372 173.392 47.8363 173.392 47.8353C173.392 47.8344 173.392 47.8335 173.392 47.8326C173.392 47.8317 173.392 47.8308 173.392 47.8299C173.392 47.829 173.392 47.8281 173.392 47.8272C173.392 47.8262 173.392 47.8253 173.392 47.8244C173.392 47.8235 173.392 47.8226 173.392 47.8217C173.392 47.8208 173.392 47.8199 173.392 47.819C173.392 47.8181 173.392 47.8172 173.392 47.8163C173.392 47.8154 173.392 47.8145 173.392 47.8136C173.392 47.8127 173.392 47.8118 173.392 47.8109C173.392 47.81 173.392 47.8091 173.392 47.8082C173.392 47.8073 173.392 47.8064 173.392 47.8055C173.392 47.8046 173.392 47.8037 173.392 47.8028C173.392 47.8019 173.392 47.801 173.392 47.8001C173.392 47.7992 173.392 47.7983 173.392 47.7974C173.392 47.7965 173.392 47.7956 173.392 47.7947C173.392 47.7938 173.392 47.7929 173.392 47.792H171.392ZM171.392 49.5913C171.392 50.3618 171.426 51.194 171.493 52.087L173.487 51.9374C173.423 51.0856 173.392 50.3039 173.392 49.5913H171.392ZM171.493 52.0889C171.561 52.972 171.674 53.875 171.832 54.7977L173.803 54.4611C173.655 53.5953 173.55 52.7535 173.487 51.9355L171.493 52.0889ZM171.837 54.8255C172.023 55.7556 172.281 56.6179 172.616 57.4081L174.458 56.627C174.182 55.9778 173.961 55.2479 173.798 54.4333L171.837 54.8255ZM172.616 57.4081C172.966 58.2312 173.43 58.9402 174.024 59.5075L175.405 58.0608C175.04 57.7122 174.719 57.2434 174.458 56.627L172.616 57.4081ZM174.042 59.5241C174.727 60.1465 175.575 60.4385 176.514 60.4385V58.4385C176.014 58.4385 175.662 58.2942 175.387 58.0442L174.042 59.5241ZM176.514 60.4385C177.257 60.4385 177.959 60.2277 178.604 59.8347L177.564 58.1263C177.207 58.3439 176.862 58.4385 176.514 58.4385V60.4385ZM178.631 59.8181C179.206 59.4425 179.73 58.9934 180.2 58.4736L178.717 57.1318C178.358 57.5281 177.965 57.8641 177.538 58.1429L178.631 59.8181ZM180.215 58.4564C180.668 57.9322 181.064 57.3806 181.402 56.8017L179.674 55.794C179.401 56.2619 179.078 56.7137 178.702 57.1491L180.215 58.4564ZM181.386 56.8279C181.735 56.2687 182.017 55.7352 182.219 55.2298L180.362 54.487C180.215 54.854 179.995 55.2801 179.69 55.7679L181.386 56.8279ZM182.29 54.8678L182.421 40.9313L180.421 40.9125L180.29 54.849L182.29 54.8678ZM221.104 32.3506L221.164 33.3488L222.128 33.2914L222.104 32.3261L221.104 32.3506ZM215.608 32.6777L214.609 32.7219L214.654 33.7363L215.668 33.676L215.608 32.6777ZM215.281 25.2842L216.28 25.24L216.237 24.2623L215.259 24.2844L215.281 25.2842ZM203.7 25.5459L203.677 24.5462L202.691 24.5684L202.7 25.5547L203.7 25.5459ZM203.831 40.4639L202.831 40.4726L202.84 41.4639H203.831V40.4639ZM213.58 40.4639H214.58V39.4639H213.58V40.4639ZM213.58 45.1748L213.641 46.173L214.58 46.1158V45.1748H213.58ZM203.896 45.7637L203.836 44.7655L202.887 44.8232L202.896 45.7736L203.896 45.7637ZM204.027 58.9805L203.027 58.9904L203.037 59.9262L203.971 59.9789L204.027 58.9805ZM208.673 59.2422H209.673V58.2969L208.729 58.2438L208.673 59.2422ZM208.673 65.0654L208.696 66.0652L209.673 66.0427V65.0654H208.673ZM194.474 65.3926L193.475 65.4232L193.505 66.4152L194.498 66.3923L194.474 65.3926ZM194.278 58.9805V57.9805H193.247L193.279 59.0111L194.278 58.9805ZM198.139 58.9805V59.9805H199.141L199.139 58.9785L198.139 58.9805ZM198.073 25.5459L199.073 25.5439L199.071 24.5132L198.041 24.5464L198.073 25.5459ZM194.016 25.6768L193.018 25.6253L192.962 26.7113L194.049 26.6762L194.016 25.6768ZM194.344 19.3301L194.331 18.3302L193.393 18.3418L193.345 19.2786L194.344 19.3301ZM220.777 19.0029L221.777 18.9784L221.753 17.9908L220.765 18.003L220.777 19.0029ZM221.045 31.3524L215.549 31.6795L215.668 33.676L221.164 33.3488L221.045 31.3524ZM216.607 32.6335L216.28 25.24L214.282 25.3284L214.609 32.7219L216.607 32.6335ZM215.259 24.2844L203.677 24.5462L203.723 26.5456L215.304 26.2839L215.259 24.2844ZM202.7 25.5547L202.831 40.4726L204.831 40.4551L204.7 25.5371L202.7 25.5547ZM203.831 41.4639H213.58V39.4639H203.831V41.4639ZM212.58 40.4639V45.1748H214.58V40.4639H212.58ZM213.519 44.1766L203.836 44.7655L203.957 46.7618L213.641 46.173L213.519 44.1766ZM202.896 45.7736L203.027 58.9904L205.027 58.9706L204.896 45.7538L202.896 45.7736ZM203.971 59.9789L208.616 60.2406L208.729 58.2438L204.083 57.9821L203.971 59.9789ZM207.673 59.2422V65.0654H209.673V59.2422H207.673ZM208.65 64.0657L194.451 64.3928L194.498 66.3923L208.696 66.0652L208.65 64.0657ZM195.474 65.362L195.278 58.9499L193.279 59.0111L193.475 65.4232L195.474 65.362ZM194.278 59.9805H198.139V57.9805H194.278V59.9805ZM199.139 58.9785L199.073 25.5439L197.073 25.5479L197.139 58.9824L199.139 58.9785ZM198.041 24.5464L193.984 24.6773L194.049 26.6762L198.105 26.5454L198.041 24.5464ZM195.015 25.7282L195.342 19.3816L193.345 19.2786L193.018 25.6253L195.015 25.7282ZM194.356 20.33L220.79 20.0029L220.765 18.003L194.331 18.3302L194.356 20.33ZM219.778 19.0274L220.105 32.3751L222.104 32.3261L221.777 18.9784L219.778 19.0274ZM247.374 37.2578L247.437 38.2559L248.374 38.1973V37.2578H247.374ZM244.234 37.4541L244.171 36.456L243.419 36.5031L243.257 37.2389L244.234 37.4541ZM236.448 72.7861L235.471 72.5709L235.216 73.7273L236.399 73.7849L236.448 72.7861ZM239.13 72.917H240.13V71.9646L239.179 71.9182L239.13 72.917ZM239.13 78.3477L239.142 79.3476L240.13 79.3361V78.3477H239.13ZM227.876 78.4785L226.877 78.5169L226.914 79.4898L227.888 79.4784L227.876 78.4785ZM227.68 73.375L227.576 72.3804L226.645 72.4774L226.681 73.4134L227.68 73.375ZM230.821 73.0479L230.924 74.0425L231.633 73.9687L231.795 73.2751L230.821 73.0479ZM232.653 65.1963L233.627 65.4235L233.686 65.1703L233.614 64.9204L232.653 65.1963ZM224.409 36.4727L225.37 36.1968L225.162 35.4727H224.409V36.4727ZM221.399 36.4727L220.401 36.4139L220.338 37.4727H221.399V36.4727ZM221.726 30.9111L221.738 29.9112L220.784 29.8998L220.728 30.8524L221.726 30.9111ZM232.718 31.042L233.718 31.0173L233.694 30.0535L232.73 30.0421L232.718 31.042ZM232.849 36.3418L232.94 37.3377L233.872 37.2529L233.849 36.3171L232.849 36.3418ZM229.97 36.6035L229.88 35.6076L228.704 35.7145L229.003 36.8566L229.97 36.6035ZM235.139 56.3633L234.172 56.6164L236.12 56.5549L235.139 56.3633ZM238.934 36.9307L239.915 37.1223L240.12 36.0745L239.061 35.9388L238.934 36.9307ZM236.382 36.6035L235.384 36.6659L235.436 37.4904L236.255 37.5954L236.382 36.6035ZM236.055 31.3691L236.043 30.3692L234.991 30.3814L235.057 31.4315L236.055 31.3691ZM247.374 31.2383H248.374V30.2267L247.363 30.2383L247.374 31.2383ZM247.312 36.2598L244.171 36.456L244.296 38.4522L247.437 38.2559L247.312 36.2598ZM243.257 37.2389L235.471 72.5709L237.424 73.0013L245.21 37.6693L243.257 37.2389ZM236.399 73.7849L239.082 73.9158L239.179 71.9182L236.496 71.7873L236.399 73.7849ZM238.13 72.917V78.3477H240.13V72.917H238.13ZM239.119 77.3477L227.865 77.4786L227.888 79.4784L239.142 79.3476L239.119 77.3477ZM228.876 78.4401L228.679 73.3366L226.681 73.4134L226.877 78.5169L228.876 78.4401ZM227.784 74.3696L230.924 74.0425L230.717 72.0532L227.576 72.3804L227.784 74.3696ZM231.795 73.2751L233.627 65.4235L231.679 64.9691L229.847 72.8206L231.795 73.2751ZM233.614 64.9204L225.37 36.1968L223.447 36.7485L231.692 65.4722L233.614 64.9204ZM224.409 35.4727H221.399V37.4727H224.409V35.4727ZM222.397 36.5314L222.724 30.9699L220.728 30.8524L220.401 36.4139L222.397 36.5314ZM221.714 31.9111L232.706 32.0419L232.73 30.0421L221.738 29.9112L221.714 31.9111ZM231.718 31.0667L231.849 36.3665L233.849 36.3171L233.718 31.0173L231.718 31.0667ZM232.758 35.3459L229.88 35.6076L230.061 37.5994L232.94 37.3377L232.758 35.3459ZM229.003 36.8566L234.172 56.6164L236.106 56.1102L230.938 36.3504L229.003 36.8566ZM236.12 56.5549L239.915 37.1223L237.952 36.739L234.158 56.1716L236.12 56.5549ZM239.061 35.9388L236.509 35.6116L236.255 37.5954L238.807 37.9225L239.061 35.9388ZM237.38 36.5411L237.053 31.3068L235.057 31.4315L235.384 36.6659L237.38 36.5411ZM236.067 32.3691L247.386 32.2382L247.363 30.2383L236.043 30.3692L236.067 32.3691ZM246.374 31.2383V37.2578H248.374V31.2383H246.374Z" fill="black"/>
<path d="M63.3193 76.965H69.4805C72.5982 76.965 75.1592 74.725 75.5303 71.855L81.6544 14.175H63.0966V0H55.7848V14.175H37.3383L38.4518 22.365C44.7986 24.01 50.7371 26.985 54.3002 30.275C59.6448 35.245 63.3193 40.39 63.3193 48.79V76.965V76.965ZM0 73.465V70H55.7848V73.465C55.7848 75.39 54.1146 76.965 52.0361 76.965H3.74868C1.6702 76.965 0 75.39 0 73.465V73.465ZM55.7848 48.965C55.7848 20.965 0 20.965 0 48.965H55.7848ZM0.0742312 56H55.7477V63H0.0742312V56Z" fill="black"/>
</g>
<defs>
<filter id="filter0_i" x="0" y="0" width="248.374" height="92" filterUnits="userSpaceOnUse" color-interpolation-filters="sRGB">
<feFlood flood-opacity="0" result="BackgroundImageFix"/>
<feBlend mode="normal" in="SourceGraphic" in2="BackgroundImageFix" result="shape"/>
<feColorMatrix in="SourceAlpha" type="matrix" values="0 0 0 0 0 0 0 0 0 0 0 0 0 0 0 0 0 0 127 0" result="hardAlpha"/>
<feOffset dy="7"/>
<feGaussianBlur stdDeviation="9"/>
<feComposite in2="hardAlpha" operator="arithmetic" k2="-1" k3="1"/>
<feColorMatrix type="matrix" values="0 0 0 0 0 0 0 0 0 0 0 0 0 0 0 0 0 0 0.3 0"/>
<feBlend mode="normal" in2="shape" result="effect1_innerShadow"/>
</filter>
</defs>
</svg>
