<?xml version="1.0" encoding="iso-8859-1"?>
<!-- Generator: Adobe Illustrator 19.0.0, SVG Export Plug-In . SVG Version: 6.00 Build 0)  -->
<svg version="1.1" id="Capa_1" xmlns="http://www.w3.org/2000/svg" xmlns:xlink="http://www.w3.org/1999/xlink" x="0px" y="0px"
	 viewBox="0 0 512.306 512.306" style="enable-background:new 0 0 512.306 512.306;" xml:space="preserve">
<path style="fill:#455A64;" d="M332.501,408.169l-62.613-15.616l-4.8-19.2c16.81-17.259,27.914-39.264,31.808-63.04
	c9.911-3.391,17.023-12.134,18.325-22.528l4.267-33.365c1.497-11.892-4.943-23.368-15.872-28.288l1.408-28.907l5.653-5.653
	c14.566-15.231,15.03-39.083,1.067-54.869c-14.899-20.787-39.679-32.147-65.152-29.867c-22.53-0.96-44.828,4.875-64,16.747
	c-72.533,1.707-82.325,35.797-82.325,69.035c0,7.253,1.621,22.656,2.837,33.003c-11.605,4.58-18.63,16.444-17.067,28.821
	l4.267,33.387c1.41,11.141,9.462,20.3,20.331,23.125c3.878,22.815,14.376,43.987,30.187,60.885l-5.163,20.693l-62.613,15.616
	C30.099,418.724-0.064,457.273,0,501.503c0,5.891,4.776,10.667,10.667,10.667h384c5.891,0,10.667-4.776,10.667-10.667
	C405.412,457.343,375.356,418.826,332.501,408.169z"/>
<path style="fill:#FFC107;" d="M384,0.169c-11.804,0.022-23.549,1.673-34.901,4.907c-5.673,1.588-8.985,7.474-7.397,13.147
	c1.004,3.589,3.809,6.393,7.397,7.397c56.631,16.015,89.556,74.906,73.541,131.536c-10.074,35.624-37.917,63.467-73.541,73.541
	c-5.673,1.588-8.985,7.474-7.397,13.147c1.004,3.589,3.809,6.393,7.397,7.397c67.971,19.426,138.82-19.927,158.246-87.898
	c19.426-67.971-19.927-138.82-87.898-158.246C407.92,1.802,395.988,0.144,384,0.169z"/>
<path d="M10.667,512.169C4.776,512.169,0,507.394,0,501.503c-0.079-44.159,29.978-82.676,72.832-93.333l62.613-15.616l5.163-20.693
	c-15.804-16.904-26.3-38.073-30.187-60.885c-10.875-2.815-18.932-11.979-20.331-23.125l-4.267-33.365
	c-1.558-12.382,5.464-24.248,17.067-28.843c-1.109-10.368-2.624-25.771-2.624-33.024c0-33.259,9.877-67.328,82.411-69.035
	c19.172-11.873,41.47-17.708,64-16.747c25.484-2.274,50.274,9.083,65.195,29.867c13.894,15.84,13.394,39.668-1.152,54.912
	l-5.675,5.675l-1.408,28.885c3.578,1.622,6.77,3.985,9.365,6.933c5.112,5.859,7.486,13.617,6.528,21.333l-4.267,33.387
	c-1.315,10.384-8.424,19.114-18.325,22.507c-3.897,23.768-15,45.767-31.808,63.019l4.779,19.2l62.613,15.616l0,0
	c42.846,10.665,72.892,49.18,72.811,93.333c0,5.891-4.776,10.667-10.667,10.667H10.667z M22.101,490.836h361.152
	c-4.316-30.084-26.437-54.551-55.936-61.867l-68.8-17.195c-3.824-0.955-6.811-3.941-7.765-7.765l-7.851-31.381
	c-0.956-3.832,0.283-7.878,3.221-10.517c17.541-16.024,28.428-38.05,30.507-61.717c0.435-5.564,5.086-9.852,10.667-9.835
	c3.287,0.259,6.233-2.022,6.805-5.269l4.267-33.408c0.219-1.68-0.294-3.374-1.408-4.651c-1.472-1.664-8.533-1.579-12.139-5.419
	c-1.991-2.107-3.038-4.934-2.901-7.829l1.813-41.813c0.131-2.645,1.241-5.147,3.115-7.019l8.363-8.341
	c4.885-5.205,8.747-12.8-1.387-28.373c-11.14-14.52-29.033-22.198-47.232-20.267c-19.253-1.117-38.349,4.041-54.421,14.699
	c-1.782,1.272-3.912,1.964-6.101,1.984c-59.712,0.597-64.469,21.995-64.469,47.765c0,8.043,2.773,32,3.861,40.427
	c0.742,5.844-3.393,11.184-9.237,11.926c-0.474,0.06-0.952,0.089-1.429,0.085c-2.301-0.293-4.608,0.495-6.251,2.133
	c-1.149,1.293-1.678,3.022-1.451,4.736l4.267,33.365c0.376,3.016,2.934,5.282,5.973,5.291h2.709
	c5.573-0.018,10.221,4.258,10.667,9.813c2.064,22.945,12.362,44.367,28.992,60.309c2.822,2.647,3.989,6.615,3.051,10.368
	l-8.192,32.747c-0.955,3.824-3.941,6.811-7.765,7.765l-68.8,17.387C48.513,436.3,26.412,460.763,22.101,490.836z"/>
<path d="M384,256.169c-11.804-0.023-23.549-1.674-34.901-4.907c-5.673-1.588-8.985-7.474-7.397-13.147
	c1.004-3.589,3.809-6.393,7.397-7.397c56.631-16.23,89.382-75.295,73.152-131.926c-10.136-35.368-37.784-63.015-73.152-73.152
	c-5.673-1.588-8.985-7.474-7.397-13.147c1.004-3.589,3.809-6.393,7.397-7.397c67.971-19.426,138.82,19.927,158.246,87.898
	c19.426,67.971-19.927,138.82-87.898,158.246C407.92,254.536,395.988,256.195,384,256.169z M390.891,21.737
	c58.787,39.007,74.821,118.285,35.813,177.072c-9.428,14.208-21.605,26.386-35.813,35.813
	c58.787-3.816,103.349-54.565,99.534-113.352C486.954,67.803,444.358,25.208,390.891,21.737z"/>
<g>
</g>
<g>
</g>
<g>
</g>
<g>
</g>
<g>
</g>
<g>
</g>
<g>
</g>
<g>
</g>
<g>
</g>
<g>
</g>
<g>
</g>
<g>
</g>
<g>
</g>
<g>
</g>
<g>
</g>
</svg>
